<svg xmlns="http://www.w3.org/2000/svg" xmlns:xlink="http://www.w3.org/1999/xlink" width="500" zoomAndPan="magnify" viewBox="0 0 375 374.999991" height="500" preserveAspectRatio="xMidYMid meet" version="1.0"><defs><g/><clipPath id="16ed394924"><path d="M 141 66.789062 L 240 66.789062 L 240 151 L 141 151 Z M 141 66.789062 " clip-rule="nonzero"/></clipPath><clipPath id="7a71475f7f"><path d="M 144.789062 66.871094 C 137.804688 90.007812 213.699219 122.367188 239.429688 134.09375 L 239.277344 136.917969 C 239.007812 141.832031 237.226562 146.199219 234.304688 150.191406 C 156.3125 116.75 131.519531 94.539062 144.789062 66.871094 Z M 144.789062 66.871094 " clip-rule="nonzero"/></clipPath><linearGradient x1="72.140042" gradientTransform="matrix(-0.215204, 0, 0, 0.215204, 254.954118, 66.869198)" y1="193.59" x2="573.57006" gradientUnits="userSpaceOnUse" y2="193.59" id="66d34dd114"><stop stop-opacity="1" stop-color="rgb(99.998474%, 99.998474%, 99.998474%)" offset="0"/><stop stop-opacity="1" stop-color="rgb(99.82605%, 99.82605%, 99.82605%)" offset="0.015625"/><stop stop-opacity="1" stop-color="rgb(99.482727%, 99.482727%, 99.482727%)" offset="0.03125"/><stop stop-opacity="1" stop-color="rgb(99.139404%, 99.139404%, 99.139404%)" offset="0.046875"/><stop stop-opacity="1" stop-color="rgb(98.794556%, 98.794556%, 98.794556%)" offset="0.0625"/><stop stop-opacity="1" stop-color="rgb(98.451233%, 98.451233%, 98.451233%)" offset="0.078125"/><stop stop-opacity="1" stop-color="rgb(98.106384%, 98.106384%, 98.106384%)" offset="0.09375"/><stop stop-opacity="1" stop-color="rgb(97.763062%, 97.763062%, 97.763062%)" offset="0.109375"/><stop stop-opacity="1" stop-color="rgb(97.418213%, 97.418213%, 97.418213%)" offset="0.125"/><stop stop-opacity="1" stop-color="rgb(97.07489%, 97.07489%, 97.07489%)" offset="0.140625"/><stop stop-opacity="1" stop-color="rgb(96.731567%, 96.731567%, 96.731567%)" offset="0.15625"/><stop stop-opacity="1" stop-color="rgb(96.386719%, 96.386719%, 96.386719%)" offset="0.171875"/><stop stop-opacity="1" stop-color="rgb(96.043396%, 96.043396%, 96.043396%)" offset="0.1875"/><stop stop-opacity="1" stop-color="rgb(95.698547%, 95.698547%, 95.698547%)" offset="0.203125"/><stop stop-opacity="1" stop-color="rgb(95.355225%, 95.355225%, 95.355225%)" offset="0.21875"/><stop stop-opacity="1" stop-color="rgb(95.010376%, 95.010376%, 95.010376%)" offset="0.234375"/><stop stop-opacity="1" stop-color="rgb(94.667053%, 94.667053%, 94.667053%)" offset="0.25"/><stop stop-opacity="1" stop-color="rgb(94.32373%, 94.32373%, 94.32373%)" offset="0.265625"/><stop stop-opacity="1" stop-color="rgb(93.978882%, 93.978882%, 93.978882%)" offset="0.28125"/><stop stop-opacity="1" stop-color="rgb(93.635559%, 93.635559%, 93.635559%)" offset="0.296875"/><stop stop-opacity="1" stop-color="rgb(93.29071%, 93.29071%, 93.29071%)" offset="0.3125"/><stop stop-opacity="1" stop-color="rgb(92.947388%, 92.947388%, 92.947388%)" offset="0.328125"/><stop stop-opacity="1" stop-color="rgb(92.602539%, 92.602539%, 92.602539%)" offset="0.34375"/><stop stop-opacity="1" stop-color="rgb(92.259216%, 92.259216%, 92.259216%)" offset="0.359375"/><stop stop-opacity="1" stop-color="rgb(91.915894%, 91.915894%, 91.915894%)" offset="0.375"/><stop stop-opacity="1" stop-color="rgb(91.571045%, 91.571045%, 91.571045%)" offset="0.390625"/><stop stop-opacity="1" stop-color="rgb(91.227722%, 91.227722%, 91.227722%)" offset="0.40625"/><stop stop-opacity="1" stop-color="rgb(90.882874%, 90.882874%, 90.882874%)" offset="0.421875"/><stop stop-opacity="1" stop-color="rgb(90.539551%, 90.539551%, 90.539551%)" offset="0.4375"/><stop stop-opacity="1" stop-color="rgb(90.194702%, 90.194702%, 90.194702%)" offset="0.453125"/><stop stop-opacity="1" stop-color="rgb(89.851379%, 89.851379%, 89.851379%)" offset="0.46875"/><stop stop-opacity="1" stop-color="rgb(89.508057%, 89.508057%, 89.508057%)" offset="0.484375"/><stop stop-opacity="1" stop-color="rgb(89.163208%, 89.163208%, 89.163208%)" offset="0.5"/><stop stop-opacity="1" stop-color="rgb(88.819885%, 88.819885%, 88.819885%)" offset="0.515625"/><stop stop-opacity="1" stop-color="rgb(88.475037%, 88.475037%, 88.475037%)" offset="0.53125"/><stop stop-opacity="1" stop-color="rgb(88.131714%, 88.131714%, 88.131714%)" offset="0.546875"/><stop stop-opacity="1" stop-color="rgb(87.786865%, 87.786865%, 87.786865%)" offset="0.5625"/><stop stop-opacity="1" stop-color="rgb(87.443542%, 87.443542%, 87.443542%)" offset="0.578125"/><stop stop-opacity="1" stop-color="rgb(87.10022%, 87.10022%, 87.10022%)" offset="0.59375"/><stop stop-opacity="1" stop-color="rgb(86.755371%, 86.755371%, 86.755371%)" offset="0.609375"/><stop stop-opacity="1" stop-color="rgb(86.412048%, 86.412048%, 86.412048%)" offset="0.625"/><stop stop-opacity="1" stop-color="rgb(86.0672%, 86.0672%, 86.0672%)" offset="0.640625"/><stop stop-opacity="1" stop-color="rgb(85.723877%, 85.723877%, 85.723877%)" offset="0.65625"/><stop stop-opacity="1" stop-color="rgb(85.379028%, 85.379028%, 85.379028%)" offset="0.671875"/><stop stop-opacity="1" stop-color="rgb(85.035706%, 85.035706%, 85.035706%)" offset="0.6875"/><stop stop-opacity="1" stop-color="rgb(84.692383%, 84.692383%, 84.692383%)" offset="0.703125"/><stop stop-opacity="1" stop-color="rgb(84.347534%, 84.347534%, 84.347534%)" offset="0.71875"/><stop stop-opacity="1" stop-color="rgb(84.004211%, 84.004211%, 84.004211%)" offset="0.734375"/><stop stop-opacity="1" stop-color="rgb(83.659363%, 83.659363%, 83.659363%)" offset="0.75"/><stop stop-opacity="1" stop-color="rgb(83.31604%, 83.31604%, 83.31604%)" offset="0.765625"/><stop stop-opacity="1" stop-color="rgb(82.971191%, 82.971191%, 82.971191%)" offset="0.78125"/><stop stop-opacity="1" stop-color="rgb(82.627869%, 82.627869%, 82.627869%)" offset="0.796875"/><stop stop-opacity="1" stop-color="rgb(82.284546%, 82.284546%, 82.284546%)" offset="0.8125"/><stop stop-opacity="1" stop-color="rgb(81.939697%, 81.939697%, 81.939697%)" offset="0.828125"/><stop stop-opacity="1" stop-color="rgb(81.596375%, 81.596375%, 81.596375%)" offset="0.84375"/><stop stop-opacity="1" stop-color="rgb(81.251526%, 81.251526%, 81.251526%)" offset="0.859375"/><stop stop-opacity="1" stop-color="rgb(80.908203%, 80.908203%, 80.908203%)" offset="0.875"/><stop stop-opacity="1" stop-color="rgb(80.563354%, 80.563354%, 80.563354%)" offset="0.890625"/><stop stop-opacity="1" stop-color="rgb(80.220032%, 80.220032%, 80.220032%)" offset="0.90625"/><stop stop-opacity="1" stop-color="rgb(80.023193%, 80.023193%, 80.023193%)" offset="0.9375"/><stop stop-opacity="1" stop-color="rgb(79.998779%, 79.998779%, 79.998779%)" offset="1"/></linearGradient><clipPath id="d8f706499e"><path d="M 134 83 L 232 83 L 232 165 L 134 165 Z M 134 83 " clip-rule="nonzero"/></clipPath><clipPath id="23c224f064"><path d="M 138.347656 87.066406 C 143.496094 113.9375 196.652344 138.875 231.921875 153.308594 L 231.933594 153.316406 C 227.585938 157.339844 222.035156 161 215.71875 164.496094 C 144.230469 133.078125 125.289062 110.285156 137.765625 83.679688 C 137.894531 84.832031 138.089844 85.960938 138.347656 87.066406 Z M 138.347656 87.066406 " clip-rule="evenodd"/></clipPath><linearGradient x1="106.970075" gradientTransform="matrix(-0.215204, 0, 0, 0.215204, 254.954118, 66.869198)" y1="265.883" x2="602.52007" gradientUnits="userSpaceOnUse" y2="265.883" id="e9a851c5a5"><stop stop-opacity="1" stop-color="rgb(100%, 100%, 100%)" offset="0"/><stop stop-opacity="1" stop-color="rgb(99.829102%, 99.829102%, 99.829102%)" offset="0.015625"/><stop stop-opacity="1" stop-color="rgb(99.487305%, 99.487305%, 99.487305%)" offset="0.03125"/><stop stop-opacity="1" stop-color="rgb(99.147034%, 99.147034%, 99.147034%)" offset="0.046875"/><stop stop-opacity="1" stop-color="rgb(98.805237%, 98.805237%, 98.805237%)" offset="0.0625"/><stop stop-opacity="1" stop-color="rgb(98.464966%, 98.464966%, 98.464966%)" offset="0.078125"/><stop stop-opacity="1" stop-color="rgb(98.123169%, 98.123169%, 98.123169%)" offset="0.09375"/><stop stop-opacity="1" stop-color="rgb(97.782898%, 97.782898%, 97.782898%)" offset="0.109375"/><stop stop-opacity="1" stop-color="rgb(97.441101%, 97.441101%, 97.441101%)" offset="0.125"/><stop stop-opacity="1" stop-color="rgb(97.10083%, 97.10083%, 97.10083%)" offset="0.140625"/><stop stop-opacity="1" stop-color="rgb(96.759033%, 96.759033%, 96.759033%)" offset="0.15625"/><stop stop-opacity="1" stop-color="rgb(96.418762%, 96.418762%, 96.418762%)" offset="0.171875"/><stop stop-opacity="1" stop-color="rgb(96.078491%, 96.078491%, 96.078491%)" offset="0.1875"/><stop stop-opacity="1" stop-color="rgb(95.736694%, 95.736694%, 95.736694%)" offset="0.203125"/><stop stop-opacity="1" stop-color="rgb(95.396423%, 95.396423%, 95.396423%)" offset="0.21875"/><stop stop-opacity="1" stop-color="rgb(95.054626%, 95.054626%, 95.054626%)" offset="0.234375"/><stop stop-opacity="1" stop-color="rgb(94.714355%, 94.714355%, 94.714355%)" offset="0.25"/><stop stop-opacity="1" stop-color="rgb(94.372559%, 94.372559%, 94.372559%)" offset="0.265625"/><stop stop-opacity="1" stop-color="rgb(94.032288%, 94.032288%, 94.032288%)" offset="0.28125"/><stop stop-opacity="1" stop-color="rgb(93.690491%, 93.690491%, 93.690491%)" offset="0.296875"/><stop stop-opacity="1" stop-color="rgb(93.35022%, 93.35022%, 93.35022%)" offset="0.3125"/><stop stop-opacity="1" stop-color="rgb(93.008423%, 93.008423%, 93.008423%)" offset="0.328125"/><stop stop-opacity="1" stop-color="rgb(92.668152%, 92.668152%, 92.668152%)" offset="0.34375"/><stop stop-opacity="1" stop-color="rgb(92.326355%, 92.326355%, 92.326355%)" offset="0.359375"/><stop stop-opacity="1" stop-color="rgb(91.986084%, 91.986084%, 91.986084%)" offset="0.375"/><stop stop-opacity="1" stop-color="rgb(91.644287%, 91.644287%, 91.644287%)" offset="0.390625"/><stop stop-opacity="1" stop-color="rgb(91.304016%, 91.304016%, 91.304016%)" offset="0.40625"/><stop stop-opacity="1" stop-color="rgb(90.962219%, 90.962219%, 90.962219%)" offset="0.421875"/><stop stop-opacity="1" stop-color="rgb(90.621948%, 90.621948%, 90.621948%)" offset="0.4375"/><stop stop-opacity="1" stop-color="rgb(90.280151%, 90.280151%, 90.280151%)" offset="0.453125"/><stop stop-opacity="1" stop-color="rgb(89.93988%, 89.93988%, 89.93988%)" offset="0.46875"/><stop stop-opacity="1" stop-color="rgb(89.598083%, 89.598083%, 89.598083%)" offset="0.484375"/><stop stop-opacity="1" stop-color="rgb(89.257812%, 89.257812%, 89.257812%)" offset="0.5"/><stop stop-opacity="1" stop-color="rgb(88.916016%, 88.916016%, 88.916016%)" offset="0.515625"/><stop stop-opacity="1" stop-color="rgb(88.575745%, 88.575745%, 88.575745%)" offset="0.53125"/><stop stop-opacity="1" stop-color="rgb(88.235474%, 88.235474%, 88.235474%)" offset="0.546875"/><stop stop-opacity="1" stop-color="rgb(87.893677%, 87.893677%, 87.893677%)" offset="0.5625"/><stop stop-opacity="1" stop-color="rgb(87.553406%, 87.553406%, 87.553406%)" offset="0.578125"/><stop stop-opacity="1" stop-color="rgb(87.211609%, 87.211609%, 87.211609%)" offset="0.59375"/><stop stop-opacity="1" stop-color="rgb(86.871338%, 86.871338%, 86.871338%)" offset="0.609375"/><stop stop-opacity="1" stop-color="rgb(86.529541%, 86.529541%, 86.529541%)" offset="0.625"/><stop stop-opacity="1" stop-color="rgb(86.18927%, 86.18927%, 86.18927%)" offset="0.640625"/><stop stop-opacity="1" stop-color="rgb(85.847473%, 85.847473%, 85.847473%)" offset="0.65625"/><stop stop-opacity="1" stop-color="rgb(85.507202%, 85.507202%, 85.507202%)" offset="0.671875"/><stop stop-opacity="1" stop-color="rgb(85.165405%, 85.165405%, 85.165405%)" offset="0.6875"/><stop stop-opacity="1" stop-color="rgb(84.825134%, 84.825134%, 84.825134%)" offset="0.703125"/><stop stop-opacity="1" stop-color="rgb(84.483337%, 84.483337%, 84.483337%)" offset="0.71875"/><stop stop-opacity="1" stop-color="rgb(84.143066%, 84.143066%, 84.143066%)" offset="0.734375"/><stop stop-opacity="1" stop-color="rgb(83.80127%, 83.80127%, 83.80127%)" offset="0.75"/><stop stop-opacity="1" stop-color="rgb(83.460999%, 83.460999%, 83.460999%)" offset="0.765625"/><stop stop-opacity="1" stop-color="rgb(83.119202%, 83.119202%, 83.119202%)" offset="0.78125"/><stop stop-opacity="1" stop-color="rgb(82.778931%, 82.778931%, 82.778931%)" offset="0.796875"/><stop stop-opacity="1" stop-color="rgb(82.437134%, 82.437134%, 82.437134%)" offset="0.8125"/><stop stop-opacity="1" stop-color="rgb(82.096863%, 82.096863%, 82.096863%)" offset="0.828125"/><stop stop-opacity="1" stop-color="rgb(81.755066%, 81.755066%, 81.755066%)" offset="0.84375"/><stop stop-opacity="1" stop-color="rgb(81.414795%, 81.414795%, 81.414795%)" offset="0.859375"/><stop stop-opacity="1" stop-color="rgb(81.072998%, 81.072998%, 81.072998%)" offset="0.875"/><stop stop-opacity="1" stop-color="rgb(80.732727%, 80.732727%, 80.732727%)" offset="0.890625"/><stop stop-opacity="1" stop-color="rgb(80.392456%, 80.392456%, 80.392456%)" offset="0.90625"/><stop stop-opacity="1" stop-color="rgb(80.110168%, 80.110168%, 80.110168%)" offset="0.9375"/><stop stop-opacity="1" stop-color="rgb(79.998779%, 79.998779%, 79.998779%)" offset="1"/></linearGradient><clipPath id="72fea930e7"><path d="M 117 137 L 248 137 L 248 276 L 117 276 Z M 117 137 " clip-rule="nonzero"/></clipPath><clipPath id="e3bc3358e4"><path d="M 187.003906 204.667969 C 232.359375 185.640625 257.21875 163.933594 243.078125 137.125 C 240.226562 189.855469 92.445312 183.1875 120.609375 275.753906 C 124.679688 234.65625 157.242188 220.070312 187.003906 204.667969 Z M 187.003906 204.667969 " clip-rule="evenodd"/></clipPath><linearGradient x1="-10.519959" gradientTransform="matrix(-0.215204, 0, 0, 0.215204, 254.954118, 66.869198)" y1="648.547" x2="753.52095" gradientUnits="userSpaceOnUse" y2="648.547" id="345b01db25"><stop stop-opacity="1" stop-color="rgb(3.898621%, 45.098877%, 68.998718%)" offset="0"/><stop stop-opacity="1" stop-color="rgb(3.897095%, 45.109558%, 68.986511%)" offset="0.0625"/><stop stop-opacity="1" stop-color="rgb(3.875732%, 45.26825%, 68.826294%)" offset="0.0703125"/><stop stop-opacity="1" stop-color="rgb(3.837585%, 45.562744%, 68.527222%)" offset="0.078125"/><stop stop-opacity="1" stop-color="rgb(3.799438%, 45.857239%, 68.229675%)" offset="0.0859375"/><stop stop-opacity="1" stop-color="rgb(3.761292%, 46.151733%, 67.930603%)" offset="0.09375"/><stop stop-opacity="1" stop-color="rgb(3.721619%, 46.446228%, 67.633057%)" offset="0.101563"/><stop stop-opacity="1" stop-color="rgb(3.683472%, 46.740723%, 67.333984%)" offset="0.109375"/><stop stop-opacity="1" stop-color="rgb(3.645325%, 47.035217%, 67.036438%)" offset="0.117188"/><stop stop-opacity="1" stop-color="rgb(3.607178%, 47.329712%, 66.737366%)" offset="0.125"/><stop stop-opacity="1" stop-color="rgb(3.567505%, 47.624207%, 66.438293%)" offset="0.132812"/><stop stop-opacity="1" stop-color="rgb(3.529358%, 47.918701%, 66.140747%)" offset="0.140625"/><stop stop-opacity="1" stop-color="rgb(3.491211%, 48.213196%, 65.841675%)" offset="0.148438"/><stop stop-opacity="1" stop-color="rgb(3.453064%, 48.50769%, 65.544128%)" offset="0.15625"/><stop stop-opacity="1" stop-color="rgb(3.413391%, 48.802185%, 65.245056%)" offset="0.164062"/><stop stop-opacity="1" stop-color="rgb(3.375244%, 49.09668%, 64.94751%)" offset="0.171875"/><stop stop-opacity="1" stop-color="rgb(3.337097%, 49.391174%, 64.648438%)" offset="0.179688"/><stop stop-opacity="1" stop-color="rgb(3.29895%, 49.685669%, 64.350891%)" offset="0.1875"/><stop stop-opacity="1" stop-color="rgb(3.259277%, 49.980164%, 64.051819%)" offset="0.195312"/><stop stop-opacity="1" stop-color="rgb(3.22113%, 50.274658%, 63.752747%)" offset="0.203125"/><stop stop-opacity="1" stop-color="rgb(3.182983%, 50.569153%, 63.4552%)" offset="0.210938"/><stop stop-opacity="1" stop-color="rgb(3.144836%, 50.863647%, 63.156128%)" offset="0.21875"/><stop stop-opacity="1" stop-color="rgb(3.105164%, 51.158142%, 62.858582%)" offset="0.226562"/><stop stop-opacity="1" stop-color="rgb(3.067017%, 51.452637%, 62.559509%)" offset="0.234375"/><stop stop-opacity="1" stop-color="rgb(3.02887%, 51.747131%, 62.261963%)" offset="0.242188"/><stop stop-opacity="1" stop-color="rgb(2.990723%, 52.041626%, 61.962891%)" offset="0.25"/><stop stop-opacity="1" stop-color="rgb(2.95105%, 52.336121%, 61.663818%)" offset="0.257812"/><stop stop-opacity="1" stop-color="rgb(2.912903%, 52.630615%, 61.366272%)" offset="0.265625"/><stop stop-opacity="1" stop-color="rgb(2.874756%, 52.92511%, 61.0672%)" offset="0.273438"/><stop stop-opacity="1" stop-color="rgb(2.836609%, 53.219604%, 60.769653%)" offset="0.28125"/><stop stop-opacity="1" stop-color="rgb(2.796936%, 53.514099%, 60.470581%)" offset="0.289063"/><stop stop-opacity="1" stop-color="rgb(2.758789%, 53.808594%, 60.173035%)" offset="0.296875"/><stop stop-opacity="1" stop-color="rgb(2.720642%, 54.103088%, 59.873962%)" offset="0.304688"/><stop stop-opacity="1" stop-color="rgb(2.682495%, 54.397583%, 59.57489%)" offset="0.3125"/><stop stop-opacity="1" stop-color="rgb(2.642822%, 54.692078%, 59.277344%)" offset="0.320312"/><stop stop-opacity="1" stop-color="rgb(2.604675%, 54.986572%, 58.978271%)" offset="0.328125"/><stop stop-opacity="1" stop-color="rgb(2.566528%, 55.281067%, 58.680725%)" offset="0.335938"/><stop stop-opacity="1" stop-color="rgb(2.526855%, 55.575562%, 58.381653%)" offset="0.34375"/><stop stop-opacity="1" stop-color="rgb(2.488708%, 55.870056%, 58.084106%)" offset="0.351562"/><stop stop-opacity="1" stop-color="rgb(2.450562%, 56.164551%, 57.785034%)" offset="0.359375"/><stop stop-opacity="1" stop-color="rgb(2.412415%, 56.459045%, 57.485962%)" offset="0.367187"/><stop stop-opacity="1" stop-color="rgb(2.372742%, 56.75354%, 57.188416%)" offset="0.375"/><stop stop-opacity="1" stop-color="rgb(2.334595%, 57.048035%, 56.889343%)" offset="0.382813"/><stop stop-opacity="1" stop-color="rgb(2.296448%, 57.341003%, 56.591797%)" offset="0.390625"/><stop stop-opacity="1" stop-color="rgb(2.258301%, 57.635498%, 56.292725%)" offset="0.398438"/><stop stop-opacity="1" stop-color="rgb(2.218628%, 57.929993%, 55.995178%)" offset="0.40625"/><stop stop-opacity="1" stop-color="rgb(2.180481%, 58.224487%, 55.696106%)" offset="0.414062"/><stop stop-opacity="1" stop-color="rgb(2.142334%, 58.518982%, 55.397034%)" offset="0.421875"/><stop stop-opacity="1" stop-color="rgb(2.104187%, 58.813477%, 55.099487%)" offset="0.429688"/><stop stop-opacity="1" stop-color="rgb(2.064514%, 59.107971%, 54.800415%)" offset="0.4375"/><stop stop-opacity="1" stop-color="rgb(2.026367%, 59.402466%, 54.502869%)" offset="0.445312"/><stop stop-opacity="1" stop-color="rgb(1.98822%, 59.69696%, 54.203796%)" offset="0.453125"/><stop stop-opacity="1" stop-color="rgb(1.950073%, 59.991455%, 53.90625%)" offset="0.460938"/><stop stop-opacity="1" stop-color="rgb(1.9104%, 60.28595%, 53.607178%)" offset="0.46875"/><stop stop-opacity="1" stop-color="rgb(1.872253%, 60.580444%, 53.308105%)" offset="0.476562"/><stop stop-opacity="1" stop-color="rgb(1.834106%, 60.874939%, 53.010559%)" offset="0.484375"/><stop stop-opacity="1" stop-color="rgb(1.795959%, 61.169434%, 52.711487%)" offset="0.492188"/><stop stop-opacity="1" stop-color="rgb(1.756287%, 61.463928%, 52.41394%)" offset="0.5"/><stop stop-opacity="1" stop-color="rgb(1.71814%, 61.758423%, 52.114868%)" offset="0.507812"/><stop stop-opacity="1" stop-color="rgb(1.679993%, 62.052917%, 51.817322%)" offset="0.515625"/><stop stop-opacity="1" stop-color="rgb(1.641846%, 62.347412%, 51.51825%)" offset="0.523438"/><stop stop-opacity="1" stop-color="rgb(1.602173%, 62.641907%, 51.219177%)" offset="0.53125"/><stop stop-opacity="1" stop-color="rgb(1.564026%, 62.936401%, 50.921631%)" offset="0.539062"/><stop stop-opacity="1" stop-color="rgb(1.525879%, 63.230896%, 50.622559%)" offset="0.546875"/><stop stop-opacity="1" stop-color="rgb(1.487732%, 63.525391%, 50.325012%)" offset="0.554688"/><stop stop-opacity="1" stop-color="rgb(1.448059%, 63.819885%, 50.02594%)" offset="0.5625"/><stop stop-opacity="1" stop-color="rgb(1.409912%, 64.11438%, 49.728394%)" offset="0.570312"/><stop stop-opacity="1" stop-color="rgb(1.371765%, 64.408875%, 49.429321%)" offset="0.578125"/><stop stop-opacity="1" stop-color="rgb(1.333618%, 64.703369%, 49.130249%)" offset="0.585938"/><stop stop-opacity="1" stop-color="rgb(1.293945%, 64.997864%, 48.832703%)" offset="0.59375"/><stop stop-opacity="1" stop-color="rgb(1.255798%, 65.292358%, 48.53363%)" offset="0.601563"/><stop stop-opacity="1" stop-color="rgb(1.217651%, 65.586853%, 48.236084%)" offset="0.609375"/><stop stop-opacity="1" stop-color="rgb(1.179504%, 65.881348%, 47.937012%)" offset="0.617188"/><stop stop-opacity="1" stop-color="rgb(1.139832%, 66.175842%, 47.639465%)" offset="0.625"/><stop stop-opacity="1" stop-color="rgb(1.101685%, 66.470337%, 47.340393%)" offset="0.632812"/><stop stop-opacity="1" stop-color="rgb(1.063538%, 66.764832%, 47.041321%)" offset="0.640625"/><stop stop-opacity="1" stop-color="rgb(1.025391%, 67.059326%, 46.743774%)" offset="0.648438"/><stop stop-opacity="1" stop-color="rgb(0.985718%, 67.353821%, 46.444702%)" offset="0.65625"/><stop stop-opacity="1" stop-color="rgb(0.947571%, 67.648315%, 46.147156%)" offset="0.664062"/><stop stop-opacity="1" stop-color="rgb(0.909424%, 67.94281%, 45.848083%)" offset="0.671875"/><stop stop-opacity="1" stop-color="rgb(0.869751%, 68.237305%, 45.550537%)" offset="0.679688"/><stop stop-opacity="1" stop-color="rgb(0.831604%, 68.531799%, 45.251465%)" offset="0.6875"/><stop stop-opacity="1" stop-color="rgb(0.793457%, 68.826294%, 44.952393%)" offset="0.695312"/><stop stop-opacity="1" stop-color="rgb(0.75531%, 69.120789%, 44.654846%)" offset="0.703125"/><stop stop-opacity="1" stop-color="rgb(0.715637%, 69.415283%, 44.355774%)" offset="0.710938"/><stop stop-opacity="1" stop-color="rgb(0.67749%, 69.709778%, 44.058228%)" offset="0.71875"/><stop stop-opacity="1" stop-color="rgb(0.639343%, 70.004272%, 43.759155%)" offset="0.726562"/><stop stop-opacity="1" stop-color="rgb(0.601196%, 70.298767%, 43.461609%)" offset="0.734375"/><stop stop-opacity="1" stop-color="rgb(0.561523%, 70.593262%, 43.162537%)" offset="0.742188"/><stop stop-opacity="1" stop-color="rgb(0.523376%, 70.887756%, 42.863464%)" offset="0.75"/><stop stop-opacity="1" stop-color="rgb(0.485229%, 71.182251%, 42.565918%)" offset="0.757812"/><stop stop-opacity="1" stop-color="rgb(0.447083%, 71.476746%, 42.266846%)" offset="0.765625"/><stop stop-opacity="1" stop-color="rgb(0.40741%, 71.769714%, 41.969299%)" offset="0.773438"/><stop stop-opacity="1" stop-color="rgb(0.369263%, 72.064209%, 41.670227%)" offset="0.78125"/><stop stop-opacity="1" stop-color="rgb(0.331116%, 72.358704%, 41.372681%)" offset="0.789062"/><stop stop-opacity="1" stop-color="rgb(0.292969%, 72.653198%, 41.073608%)" offset="0.796875"/><stop stop-opacity="1" stop-color="rgb(0.253296%, 72.947693%, 40.774536%)" offset="0.804688"/><stop stop-opacity="1" stop-color="rgb(0.215149%, 73.242188%, 40.47699%)" offset="0.8125"/><stop stop-opacity="1" stop-color="rgb(0.177002%, 73.536682%, 40.177917%)" offset="0.820313"/><stop stop-opacity="1" stop-color="rgb(0.138855%, 73.831177%, 39.880371%)" offset="0.828125"/><stop stop-opacity="1" stop-color="rgb(0.0991821%, 74.125671%, 39.581299%)" offset="0.835938"/><stop stop-opacity="1" stop-color="rgb(0.0610352%, 74.420166%, 39.283752%)" offset="0.84375"/><stop stop-opacity="1" stop-color="rgb(0.0213623%, 74.732971%, 38.96637%)" offset="0.875"/><stop stop-opacity="1" stop-color="rgb(0%, 74.899292%, 38.798523%)" offset="1"/></linearGradient><clipPath id="45601bb336"><path d="M 125 155 L 255 155 L 255 298.539062 L 125 298.539062 Z M 125 155 " clip-rule="nonzero"/></clipPath><clipPath id="9851724274"><path d="M 250.242188 155.351562 C 243.695312 213.457031 97.511719 209.070312 130.539062 298.78125 C 138.519531 218.21875 282.542969 216.609375 250.242188 155.351562 Z M 250.242188 155.351562 " clip-rule="evenodd"/></clipPath><linearGradient x1="-126.620713" gradientTransform="matrix(-0.215204, 0, 0, 0.215204, 254.954118, 66.869198)" y1="744.40198" x2="731.600092" gradientUnits="userSpaceOnUse" y2="744.40198" id="12f5cfff9c"><stop stop-opacity="1" stop-color="rgb(3.898621%, 45.098877%, 68.998718%)" offset="0"/><stop stop-opacity="1" stop-color="rgb(3.898621%, 45.098877%, 68.998718%)" offset="0.125"/><stop stop-opacity="1" stop-color="rgb(3.874207%, 45.283508%, 68.811035%)" offset="0.15625"/><stop stop-opacity="1" stop-color="rgb(3.82843%, 45.635986%, 68.453979%)" offset="0.164062"/><stop stop-opacity="1" stop-color="rgb(3.785706%, 45.968628%, 68.11676%)" offset="0.171875"/><stop stop-opacity="1" stop-color="rgb(3.741455%, 46.30127%, 67.779541%)" offset="0.179688"/><stop stop-opacity="1" stop-color="rgb(3.697205%, 46.633911%, 67.442322%)" offset="0.1875"/><stop stop-opacity="1" stop-color="rgb(3.65448%, 46.966553%, 67.105103%)" offset="0.195312"/><stop stop-opacity="1" stop-color="rgb(3.610229%, 47.299194%, 66.767883%)" offset="0.203125"/><stop stop-opacity="1" stop-color="rgb(3.567505%, 47.631836%, 66.43219%)" offset="0.210937"/><stop stop-opacity="1" stop-color="rgb(3.523254%, 47.964478%, 66.094971%)" offset="0.21875"/><stop stop-opacity="1" stop-color="rgb(3.48053%, 48.297119%, 65.757751%)" offset="0.226562"/><stop stop-opacity="1" stop-color="rgb(3.436279%, 48.629761%, 65.420532%)" offset="0.234375"/><stop stop-opacity="1" stop-color="rgb(3.393555%, 48.962402%, 65.083313%)" offset="0.242187"/><stop stop-opacity="1" stop-color="rgb(3.349304%, 49.295044%, 64.746094%)" offset="0.25"/><stop stop-opacity="1" stop-color="rgb(3.30658%, 49.627686%, 64.408875%)" offset="0.257812"/><stop stop-opacity="1" stop-color="rgb(3.262329%, 49.960327%, 64.071655%)" offset="0.265625"/><stop stop-opacity="1" stop-color="rgb(3.219604%, 50.292969%, 63.734436%)" offset="0.273437"/><stop stop-opacity="1" stop-color="rgb(3.175354%, 50.62561%, 63.397217%)" offset="0.28125"/><stop stop-opacity="1" stop-color="rgb(3.132629%, 50.958252%, 63.059998%)" offset="0.289062"/><stop stop-opacity="1" stop-color="rgb(3.088379%, 51.290894%, 62.722778%)" offset="0.296875"/><stop stop-opacity="1" stop-color="rgb(3.045654%, 51.623535%, 62.385559%)" offset="0.304687"/><stop stop-opacity="1" stop-color="rgb(3.001404%, 51.956177%, 62.049866%)" offset="0.3125"/><stop stop-opacity="1" stop-color="rgb(2.957153%, 52.288818%, 61.712646%)" offset="0.320312"/><stop stop-opacity="1" stop-color="rgb(2.914429%, 52.62146%, 61.375427%)" offset="0.328125"/><stop stop-opacity="1" stop-color="rgb(2.870178%, 52.954102%, 61.038208%)" offset="0.335938"/><stop stop-opacity="1" stop-color="rgb(2.827454%, 53.286743%, 60.700989%)" offset="0.34375"/><stop stop-opacity="1" stop-color="rgb(2.783203%, 53.619385%, 60.36377%)" offset="0.351562"/><stop stop-opacity="1" stop-color="rgb(2.740479%, 53.952026%, 60.02655%)" offset="0.359375"/><stop stop-opacity="1" stop-color="rgb(2.696228%, 54.284668%, 59.689331%)" offset="0.367188"/><stop stop-opacity="1" stop-color="rgb(2.653503%, 54.61731%, 59.352112%)" offset="0.375"/><stop stop-opacity="1" stop-color="rgb(2.609253%, 54.949951%, 59.014893%)" offset="0.382812"/><stop stop-opacity="1" stop-color="rgb(2.566528%, 55.282593%, 58.677673%)" offset="0.390625"/><stop stop-opacity="1" stop-color="rgb(2.522278%, 55.615234%, 58.340454%)" offset="0.398437"/><stop stop-opacity="1" stop-color="rgb(2.479553%, 55.947876%, 58.003235%)" offset="0.40625"/><stop stop-opacity="1" stop-color="rgb(2.435303%, 56.280518%, 57.666016%)" offset="0.414062"/><stop stop-opacity="1" stop-color="rgb(2.392578%, 56.613159%, 57.330322%)" offset="0.421875"/><stop stop-opacity="1" stop-color="rgb(2.348328%, 56.945801%, 56.993103%)" offset="0.429687"/><stop stop-opacity="1" stop-color="rgb(2.305603%, 57.278442%, 56.655884%)" offset="0.4375"/><stop stop-opacity="1" stop-color="rgb(2.261353%, 57.611084%, 56.318665%)" offset="0.445312"/><stop stop-opacity="1" stop-color="rgb(2.217102%, 57.943726%, 55.981445%)" offset="0.453125"/><stop stop-opacity="1" stop-color="rgb(2.174377%, 58.276367%, 55.644226%)" offset="0.460937"/><stop stop-opacity="1" stop-color="rgb(2.130127%, 58.609009%, 55.307007%)" offset="0.46875"/><stop stop-opacity="1" stop-color="rgb(2.087402%, 58.94165%, 54.969788%)" offset="0.476562"/><stop stop-opacity="1" stop-color="rgb(2.043152%, 59.274292%, 54.632568%)" offset="0.484375"/><stop stop-opacity="1" stop-color="rgb(2.000427%, 59.606934%, 54.295349%)" offset="0.492187"/><stop stop-opacity="1" stop-color="rgb(1.956177%, 59.939575%, 53.95813%)" offset="0.5"/><stop stop-opacity="1" stop-color="rgb(1.913452%, 60.272217%, 53.620911%)" offset="0.507812"/><stop stop-opacity="1" stop-color="rgb(1.869202%, 60.604858%, 53.283691%)" offset="0.515625"/><stop stop-opacity="1" stop-color="rgb(1.826477%, 60.9375%, 52.947998%)" offset="0.523438"/><stop stop-opacity="1" stop-color="rgb(1.782227%, 61.270142%, 52.610779%)" offset="0.53125"/><stop stop-opacity="1" stop-color="rgb(1.739502%, 61.602783%, 52.27356%)" offset="0.539062"/><stop stop-opacity="1" stop-color="rgb(1.695251%, 61.935425%, 51.93634%)" offset="0.546875"/><stop stop-opacity="1" stop-color="rgb(1.652527%, 62.268066%, 51.599121%)" offset="0.554688"/><stop stop-opacity="1" stop-color="rgb(1.608276%, 62.600708%, 51.261902%)" offset="0.5625"/><stop stop-opacity="1" stop-color="rgb(1.565552%, 62.93335%, 50.924683%)" offset="0.570312"/><stop stop-opacity="1" stop-color="rgb(1.521301%, 63.265991%, 50.587463%)" offset="0.578125"/><stop stop-opacity="1" stop-color="rgb(1.477051%, 63.598633%, 50.250244%)" offset="0.585938"/><stop stop-opacity="1" stop-color="rgb(1.434326%, 63.931274%, 49.913025%)" offset="0.59375"/><stop stop-opacity="1" stop-color="rgb(1.390076%, 64.263916%, 49.575806%)" offset="0.601562"/><stop stop-opacity="1" stop-color="rgb(1.347351%, 64.596558%, 49.238586%)" offset="0.609375"/><stop stop-opacity="1" stop-color="rgb(1.303101%, 64.929199%, 48.901367%)" offset="0.617188"/><stop stop-opacity="1" stop-color="rgb(1.260376%, 65.261841%, 48.565674%)" offset="0.625"/><stop stop-opacity="1" stop-color="rgb(1.216125%, 65.594482%, 48.228455%)" offset="0.632812"/><stop stop-opacity="1" stop-color="rgb(1.173401%, 65.927124%, 47.891235%)" offset="0.640625"/><stop stop-opacity="1" stop-color="rgb(1.12915%, 66.259766%, 47.554016%)" offset="0.648437"/><stop stop-opacity="1" stop-color="rgb(1.086426%, 66.592407%, 47.216797%)" offset="0.65625"/><stop stop-opacity="1" stop-color="rgb(1.042175%, 66.925049%, 46.879578%)" offset="0.664062"/><stop stop-opacity="1" stop-color="rgb(0.999451%, 67.25769%, 46.542358%)" offset="0.671875"/><stop stop-opacity="1" stop-color="rgb(0.9552%, 67.590332%, 46.205139%)" offset="0.679687"/><stop stop-opacity="1" stop-color="rgb(0.912476%, 67.922974%, 45.86792%)" offset="0.6875"/><stop stop-opacity="1" stop-color="rgb(0.868225%, 68.255615%, 45.530701%)" offset="0.695312"/><stop stop-opacity="1" stop-color="rgb(0.823975%, 68.588257%, 45.193481%)" offset="0.703125"/><stop stop-opacity="1" stop-color="rgb(0.78125%, 68.920898%, 44.856262%)" offset="0.710938"/><stop stop-opacity="1" stop-color="rgb(0.737%, 69.25354%, 44.519043%)" offset="0.71875"/><stop stop-opacity="1" stop-color="rgb(0.694275%, 69.586182%, 44.181824%)" offset="0.726562"/><stop stop-opacity="1" stop-color="rgb(0.650024%, 69.918823%, 43.84613%)" offset="0.734375"/><stop stop-opacity="1" stop-color="rgb(0.6073%, 70.251465%, 43.508911%)" offset="0.742188"/><stop stop-opacity="1" stop-color="rgb(0.563049%, 70.584106%, 43.171692%)" offset="0.75"/><stop stop-opacity="1" stop-color="rgb(0.520325%, 70.916748%, 42.834473%)" offset="0.757812"/><stop stop-opacity="1" stop-color="rgb(0.476074%, 71.24939%, 42.497253%)" offset="0.765625"/><stop stop-opacity="1" stop-color="rgb(0.43335%, 71.582031%, 42.160034%)" offset="0.773438"/><stop stop-opacity="1" stop-color="rgb(0.389099%, 71.914673%, 41.822815%)" offset="0.78125"/><stop stop-opacity="1" stop-color="rgb(0.346375%, 72.247314%, 41.485596%)" offset="0.789062"/><stop stop-opacity="1" stop-color="rgb(0.302124%, 72.579956%, 41.148376%)" offset="0.796875"/><stop stop-opacity="1" stop-color="rgb(0.259399%, 72.912598%, 40.811157%)" offset="0.804687"/><stop stop-opacity="1" stop-color="rgb(0.215149%, 73.245239%, 40.473938%)" offset="0.8125"/><stop stop-opacity="1" stop-color="rgb(0.172424%, 73.577881%, 40.136719%)" offset="0.820312"/><stop stop-opacity="1" stop-color="rgb(0.128174%, 73.910522%, 39.7995%)" offset="0.828125"/><stop stop-opacity="1" stop-color="rgb(0.0839233%, 74.243164%, 39.463806%)" offset="0.835937"/><stop stop-opacity="1" stop-color="rgb(0.0411987%, 74.575806%, 39.126587%)" offset="0.84375"/><stop stop-opacity="1" stop-color="rgb(0.00915527%, 74.819946%, 38.877869%)" offset="0.875"/><stop stop-opacity="1" stop-color="rgb(0%, 74.899292%, 38.798523%)" offset="1"/></linearGradient></defs><g clip-path="url(#16ed394924)"><g clip-path="url(#7a71475f7f)"><path fill="url(#66d34dd114)" d="M 239.429688 66.871094 L 239.429688 150.191406 L 131.519531 150.191406 L 131.519531 66.871094 Z M 239.429688 66.871094 " fill-rule="nonzero"/></g></g><g clip-path="url(#d8f706499e)"><g clip-path="url(#23c224f064)"><path fill="url(#e9a851c5a5)" d="M 231.933594 83.679688 L 231.933594 164.496094 L 125.289062 164.496094 L 125.289062 83.679688 Z M 231.933594 83.679688 " fill-rule="nonzero"/></g></g><g clip-path="url(#72fea930e7)"><g clip-path="url(#e3bc3358e4)"><path fill="url(#345b01db25)" d="M 257.21875 137.125 L 257.21875 275.753906 L 92.792969 275.753906 L 92.792969 137.125 Z M 257.21875 137.125 " fill-rule="nonzero"/></g></g><g clip-path="url(#45601bb336)"><g clip-path="url(#9851724274)"><path fill="url(#12f5cfff9c)" d="M 282.203125 155.351562 L 282.203125 298.539062 L 97.511719 298.539062 L 97.511719 155.351562 Z M 282.203125 155.351562 " fill-rule="nonzero"/></g></g><g fill="#000000" fill-opacity="0.5098"><g transform="translate(118.582456, 236.849556)"><g><path d="M 83.511719 -31.140625 C 83.511719 -33.183594 82.570312 -40.261719 78.164062 -45.925781 C 77.0625 -47.496094 75.335938 -48.753906 73.445312 -49.855469 C 70.929688 -51.269531 67.785156 -52.53125 64.011719 -54.101562 C 67.3125 -54.886719 73.132812 -59.292969 75.335938 -64.324219 C 76.121094 -66.054688 76.90625 -69.042969 77.222656 -71.085938 C 77.535156 -72.816406 77.851562 -74.707031 77.851562 -76.59375 C 77.851562 -77.691406 77.535156 -79.738281 77.378906 -80.679688 C 76.90625 -82.882812 76.121094 -84.929688 74.863281 -86.816406 C 74.074219 -87.917969 73.289062 -89.015625 72.1875 -89.960938 C 71.246094 -90.90625 70.144531 -92.003906 69.042969 -92.792969 C 67.941406 -93.578125 66.839844 -94.050781 65.742188 -94.679688 C 63.539062 -95.9375 61.179688 -97.195312 58.664062 -98.140625 C 56.304688 -98.769531 53.945312 -98.925781 51.902344 -99.398438 C 47.652344 -100.027344 43.722656 -100.5 39.476562 -100.65625 L 37.117188 -100.65625 C 35.230469 -100.65625 33.5 -100.65625 31.769531 -100.5 L 24.378906 -100.027344 C 27.050781 -98.769531 31.925781 -99.554688 35.703125 -99.398438 C 34.601562 -98.769531 34.601562 -97.980469 32.554688 -97.511719 L 29.882812 -97.511719 C 29.882812 -97.824219 29.726562 -97.980469 29.410156 -97.980469 C 29.09375 -97.980469 28.9375 -97.824219 28.78125 -97.511719 C 27.679688 -97.511719 26.578125 -97.351562 25.476562 -97.195312 C 24.691406 -96.878906 24.378906 -96.722656 24.378906 -96.566406 C 24.378906 -96.09375 25.949219 -95.9375 26.578125 -95.464844 L 26.738281 -95.464844 C 26.894531 -95.308594 26.894531 -95.308594 26.894531 -95.152344 L 24.0625 -95.78125 C 22.648438 -95.9375 21.074219 -96.410156 19.660156 -96.878906 C 18.558594 -97.195312 17.457031 -97.351562 16.515625 -97.351562 C 15.726562 -97.351562 15.253906 -97.351562 14.941406 -97.195312 C 12.894531 -83.199219 11.636719 -69.515625 11.167969 -56.148438 C 11.007812 -50.328125 11.007812 -44.195312 11.007812 -38.375 L 11.007812 -31.140625 C 11.007812 -21.074219 11.007812 -11.796875 11.167969 -2.359375 C 11.324219 -2.515625 11.636719 -2.515625 11.796875 -2.515625 C 12.425781 -2.515625 12.894531 -2.203125 13.367188 -2.203125 C 13.839844 -2.203125 14.15625 -2.359375 14.46875 -2.671875 C 15.253906 -2.988281 15.253906 -3.144531 15.882812 -3.617188 L 16.355469 -3.460938 C 16.355469 -2.988281 16.671875 -2.515625 16.828125 -2.042969 C 16.828125 -1.574219 18.402344 -0.316406 18.871094 0.945312 C 19.03125 1.414062 19.1875 1.730469 19.1875 2.042969 C 19.1875 2.203125 19.03125 2.359375 18.871094 2.832031 C 18.402344 3.304688 17.613281 3.460938 16.515625 3.460938 L 47.652344 3.460938 C 55.675781 2.988281 62.753906 0.472656 68.570312 -3.304688 C 70.300781 -4.402344 71.71875 -6.132812 73.132812 -7.390625 C 74.863281 -8.964844 76.433594 -10.222656 77.691406 -11.953125 C 78.953125 -13.683594 79.582031 -15.414062 80.523438 -17.300781 C 82.570312 -21.546875 83.511719 -26.265625 83.511719 -31.140625 Z M 32.554688 -84.613281 L 36.800781 -84.613281 C 44.195312 -84.457031 49.542969 -83.199219 53 -80.679688 C 54.730469 -79.582031 57.089844 -78.164062 57.089844 -76.277344 C 57.089844 -74.546875 58.976562 -71.246094 56.304688 -66.371094 C 55.675781 -64.953125 54.574219 -63.851562 53.316406 -62.910156 C 49.226562 -60.078125 42.148438 -59.136719 31.613281 -59.921875 C 31.769531 -65.742188 31.925781 -78.007812 32.398438 -83.511719 C 32.554688 -83.667969 32.554688 -84.140625 32.554688 -84.613281 Z M 63.695312 -30.824219 C 63.695312 -28.152344 62.910156 -25.636719 61.179688 -23.121094 C 60.707031 -22.332031 58.507812 -20.132812 57.875 -19.34375 C 53.472656 -14.46875 47.8125 -12.582031 38.058594 -12.582031 L 30.511719 -12.582031 L 30.355469 -21.074219 L 30.355469 -22.804688 C 30.195312 -24.21875 30.039062 -25.636719 30.039062 -27.050781 C 30.039062 -30.984375 30.511719 -35.070312 30.355469 -39.003906 C 30.195312 -45.136719 30.824219 -47.8125 31.453125 -55.359375 C 32.082031 -54.730469 32.398438 -54.101562 32.554688 -53.628906 C 32.554688 -52.84375 31.613281 -52.058594 31.453125 -51.269531 C 31.453125 -50.484375 31.769531 -49.699219 32.398438 -49.070312 C 32.398438 -48.914062 33.8125 -47.8125 34.914062 -46.394531 C 36.171875 -45.136719 34.128906 -45.453125 34.128906 -43.566406 C 36.644531 -44.351562 39.476562 -44.980469 41.992188 -46.082031 C 41.992188 -45.609375 42.308594 -45.136719 42.464844 -44.664062 C 47.023438 -44.664062 50.171875 -43.878906 53.472656 -43.25 C 56.148438 -42.777344 58.820312 -40.578125 60.394531 -39.476562 C 63.222656 -37.117188 63.695312 -34.757812 63.695312 -30.824219 Z M 63.695312 -30.824219 "/></g></g></g><g fill="#00bf63" fill-opacity="1"><g transform="translate(112.050966, 226.791947)"><g><path d="M 83.511719 -31.140625 C 83.511719 -33.183594 82.570312 -40.261719 78.164062 -45.925781 C 77.0625 -47.496094 75.335938 -48.753906 73.445312 -49.855469 C 70.929688 -51.269531 67.785156 -52.53125 64.011719 -54.101562 C 67.3125 -54.886719 73.132812 -59.292969 75.335938 -64.324219 C 76.121094 -66.054688 76.90625 -69.042969 77.222656 -71.085938 C 77.535156 -72.816406 77.851562 -74.707031 77.851562 -76.59375 C 77.851562 -77.691406 77.535156 -79.738281 77.378906 -80.679688 C 76.90625 -82.882812 76.121094 -84.929688 74.863281 -86.816406 C 74.074219 -87.917969 73.289062 -89.015625 72.1875 -89.960938 C 71.246094 -90.90625 70.144531 -92.003906 69.042969 -92.792969 C 67.941406 -93.578125 66.839844 -94.050781 65.742188 -94.679688 C 63.539062 -95.9375 61.179688 -97.195312 58.664062 -98.140625 C 56.304688 -98.769531 53.945312 -98.925781 51.902344 -99.398438 C 47.652344 -100.027344 43.722656 -100.5 39.476562 -100.65625 L 37.117188 -100.65625 C 35.230469 -100.65625 33.5 -100.65625 31.769531 -100.5 L 24.378906 -100.027344 C 27.050781 -98.769531 31.925781 -99.554688 35.703125 -99.398438 C 34.601562 -98.769531 34.601562 -97.980469 32.554688 -97.511719 L 29.882812 -97.511719 C 29.882812 -97.824219 29.726562 -97.980469 29.410156 -97.980469 C 29.09375 -97.980469 28.9375 -97.824219 28.78125 -97.511719 C 27.679688 -97.511719 26.578125 -97.351562 25.476562 -97.195312 C 24.691406 -96.878906 24.378906 -96.722656 24.378906 -96.566406 C 24.378906 -96.09375 25.949219 -95.9375 26.578125 -95.464844 L 26.738281 -95.464844 C 26.894531 -95.308594 26.894531 -95.308594 26.894531 -95.152344 L 24.0625 -95.78125 C 22.648438 -95.9375 21.074219 -96.410156 19.660156 -96.878906 C 18.558594 -97.195312 17.457031 -97.351562 16.515625 -97.351562 C 15.726562 -97.351562 15.253906 -97.351562 14.941406 -97.195312 C 12.894531 -83.199219 11.636719 -69.515625 11.167969 -56.148438 C 11.007812 -50.328125 11.007812 -44.195312 11.007812 -38.375 L 11.007812 -31.140625 C 11.007812 -21.074219 11.007812 -11.796875 11.167969 -2.359375 C 11.324219 -2.515625 11.636719 -2.515625 11.796875 -2.515625 C 12.425781 -2.515625 12.894531 -2.203125 13.367188 -2.203125 C 13.839844 -2.203125 14.15625 -2.359375 14.46875 -2.671875 C 15.253906 -2.988281 15.253906 -3.144531 15.882812 -3.617188 L 16.355469 -3.460938 C 16.355469 -2.988281 16.671875 -2.515625 16.828125 -2.042969 C 16.828125 -1.574219 18.402344 -0.316406 18.871094 0.945312 C 19.03125 1.414062 19.1875 1.730469 19.1875 2.042969 C 19.1875 2.203125 19.03125 2.359375 18.871094 2.832031 C 18.402344 3.304688 17.613281 3.460938 16.515625 3.460938 L 47.652344 3.460938 C 55.675781 2.988281 62.753906 0.472656 68.570312 -3.304688 C 70.300781 -4.402344 71.71875 -6.132812 73.132812 -7.390625 C 74.863281 -8.964844 76.433594 -10.222656 77.691406 -11.953125 C 78.953125 -13.683594 79.582031 -15.414062 80.523438 -17.300781 C 82.570312 -21.546875 83.511719 -26.265625 83.511719 -31.140625 Z M 32.554688 -84.613281 L 36.800781 -84.613281 C 44.195312 -84.457031 49.542969 -83.199219 53 -80.679688 C 54.730469 -79.582031 57.089844 -78.164062 57.089844 -76.277344 C 57.089844 -74.546875 58.976562 -71.246094 56.304688 -66.371094 C 55.675781 -64.953125 54.574219 -63.851562 53.316406 -62.910156 C 49.226562 -60.078125 42.148438 -59.136719 31.613281 -59.921875 C 31.769531 -65.742188 31.925781 -78.007812 32.398438 -83.511719 C 32.554688 -83.667969 32.554688 -84.140625 32.554688 -84.613281 Z M 63.695312 -30.824219 C 63.695312 -28.152344 62.910156 -25.636719 61.179688 -23.121094 C 60.707031 -22.332031 58.507812 -20.132812 57.875 -19.34375 C 53.472656 -14.46875 47.8125 -12.582031 38.058594 -12.582031 L 30.511719 -12.582031 L 30.355469 -21.074219 L 30.355469 -22.804688 C 30.195312 -24.21875 30.039062 -25.636719 30.039062 -27.050781 C 30.039062 -30.984375 30.511719 -35.070312 30.355469 -39.003906 C 30.195312 -45.136719 30.824219 -47.8125 31.453125 -55.359375 C 32.082031 -54.730469 32.398438 -54.101562 32.554688 -53.628906 C 32.554688 -52.84375 31.613281 -52.058594 31.453125 -51.269531 C 31.453125 -50.484375 31.769531 -49.699219 32.398438 -49.070312 C 32.398438 -48.914062 33.8125 -47.8125 34.914062 -46.394531 C 36.171875 -45.136719 34.128906 -45.453125 34.128906 -43.566406 C 36.644531 -44.351562 39.476562 -44.980469 41.992188 -46.082031 C 41.992188 -45.609375 42.308594 -45.136719 42.464844 -44.664062 C 47.023438 -44.664062 50.171875 -43.878906 53.472656 -43.25 C 56.148438 -42.777344 58.820312 -40.578125 60.394531 -39.476562 C 63.222656 -37.117188 63.695312 -34.757812 63.695312 -30.824219 Z M 63.695312 -30.824219 "/></g></g></g><g fill="#00bf63" fill-opacity="0.4784"><g transform="translate(199.851508, 236.114899)"><g><path d="M 73.242188 1.472656 L 73.078125 -2.617188 C 72.585938 -3.921875 71.933594 -5.394531 71.933594 -6.703125 L 71.933594 -7.355469 C 71.933594 -8.5 72.914062 -8.992188 73.078125 -9.808594 L 73.242188 -11.605469 L 73.078125 -13.078125 C 72.914062 -13.894531 71.933594 -16.511719 71.933594 -18.308594 C 71.933594 -19.78125 72.75 -19.128906 73.242188 -20.433594 C 70.296875 -20.433594 67.355469 -20.273438 64.25 -19.945312 L 63.429688 -19.78125 C 61.304688 -19.617188 59.015625 -19.617188 56.566406 -19.617188 L 49.371094 -19.617188 C 44.632812 -19.617188 40.054688 -19.78125 35.476562 -19.292969 C 34.984375 -21.742188 35.148438 -24.359375 35.148438 -26.976562 L 35.148438 -66.210938 L 37.273438 -89.261719 L 35.148438 -103.976562 C 33.675781 -102.011719 34.332031 -97.4375 34.332031 -92.695312 C 33.1875 -93.839844 32.207031 -93.839844 31.714844 -95.636719 L 31.550781 -97.273438 L 31.714844 -100.707031 C 31.714844 -101.6875 31.550781 -102.503906 31.226562 -103.15625 C 31.0625 -103.648438 30.898438 -103.976562 30.40625 -103.976562 C 29.917969 -103.976562 29.753906 -102.667969 29.261719 -101.851562 C 28.773438 -101.195312 28.117188 -100.871094 27.300781 -100.871094 L 25.011719 -101.03125 C 22.5625 -101.03125 20.273438 -102.011719 17.65625 -102.011719 C 16.839844 -102.011719 15.859375 -101.851562 14.878906 -101.523438 L 14.878906 -16.511719 L 14.386719 -12.261719 C 13.242188 -12.261719 12.75 -12.261719 11.933594 -11.769531 C 11.605469 -11.605469 11.445312 -11.445312 11.445312 -11.28125 C 11.445312 -10.789062 12.589844 -10.300781 13.078125 -9.808594 C 13.894531 -9.15625 13.894531 -8.175781 13.894531 -7.03125 L 13.894531 -5.886719 C 14.058594 -4.742188 14.058594 -3.597656 14.058594 -2.453125 C 14.058594 0 14.058594 2.289062 14.878906 4.25 L 40.054688 2.125 C 45.121094 1.636719 50.027344 1.636719 55.09375 1.472656 Z M 73.242188 1.472656 "/></g></g></g><g fill="#000000" fill-opacity="1"><g transform="translate(192.443807, 230.327369)"><g><path d="M 73.242188 1.472656 L 73.078125 -2.617188 C 72.585938 -3.921875 71.933594 -5.394531 71.933594 -6.703125 L 71.933594 -7.355469 C 71.933594 -8.5 72.914062 -8.992188 73.078125 -9.808594 L 73.242188 -11.605469 L 73.078125 -13.078125 C 72.914062 -13.894531 71.933594 -16.511719 71.933594 -18.308594 C 71.933594 -19.78125 72.75 -19.128906 73.242188 -20.433594 C 70.296875 -20.433594 67.355469 -20.273438 64.25 -19.945312 L 63.429688 -19.78125 C 61.304688 -19.617188 59.015625 -19.617188 56.566406 -19.617188 L 49.371094 -19.617188 C 44.632812 -19.617188 40.054688 -19.78125 35.476562 -19.292969 C 34.984375 -21.742188 35.148438 -24.359375 35.148438 -26.976562 L 35.148438 -66.210938 L 37.273438 -89.261719 L 35.148438 -103.976562 C 33.675781 -102.011719 34.332031 -97.4375 34.332031 -92.695312 C 33.1875 -93.839844 32.207031 -93.839844 31.714844 -95.636719 L 31.550781 -97.273438 L 31.714844 -100.707031 C 31.714844 -101.6875 31.550781 -102.503906 31.226562 -103.15625 C 31.0625 -103.648438 30.898438 -103.976562 30.40625 -103.976562 C 29.917969 -103.976562 29.753906 -102.667969 29.261719 -101.851562 C 28.773438 -101.195312 28.117188 -100.871094 27.300781 -100.871094 L 25.011719 -101.03125 C 22.5625 -101.03125 20.273438 -102.011719 17.65625 -102.011719 C 16.839844 -102.011719 15.859375 -101.851562 14.878906 -101.523438 L 14.878906 -16.511719 L 14.386719 -12.261719 C 13.242188 -12.261719 12.75 -12.261719 11.933594 -11.769531 C 11.605469 -11.605469 11.445312 -11.445312 11.445312 -11.28125 C 11.445312 -10.789062 12.589844 -10.300781 13.078125 -9.808594 C 13.894531 -9.15625 13.894531 -8.175781 13.894531 -7.03125 L 13.894531 -5.886719 C 14.058594 -4.742188 14.058594 -3.597656 14.058594 -2.453125 C 14.058594 0 14.058594 2.289062 14.878906 4.25 L 40.054688 2.125 C 45.121094 1.636719 50.027344 1.636719 55.09375 1.472656 Z M 73.242188 1.472656 "/></g></g></g></svg>