<svg xmlns="http://www.w3.org/2000/svg" xmlns:xlink="http://www.w3.org/1999/xlink" width="500" zoomAndPan="magnify" viewBox="0 0 375 374.999991" height="500" preserveAspectRatio="xMidYMid meet" version="1.0"><defs><g/><clipPath id="34dd418bf6"><path d="M 137 58.082031 L 236 58.082031 L 236 142 L 137 142 Z M 137 58.082031 " clip-rule="nonzero"/></clipPath><clipPath id="4aae74cba9"><path d="M 140.636719 58.164062 C 133.652344 81.300781 209.546875 113.660156 235.277344 125.386719 L 235.125 128.210938 C 234.855469 133.128906 233.074219 137.492188 230.152344 141.484375 C 152.160156 108.042969 127.367188 85.832031 140.636719 58.164062 Z M 140.636719 58.164062 " clip-rule="nonzero"/></clipPath><linearGradient x1="72.140054" gradientTransform="matrix(-0.215204, 0, 0, 0.215204, 250.801348, 58.162749)" y1="193.59" x2="573.570072" gradientUnits="userSpaceOnUse" y2="193.59" id="4d9d86544f"><stop stop-opacity="1" stop-color="rgb(99.998474%, 99.998474%, 99.998474%)" offset="0"/><stop stop-opacity="1" stop-color="rgb(99.82605%, 99.82605%, 99.82605%)" offset="0.015625"/><stop stop-opacity="1" stop-color="rgb(99.482727%, 99.482727%, 99.482727%)" offset="0.03125"/><stop stop-opacity="1" stop-color="rgb(99.139404%, 99.139404%, 99.139404%)" offset="0.046875"/><stop stop-opacity="1" stop-color="rgb(98.794556%, 98.794556%, 98.794556%)" offset="0.0625"/><stop stop-opacity="1" stop-color="rgb(98.451233%, 98.451233%, 98.451233%)" offset="0.078125"/><stop stop-opacity="1" stop-color="rgb(98.106384%, 98.106384%, 98.106384%)" offset="0.09375"/><stop stop-opacity="1" stop-color="rgb(97.763062%, 97.763062%, 97.763062%)" offset="0.109375"/><stop stop-opacity="1" stop-color="rgb(97.418213%, 97.418213%, 97.418213%)" offset="0.125"/><stop stop-opacity="1" stop-color="rgb(97.07489%, 97.07489%, 97.07489%)" offset="0.140625"/><stop stop-opacity="1" stop-color="rgb(96.731567%, 96.731567%, 96.731567%)" offset="0.15625"/><stop stop-opacity="1" stop-color="rgb(96.386719%, 96.386719%, 96.386719%)" offset="0.171875"/><stop stop-opacity="1" stop-color="rgb(96.043396%, 96.043396%, 96.043396%)" offset="0.1875"/><stop stop-opacity="1" stop-color="rgb(95.698547%, 95.698547%, 95.698547%)" offset="0.203125"/><stop stop-opacity="1" stop-color="rgb(95.355225%, 95.355225%, 95.355225%)" offset="0.21875"/><stop stop-opacity="1" stop-color="rgb(95.010376%, 95.010376%, 95.010376%)" offset="0.234375"/><stop stop-opacity="1" stop-color="rgb(94.667053%, 94.667053%, 94.667053%)" offset="0.25"/><stop stop-opacity="1" stop-color="rgb(94.32373%, 94.32373%, 94.32373%)" offset="0.265625"/><stop stop-opacity="1" stop-color="rgb(93.978882%, 93.978882%, 93.978882%)" offset="0.28125"/><stop stop-opacity="1" stop-color="rgb(93.635559%, 93.635559%, 93.635559%)" offset="0.296875"/><stop stop-opacity="1" stop-color="rgb(93.29071%, 93.29071%, 93.29071%)" offset="0.3125"/><stop stop-opacity="1" stop-color="rgb(92.947388%, 92.947388%, 92.947388%)" offset="0.328125"/><stop stop-opacity="1" stop-color="rgb(92.602539%, 92.602539%, 92.602539%)" offset="0.34375"/><stop stop-opacity="1" stop-color="rgb(92.259216%, 92.259216%, 92.259216%)" offset="0.359375"/><stop stop-opacity="1" stop-color="rgb(91.915894%, 91.915894%, 91.915894%)" offset="0.375"/><stop stop-opacity="1" stop-color="rgb(91.571045%, 91.571045%, 91.571045%)" offset="0.390625"/><stop stop-opacity="1" stop-color="rgb(91.227722%, 91.227722%, 91.227722%)" offset="0.40625"/><stop stop-opacity="1" stop-color="rgb(90.882874%, 90.882874%, 90.882874%)" offset="0.421875"/><stop stop-opacity="1" stop-color="rgb(90.539551%, 90.539551%, 90.539551%)" offset="0.4375"/><stop stop-opacity="1" stop-color="rgb(90.194702%, 90.194702%, 90.194702%)" offset="0.453125"/><stop stop-opacity="1" stop-color="rgb(89.851379%, 89.851379%, 89.851379%)" offset="0.46875"/><stop stop-opacity="1" stop-color="rgb(89.508057%, 89.508057%, 89.508057%)" offset="0.484375"/><stop stop-opacity="1" stop-color="rgb(89.163208%, 89.163208%, 89.163208%)" offset="0.5"/><stop stop-opacity="1" stop-color="rgb(88.819885%, 88.819885%, 88.819885%)" offset="0.515625"/><stop stop-opacity="1" stop-color="rgb(88.475037%, 88.475037%, 88.475037%)" offset="0.53125"/><stop stop-opacity="1" stop-color="rgb(88.131714%, 88.131714%, 88.131714%)" offset="0.546875"/><stop stop-opacity="1" stop-color="rgb(87.786865%, 87.786865%, 87.786865%)" offset="0.5625"/><stop stop-opacity="1" stop-color="rgb(87.443542%, 87.443542%, 87.443542%)" offset="0.578125"/><stop stop-opacity="1" stop-color="rgb(87.10022%, 87.10022%, 87.10022%)" offset="0.59375"/><stop stop-opacity="1" stop-color="rgb(86.755371%, 86.755371%, 86.755371%)" offset="0.609375"/><stop stop-opacity="1" stop-color="rgb(86.412048%, 86.412048%, 86.412048%)" offset="0.625"/><stop stop-opacity="1" stop-color="rgb(86.0672%, 86.0672%, 86.0672%)" offset="0.640625"/><stop stop-opacity="1" stop-color="rgb(85.723877%, 85.723877%, 85.723877%)" offset="0.65625"/><stop stop-opacity="1" stop-color="rgb(85.379028%, 85.379028%, 85.379028%)" offset="0.671875"/><stop stop-opacity="1" stop-color="rgb(85.035706%, 85.035706%, 85.035706%)" offset="0.6875"/><stop stop-opacity="1" stop-color="rgb(84.692383%, 84.692383%, 84.692383%)" offset="0.703125"/><stop stop-opacity="1" stop-color="rgb(84.347534%, 84.347534%, 84.347534%)" offset="0.71875"/><stop stop-opacity="1" stop-color="rgb(84.004211%, 84.004211%, 84.004211%)" offset="0.734375"/><stop stop-opacity="1" stop-color="rgb(83.659363%, 83.659363%, 83.659363%)" offset="0.75"/><stop stop-opacity="1" stop-color="rgb(83.31604%, 83.31604%, 83.31604%)" offset="0.765625"/><stop stop-opacity="1" stop-color="rgb(82.971191%, 82.971191%, 82.971191%)" offset="0.78125"/><stop stop-opacity="1" stop-color="rgb(82.627869%, 82.627869%, 82.627869%)" offset="0.796875"/><stop stop-opacity="1" stop-color="rgb(82.284546%, 82.284546%, 82.284546%)" offset="0.8125"/><stop stop-opacity="1" stop-color="rgb(81.939697%, 81.939697%, 81.939697%)" offset="0.828125"/><stop stop-opacity="1" stop-color="rgb(81.596375%, 81.596375%, 81.596375%)" offset="0.84375"/><stop stop-opacity="1" stop-color="rgb(81.251526%, 81.251526%, 81.251526%)" offset="0.859375"/><stop stop-opacity="1" stop-color="rgb(80.908203%, 80.908203%, 80.908203%)" offset="0.875"/><stop stop-opacity="1" stop-color="rgb(80.563354%, 80.563354%, 80.563354%)" offset="0.890625"/><stop stop-opacity="1" stop-color="rgb(80.220032%, 80.220032%, 80.220032%)" offset="0.90625"/><stop stop-opacity="1" stop-color="rgb(80.023193%, 80.023193%, 80.023193%)" offset="0.9375"/><stop stop-opacity="1" stop-color="rgb(79.998779%, 79.998779%, 79.998779%)" offset="1"/></linearGradient><clipPath id="09ceaa80b2"><path d="M 130 74 L 228 74 L 228 156 L 130 156 Z M 130 74 " clip-rule="nonzero"/></clipPath><clipPath id="3a83d51888"><path d="M 134.195312 78.359375 C 139.34375 105.230469 192.5 130.167969 227.769531 144.605469 L 227.78125 144.609375 C 223.433594 148.632812 217.882812 152.292969 211.566406 155.789062 C 140.078125 124.371094 121.136719 101.578125 133.613281 74.972656 C 133.742188 76.125 133.9375 77.253906 134.195312 78.359375 Z M 134.195312 78.359375 " clip-rule="evenodd"/></clipPath><linearGradient x1="106.970088" gradientTransform="matrix(-0.215204, 0, 0, 0.215204, 250.801348, 58.162749)" y1="265.883" x2="602.520083" gradientUnits="userSpaceOnUse" y2="265.883" id="fe3f462338"><stop stop-opacity="1" stop-color="rgb(100%, 100%, 100%)" offset="0"/><stop stop-opacity="1" stop-color="rgb(99.829102%, 99.829102%, 99.829102%)" offset="0.015625"/><stop stop-opacity="1" stop-color="rgb(99.487305%, 99.487305%, 99.487305%)" offset="0.03125"/><stop stop-opacity="1" stop-color="rgb(99.147034%, 99.147034%, 99.147034%)" offset="0.046875"/><stop stop-opacity="1" stop-color="rgb(98.805237%, 98.805237%, 98.805237%)" offset="0.0625"/><stop stop-opacity="1" stop-color="rgb(98.464966%, 98.464966%, 98.464966%)" offset="0.078125"/><stop stop-opacity="1" stop-color="rgb(98.123169%, 98.123169%, 98.123169%)" offset="0.09375"/><stop stop-opacity="1" stop-color="rgb(97.782898%, 97.782898%, 97.782898%)" offset="0.109375"/><stop stop-opacity="1" stop-color="rgb(97.441101%, 97.441101%, 97.441101%)" offset="0.125"/><stop stop-opacity="1" stop-color="rgb(97.10083%, 97.10083%, 97.10083%)" offset="0.140625"/><stop stop-opacity="1" stop-color="rgb(96.759033%, 96.759033%, 96.759033%)" offset="0.15625"/><stop stop-opacity="1" stop-color="rgb(96.418762%, 96.418762%, 96.418762%)" offset="0.171875"/><stop stop-opacity="1" stop-color="rgb(96.078491%, 96.078491%, 96.078491%)" offset="0.1875"/><stop stop-opacity="1" stop-color="rgb(95.736694%, 95.736694%, 95.736694%)" offset="0.203125"/><stop stop-opacity="1" stop-color="rgb(95.396423%, 95.396423%, 95.396423%)" offset="0.21875"/><stop stop-opacity="1" stop-color="rgb(95.054626%, 95.054626%, 95.054626%)" offset="0.234375"/><stop stop-opacity="1" stop-color="rgb(94.714355%, 94.714355%, 94.714355%)" offset="0.25"/><stop stop-opacity="1" stop-color="rgb(94.372559%, 94.372559%, 94.372559%)" offset="0.265625"/><stop stop-opacity="1" stop-color="rgb(94.032288%, 94.032288%, 94.032288%)" offset="0.28125"/><stop stop-opacity="1" stop-color="rgb(93.690491%, 93.690491%, 93.690491%)" offset="0.296875"/><stop stop-opacity="1" stop-color="rgb(93.35022%, 93.35022%, 93.35022%)" offset="0.3125"/><stop stop-opacity="1" stop-color="rgb(93.008423%, 93.008423%, 93.008423%)" offset="0.328125"/><stop stop-opacity="1" stop-color="rgb(92.668152%, 92.668152%, 92.668152%)" offset="0.34375"/><stop stop-opacity="1" stop-color="rgb(92.326355%, 92.326355%, 92.326355%)" offset="0.359375"/><stop stop-opacity="1" stop-color="rgb(91.986084%, 91.986084%, 91.986084%)" offset="0.375"/><stop stop-opacity="1" stop-color="rgb(91.644287%, 91.644287%, 91.644287%)" offset="0.390625"/><stop stop-opacity="1" stop-color="rgb(91.304016%, 91.304016%, 91.304016%)" offset="0.40625"/><stop stop-opacity="1" stop-color="rgb(90.962219%, 90.962219%, 90.962219%)" offset="0.421875"/><stop stop-opacity="1" stop-color="rgb(90.621948%, 90.621948%, 90.621948%)" offset="0.4375"/><stop stop-opacity="1" stop-color="rgb(90.280151%, 90.280151%, 90.280151%)" offset="0.453125"/><stop stop-opacity="1" stop-color="rgb(89.93988%, 89.93988%, 89.93988%)" offset="0.46875"/><stop stop-opacity="1" stop-color="rgb(89.598083%, 89.598083%, 89.598083%)" offset="0.484375"/><stop stop-opacity="1" stop-color="rgb(89.257812%, 89.257812%, 89.257812%)" offset="0.5"/><stop stop-opacity="1" stop-color="rgb(88.916016%, 88.916016%, 88.916016%)" offset="0.515625"/><stop stop-opacity="1" stop-color="rgb(88.575745%, 88.575745%, 88.575745%)" offset="0.53125"/><stop stop-opacity="1" stop-color="rgb(88.235474%, 88.235474%, 88.235474%)" offset="0.546875"/><stop stop-opacity="1" stop-color="rgb(87.893677%, 87.893677%, 87.893677%)" offset="0.5625"/><stop stop-opacity="1" stop-color="rgb(87.553406%, 87.553406%, 87.553406%)" offset="0.578125"/><stop stop-opacity="1" stop-color="rgb(87.211609%, 87.211609%, 87.211609%)" offset="0.59375"/><stop stop-opacity="1" stop-color="rgb(86.871338%, 86.871338%, 86.871338%)" offset="0.609375"/><stop stop-opacity="1" stop-color="rgb(86.529541%, 86.529541%, 86.529541%)" offset="0.625"/><stop stop-opacity="1" stop-color="rgb(86.18927%, 86.18927%, 86.18927%)" offset="0.640625"/><stop stop-opacity="1" stop-color="rgb(85.847473%, 85.847473%, 85.847473%)" offset="0.65625"/><stop stop-opacity="1" stop-color="rgb(85.507202%, 85.507202%, 85.507202%)" offset="0.671875"/><stop stop-opacity="1" stop-color="rgb(85.165405%, 85.165405%, 85.165405%)" offset="0.6875"/><stop stop-opacity="1" stop-color="rgb(84.825134%, 84.825134%, 84.825134%)" offset="0.703125"/><stop stop-opacity="1" stop-color="rgb(84.483337%, 84.483337%, 84.483337%)" offset="0.71875"/><stop stop-opacity="1" stop-color="rgb(84.143066%, 84.143066%, 84.143066%)" offset="0.734375"/><stop stop-opacity="1" stop-color="rgb(83.80127%, 83.80127%, 83.80127%)" offset="0.75"/><stop stop-opacity="1" stop-color="rgb(83.460999%, 83.460999%, 83.460999%)" offset="0.765625"/><stop stop-opacity="1" stop-color="rgb(83.119202%, 83.119202%, 83.119202%)" offset="0.78125"/><stop stop-opacity="1" stop-color="rgb(82.778931%, 82.778931%, 82.778931%)" offset="0.796875"/><stop stop-opacity="1" stop-color="rgb(82.437134%, 82.437134%, 82.437134%)" offset="0.8125"/><stop stop-opacity="1" stop-color="rgb(82.096863%, 82.096863%, 82.096863%)" offset="0.828125"/><stop stop-opacity="1" stop-color="rgb(81.755066%, 81.755066%, 81.755066%)" offset="0.84375"/><stop stop-opacity="1" stop-color="rgb(81.414795%, 81.414795%, 81.414795%)" offset="0.859375"/><stop stop-opacity="1" stop-color="rgb(81.072998%, 81.072998%, 81.072998%)" offset="0.875"/><stop stop-opacity="1" stop-color="rgb(80.732727%, 80.732727%, 80.732727%)" offset="0.890625"/><stop stop-opacity="1" stop-color="rgb(80.392456%, 80.392456%, 80.392456%)" offset="0.90625"/><stop stop-opacity="1" stop-color="rgb(80.110168%, 80.110168%, 80.110168%)" offset="0.9375"/><stop stop-opacity="1" stop-color="rgb(79.998779%, 79.998779%, 79.998779%)" offset="1"/></linearGradient><clipPath id="7a9ff0108e"><path d="M 112 128 L 243 128 L 243 268 L 112 268 Z M 112 128 " clip-rule="nonzero"/></clipPath><clipPath id="bcc23e4e78"><path d="M 182.851562 195.960938 C 228.203125 176.933594 253.066406 155.226562 238.925781 128.417969 C 236.074219 181.148438 88.292969 174.480469 116.457031 267.046875 C 120.523438 225.949219 153.089844 211.363281 182.851562 195.960938 Z M 182.851562 195.960938 " clip-rule="evenodd"/></clipPath><linearGradient x1="-10.519947" gradientTransform="matrix(-0.215204, 0, 0, 0.215204, 250.801348, 58.162749)" y1="648.547" x2="753.520962" gradientUnits="userSpaceOnUse" y2="648.547" id="3dbef1bc0f"><stop stop-opacity="1" stop-color="rgb(3.898621%, 45.098877%, 68.998718%)" offset="0"/><stop stop-opacity="1" stop-color="rgb(3.897095%, 45.109558%, 68.986511%)" offset="0.0625"/><stop stop-opacity="1" stop-color="rgb(3.875732%, 45.26825%, 68.826294%)" offset="0.0703125"/><stop stop-opacity="1" stop-color="rgb(3.837585%, 45.562744%, 68.527222%)" offset="0.078125"/><stop stop-opacity="1" stop-color="rgb(3.799438%, 45.857239%, 68.229675%)" offset="0.0859375"/><stop stop-opacity="1" stop-color="rgb(3.761292%, 46.151733%, 67.930603%)" offset="0.09375"/><stop stop-opacity="1" stop-color="rgb(3.721619%, 46.446228%, 67.633057%)" offset="0.101563"/><stop stop-opacity="1" stop-color="rgb(3.683472%, 46.740723%, 67.333984%)" offset="0.109375"/><stop stop-opacity="1" stop-color="rgb(3.645325%, 47.035217%, 67.036438%)" offset="0.117188"/><stop stop-opacity="1" stop-color="rgb(3.607178%, 47.329712%, 66.737366%)" offset="0.125"/><stop stop-opacity="1" stop-color="rgb(3.567505%, 47.624207%, 66.438293%)" offset="0.132812"/><stop stop-opacity="1" stop-color="rgb(3.529358%, 47.918701%, 66.140747%)" offset="0.140625"/><stop stop-opacity="1" stop-color="rgb(3.491211%, 48.213196%, 65.841675%)" offset="0.148438"/><stop stop-opacity="1" stop-color="rgb(3.453064%, 48.50769%, 65.544128%)" offset="0.15625"/><stop stop-opacity="1" stop-color="rgb(3.413391%, 48.802185%, 65.245056%)" offset="0.164062"/><stop stop-opacity="1" stop-color="rgb(3.375244%, 49.09668%, 64.94751%)" offset="0.171875"/><stop stop-opacity="1" stop-color="rgb(3.337097%, 49.391174%, 64.648438%)" offset="0.179688"/><stop stop-opacity="1" stop-color="rgb(3.29895%, 49.685669%, 64.350891%)" offset="0.1875"/><stop stop-opacity="1" stop-color="rgb(3.259277%, 49.980164%, 64.051819%)" offset="0.195312"/><stop stop-opacity="1" stop-color="rgb(3.22113%, 50.274658%, 63.752747%)" offset="0.203125"/><stop stop-opacity="1" stop-color="rgb(3.182983%, 50.569153%, 63.4552%)" offset="0.210938"/><stop stop-opacity="1" stop-color="rgb(3.144836%, 50.863647%, 63.156128%)" offset="0.21875"/><stop stop-opacity="1" stop-color="rgb(3.105164%, 51.158142%, 62.858582%)" offset="0.226562"/><stop stop-opacity="1" stop-color="rgb(3.067017%, 51.452637%, 62.559509%)" offset="0.234375"/><stop stop-opacity="1" stop-color="rgb(3.02887%, 51.747131%, 62.261963%)" offset="0.242188"/><stop stop-opacity="1" stop-color="rgb(2.990723%, 52.041626%, 61.962891%)" offset="0.25"/><stop stop-opacity="1" stop-color="rgb(2.95105%, 52.336121%, 61.663818%)" offset="0.257812"/><stop stop-opacity="1" stop-color="rgb(2.912903%, 52.630615%, 61.366272%)" offset="0.265625"/><stop stop-opacity="1" stop-color="rgb(2.874756%, 52.92511%, 61.0672%)" offset="0.273437"/><stop stop-opacity="1" stop-color="rgb(2.836609%, 53.219604%, 60.769653%)" offset="0.28125"/><stop stop-opacity="1" stop-color="rgb(2.796936%, 53.514099%, 60.470581%)" offset="0.289063"/><stop stop-opacity="1" stop-color="rgb(2.758789%, 53.808594%, 60.173035%)" offset="0.296875"/><stop stop-opacity="1" stop-color="rgb(2.720642%, 54.103088%, 59.873962%)" offset="0.304688"/><stop stop-opacity="1" stop-color="rgb(2.682495%, 54.397583%, 59.57489%)" offset="0.3125"/><stop stop-opacity="1" stop-color="rgb(2.642822%, 54.692078%, 59.277344%)" offset="0.320312"/><stop stop-opacity="1" stop-color="rgb(2.604675%, 54.986572%, 58.978271%)" offset="0.328125"/><stop stop-opacity="1" stop-color="rgb(2.566528%, 55.281067%, 58.680725%)" offset="0.335937"/><stop stop-opacity="1" stop-color="rgb(2.526855%, 55.575562%, 58.381653%)" offset="0.34375"/><stop stop-opacity="1" stop-color="rgb(2.488708%, 55.870056%, 58.084106%)" offset="0.351563"/><stop stop-opacity="1" stop-color="rgb(2.450562%, 56.164551%, 57.785034%)" offset="0.359375"/><stop stop-opacity="1" stop-color="rgb(2.412415%, 56.459045%, 57.485962%)" offset="0.367188"/><stop stop-opacity="1" stop-color="rgb(2.372742%, 56.75354%, 57.188416%)" offset="0.375"/><stop stop-opacity="1" stop-color="rgb(2.334595%, 57.048035%, 56.889343%)" offset="0.382812"/><stop stop-opacity="1" stop-color="rgb(2.296448%, 57.341003%, 56.591797%)" offset="0.390625"/><stop stop-opacity="1" stop-color="rgb(2.258301%, 57.635498%, 56.292725%)" offset="0.398437"/><stop stop-opacity="1" stop-color="rgb(2.218628%, 57.929993%, 55.995178%)" offset="0.40625"/><stop stop-opacity="1" stop-color="rgb(2.180481%, 58.224487%, 55.696106%)" offset="0.414063"/><stop stop-opacity="1" stop-color="rgb(2.142334%, 58.518982%, 55.397034%)" offset="0.421875"/><stop stop-opacity="1" stop-color="rgb(2.104187%, 58.813477%, 55.099487%)" offset="0.429688"/><stop stop-opacity="1" stop-color="rgb(2.064514%, 59.107971%, 54.800415%)" offset="0.4375"/><stop stop-opacity="1" stop-color="rgb(2.026367%, 59.402466%, 54.502869%)" offset="0.445312"/><stop stop-opacity="1" stop-color="rgb(1.98822%, 59.69696%, 54.203796%)" offset="0.453125"/><stop stop-opacity="1" stop-color="rgb(1.950073%, 59.991455%, 53.90625%)" offset="0.460938"/><stop stop-opacity="1" stop-color="rgb(1.9104%, 60.28595%, 53.607178%)" offset="0.46875"/><stop stop-opacity="1" stop-color="rgb(1.872253%, 60.580444%, 53.308105%)" offset="0.476563"/><stop stop-opacity="1" stop-color="rgb(1.834106%, 60.874939%, 53.010559%)" offset="0.484375"/><stop stop-opacity="1" stop-color="rgb(1.795959%, 61.169434%, 52.711487%)" offset="0.492188"/><stop stop-opacity="1" stop-color="rgb(1.756287%, 61.463928%, 52.41394%)" offset="0.5"/><stop stop-opacity="1" stop-color="rgb(1.71814%, 61.758423%, 52.114868%)" offset="0.507812"/><stop stop-opacity="1" stop-color="rgb(1.679993%, 62.052917%, 51.817322%)" offset="0.515625"/><stop stop-opacity="1" stop-color="rgb(1.641846%, 62.347412%, 51.51825%)" offset="0.523438"/><stop stop-opacity="1" stop-color="rgb(1.602173%, 62.641907%, 51.219177%)" offset="0.53125"/><stop stop-opacity="1" stop-color="rgb(1.564026%, 62.936401%, 50.921631%)" offset="0.539062"/><stop stop-opacity="1" stop-color="rgb(1.525879%, 63.230896%, 50.622559%)" offset="0.546875"/><stop stop-opacity="1" stop-color="rgb(1.487732%, 63.525391%, 50.325012%)" offset="0.554688"/><stop stop-opacity="1" stop-color="rgb(1.448059%, 63.819885%, 50.02594%)" offset="0.5625"/><stop stop-opacity="1" stop-color="rgb(1.409912%, 64.11438%, 49.728394%)" offset="0.570312"/><stop stop-opacity="1" stop-color="rgb(1.371765%, 64.408875%, 49.429321%)" offset="0.578125"/><stop stop-opacity="1" stop-color="rgb(1.333618%, 64.703369%, 49.130249%)" offset="0.585938"/><stop stop-opacity="1" stop-color="rgb(1.293945%, 64.997864%, 48.832703%)" offset="0.59375"/><stop stop-opacity="1" stop-color="rgb(1.255798%, 65.292358%, 48.53363%)" offset="0.601562"/><stop stop-opacity="1" stop-color="rgb(1.217651%, 65.586853%, 48.236084%)" offset="0.609375"/><stop stop-opacity="1" stop-color="rgb(1.179504%, 65.881348%, 47.937012%)" offset="0.617188"/><stop stop-opacity="1" stop-color="rgb(1.139832%, 66.175842%, 47.639465%)" offset="0.625"/><stop stop-opacity="1" stop-color="rgb(1.101685%, 66.470337%, 47.340393%)" offset="0.632812"/><stop stop-opacity="1" stop-color="rgb(1.063538%, 66.764832%, 47.041321%)" offset="0.640625"/><stop stop-opacity="1" stop-color="rgb(1.025391%, 67.059326%, 46.743774%)" offset="0.648438"/><stop stop-opacity="1" stop-color="rgb(0.985718%, 67.353821%, 46.444702%)" offset="0.65625"/><stop stop-opacity="1" stop-color="rgb(0.947571%, 67.648315%, 46.147156%)" offset="0.664062"/><stop stop-opacity="1" stop-color="rgb(0.909424%, 67.94281%, 45.848083%)" offset="0.671875"/><stop stop-opacity="1" stop-color="rgb(0.869751%, 68.237305%, 45.550537%)" offset="0.679688"/><stop stop-opacity="1" stop-color="rgb(0.831604%, 68.531799%, 45.251465%)" offset="0.6875"/><stop stop-opacity="1" stop-color="rgb(0.793457%, 68.826294%, 44.952393%)" offset="0.695312"/><stop stop-opacity="1" stop-color="rgb(0.75531%, 69.120789%, 44.654846%)" offset="0.703125"/><stop stop-opacity="1" stop-color="rgb(0.715637%, 69.415283%, 44.355774%)" offset="0.710938"/><stop stop-opacity="1" stop-color="rgb(0.67749%, 69.709778%, 44.058228%)" offset="0.71875"/><stop stop-opacity="1" stop-color="rgb(0.639343%, 70.004272%, 43.759155%)" offset="0.726562"/><stop stop-opacity="1" stop-color="rgb(0.601196%, 70.298767%, 43.461609%)" offset="0.734375"/><stop stop-opacity="1" stop-color="rgb(0.561523%, 70.593262%, 43.162537%)" offset="0.742188"/><stop stop-opacity="1" stop-color="rgb(0.523376%, 70.887756%, 42.863464%)" offset="0.75"/><stop stop-opacity="1" stop-color="rgb(0.485229%, 71.182251%, 42.565918%)" offset="0.757812"/><stop stop-opacity="1" stop-color="rgb(0.447083%, 71.476746%, 42.266846%)" offset="0.765625"/><stop stop-opacity="1" stop-color="rgb(0.40741%, 71.769714%, 41.969299%)" offset="0.773438"/><stop stop-opacity="1" stop-color="rgb(0.369263%, 72.064209%, 41.670227%)" offset="0.78125"/><stop stop-opacity="1" stop-color="rgb(0.331116%, 72.358704%, 41.372681%)" offset="0.789062"/><stop stop-opacity="1" stop-color="rgb(0.292969%, 72.653198%, 41.073608%)" offset="0.796875"/><stop stop-opacity="1" stop-color="rgb(0.253296%, 72.947693%, 40.774536%)" offset="0.804688"/><stop stop-opacity="1" stop-color="rgb(0.215149%, 73.242188%, 40.47699%)" offset="0.8125"/><stop stop-opacity="1" stop-color="rgb(0.177002%, 73.536682%, 40.177917%)" offset="0.820312"/><stop stop-opacity="1" stop-color="rgb(0.138855%, 73.831177%, 39.880371%)" offset="0.828125"/><stop stop-opacity="1" stop-color="rgb(0.0991821%, 74.125671%, 39.581299%)" offset="0.835938"/><stop stop-opacity="1" stop-color="rgb(0.0610352%, 74.420166%, 39.283752%)" offset="0.84375"/><stop stop-opacity="1" stop-color="rgb(0.0213623%, 74.732971%, 38.96637%)" offset="0.875"/><stop stop-opacity="1" stop-color="rgb(0%, 74.899292%, 38.798523%)" offset="1"/></linearGradient><clipPath id="2ea1c07583"><path d="M 121 146 L 251 146 L 251 289.832031 L 121 289.832031 Z M 121 146 " clip-rule="nonzero"/></clipPath><clipPath id="91676f1953"><path d="M 246.089844 146.644531 C 239.542969 204.75 93.359375 200.363281 126.386719 290.074219 C 134.367188 209.511719 278.386719 207.902344 246.089844 146.644531 Z M 246.089844 146.644531 " clip-rule="evenodd"/></clipPath><linearGradient x1="-126.620701" gradientTransform="matrix(-0.215204, 0, 0, 0.215204, 250.801348, 58.162749)" y1="744.40198" x2="731.600104" gradientUnits="userSpaceOnUse" y2="744.40198" id="d9f2435d46"><stop stop-opacity="1" stop-color="rgb(3.898621%, 45.098877%, 68.998718%)" offset="0"/><stop stop-opacity="1" stop-color="rgb(3.898621%, 45.098877%, 68.998718%)" offset="0.125"/><stop stop-opacity="1" stop-color="rgb(3.874207%, 45.283508%, 68.811035%)" offset="0.15625"/><stop stop-opacity="1" stop-color="rgb(3.82843%, 45.635986%, 68.453979%)" offset="0.164062"/><stop stop-opacity="1" stop-color="rgb(3.785706%, 45.968628%, 68.11676%)" offset="0.171875"/><stop stop-opacity="1" stop-color="rgb(3.741455%, 46.30127%, 67.779541%)" offset="0.179688"/><stop stop-opacity="1" stop-color="rgb(3.697205%, 46.633911%, 67.442322%)" offset="0.1875"/><stop stop-opacity="1" stop-color="rgb(3.65448%, 46.966553%, 67.105103%)" offset="0.195313"/><stop stop-opacity="1" stop-color="rgb(3.610229%, 47.299194%, 66.767883%)" offset="0.203125"/><stop stop-opacity="1" stop-color="rgb(3.567505%, 47.631836%, 66.43219%)" offset="0.210938"/><stop stop-opacity="1" stop-color="rgb(3.523254%, 47.964478%, 66.094971%)" offset="0.21875"/><stop stop-opacity="1" stop-color="rgb(3.48053%, 48.297119%, 65.757751%)" offset="0.226562"/><stop stop-opacity="1" stop-color="rgb(3.436279%, 48.629761%, 65.420532%)" offset="0.234375"/><stop stop-opacity="1" stop-color="rgb(3.393555%, 48.962402%, 65.083313%)" offset="0.242188"/><stop stop-opacity="1" stop-color="rgb(3.349304%, 49.295044%, 64.746094%)" offset="0.25"/><stop stop-opacity="1" stop-color="rgb(3.30658%, 49.627686%, 64.408875%)" offset="0.257813"/><stop stop-opacity="1" stop-color="rgb(3.262329%, 49.960327%, 64.071655%)" offset="0.265625"/><stop stop-opacity="1" stop-color="rgb(3.219604%, 50.292969%, 63.734436%)" offset="0.273438"/><stop stop-opacity="1" stop-color="rgb(3.175354%, 50.62561%, 63.397217%)" offset="0.28125"/><stop stop-opacity="1" stop-color="rgb(3.132629%, 50.958252%, 63.059998%)" offset="0.289062"/><stop stop-opacity="1" stop-color="rgb(3.088379%, 51.290894%, 62.722778%)" offset="0.296875"/><stop stop-opacity="1" stop-color="rgb(3.045654%, 51.623535%, 62.385559%)" offset="0.304688"/><stop stop-opacity="1" stop-color="rgb(3.001404%, 51.956177%, 62.049866%)" offset="0.3125"/><stop stop-opacity="1" stop-color="rgb(2.957153%, 52.288818%, 61.712646%)" offset="0.320312"/><stop stop-opacity="1" stop-color="rgb(2.914429%, 52.62146%, 61.375427%)" offset="0.328125"/><stop stop-opacity="1" stop-color="rgb(2.870178%, 52.954102%, 61.038208%)" offset="0.335938"/><stop stop-opacity="1" stop-color="rgb(2.827454%, 53.286743%, 60.700989%)" offset="0.34375"/><stop stop-opacity="1" stop-color="rgb(2.783203%, 53.619385%, 60.36377%)" offset="0.351562"/><stop stop-opacity="1" stop-color="rgb(2.740479%, 53.952026%, 60.02655%)" offset="0.359375"/><stop stop-opacity="1" stop-color="rgb(2.696228%, 54.284668%, 59.689331%)" offset="0.367188"/><stop stop-opacity="1" stop-color="rgb(2.653503%, 54.61731%, 59.352112%)" offset="0.375"/><stop stop-opacity="1" stop-color="rgb(2.609253%, 54.949951%, 59.014893%)" offset="0.382812"/><stop stop-opacity="1" stop-color="rgb(2.566528%, 55.282593%, 58.677673%)" offset="0.390625"/><stop stop-opacity="1" stop-color="rgb(2.522278%, 55.615234%, 58.340454%)" offset="0.398437"/><stop stop-opacity="1" stop-color="rgb(2.479553%, 55.947876%, 58.003235%)" offset="0.40625"/><stop stop-opacity="1" stop-color="rgb(2.435303%, 56.280518%, 57.666016%)" offset="0.414062"/><stop stop-opacity="1" stop-color="rgb(2.392578%, 56.613159%, 57.330322%)" offset="0.421875"/><stop stop-opacity="1" stop-color="rgb(2.348328%, 56.945801%, 56.993103%)" offset="0.429687"/><stop stop-opacity="1" stop-color="rgb(2.305603%, 57.278442%, 56.655884%)" offset="0.4375"/><stop stop-opacity="1" stop-color="rgb(2.261353%, 57.611084%, 56.318665%)" offset="0.445312"/><stop stop-opacity="1" stop-color="rgb(2.217102%, 57.943726%, 55.981445%)" offset="0.453125"/><stop stop-opacity="1" stop-color="rgb(2.174377%, 58.276367%, 55.644226%)" offset="0.460938"/><stop stop-opacity="1" stop-color="rgb(2.130127%, 58.609009%, 55.307007%)" offset="0.46875"/><stop stop-opacity="1" stop-color="rgb(2.087402%, 58.94165%, 54.969788%)" offset="0.476562"/><stop stop-opacity="1" stop-color="rgb(2.043152%, 59.274292%, 54.632568%)" offset="0.484375"/><stop stop-opacity="1" stop-color="rgb(2.000427%, 59.606934%, 54.295349%)" offset="0.492188"/><stop stop-opacity="1" stop-color="rgb(1.956177%, 59.939575%, 53.95813%)" offset="0.5"/><stop stop-opacity="1" stop-color="rgb(1.913452%, 60.272217%, 53.620911%)" offset="0.507813"/><stop stop-opacity="1" stop-color="rgb(1.869202%, 60.604858%, 53.283691%)" offset="0.515625"/><stop stop-opacity="1" stop-color="rgb(1.826477%, 60.9375%, 52.947998%)" offset="0.523438"/><stop stop-opacity="1" stop-color="rgb(1.782227%, 61.270142%, 52.610779%)" offset="0.53125"/><stop stop-opacity="1" stop-color="rgb(1.739502%, 61.602783%, 52.27356%)" offset="0.539063"/><stop stop-opacity="1" stop-color="rgb(1.695251%, 61.935425%, 51.93634%)" offset="0.546875"/><stop stop-opacity="1" stop-color="rgb(1.652527%, 62.268066%, 51.599121%)" offset="0.554688"/><stop stop-opacity="1" stop-color="rgb(1.608276%, 62.600708%, 51.261902%)" offset="0.5625"/><stop stop-opacity="1" stop-color="rgb(1.565552%, 62.93335%, 50.924683%)" offset="0.570312"/><stop stop-opacity="1" stop-color="rgb(1.521301%, 63.265991%, 50.587463%)" offset="0.578125"/><stop stop-opacity="1" stop-color="rgb(1.477051%, 63.598633%, 50.250244%)" offset="0.585938"/><stop stop-opacity="1" stop-color="rgb(1.434326%, 63.931274%, 49.913025%)" offset="0.59375"/><stop stop-opacity="1" stop-color="rgb(1.390076%, 64.263916%, 49.575806%)" offset="0.601562"/><stop stop-opacity="1" stop-color="rgb(1.347351%, 64.596558%, 49.238586%)" offset="0.609375"/><stop stop-opacity="1" stop-color="rgb(1.303101%, 64.929199%, 48.901367%)" offset="0.617188"/><stop stop-opacity="1" stop-color="rgb(1.260376%, 65.261841%, 48.565674%)" offset="0.625"/><stop stop-opacity="1" stop-color="rgb(1.216125%, 65.594482%, 48.228455%)" offset="0.632812"/><stop stop-opacity="1" stop-color="rgb(1.173401%, 65.927124%, 47.891235%)" offset="0.640625"/><stop stop-opacity="1" stop-color="rgb(1.12915%, 66.259766%, 47.554016%)" offset="0.648438"/><stop stop-opacity="1" stop-color="rgb(1.086426%, 66.592407%, 47.216797%)" offset="0.65625"/><stop stop-opacity="1" stop-color="rgb(1.042175%, 66.925049%, 46.879578%)" offset="0.664062"/><stop stop-opacity="1" stop-color="rgb(0.999451%, 67.25769%, 46.542358%)" offset="0.671875"/><stop stop-opacity="1" stop-color="rgb(0.9552%, 67.590332%, 46.205139%)" offset="0.679688"/><stop stop-opacity="1" stop-color="rgb(0.912476%, 67.922974%, 45.86792%)" offset="0.6875"/><stop stop-opacity="1" stop-color="rgb(0.868225%, 68.255615%, 45.530701%)" offset="0.695312"/><stop stop-opacity="1" stop-color="rgb(0.823975%, 68.588257%, 45.193481%)" offset="0.703125"/><stop stop-opacity="1" stop-color="rgb(0.78125%, 68.920898%, 44.856262%)" offset="0.710938"/><stop stop-opacity="1" stop-color="rgb(0.737%, 69.25354%, 44.519043%)" offset="0.71875"/><stop stop-opacity="1" stop-color="rgb(0.694275%, 69.586182%, 44.181824%)" offset="0.726562"/><stop stop-opacity="1" stop-color="rgb(0.650024%, 69.918823%, 43.84613%)" offset="0.734375"/><stop stop-opacity="1" stop-color="rgb(0.6073%, 70.251465%, 43.508911%)" offset="0.742188"/><stop stop-opacity="1" stop-color="rgb(0.563049%, 70.584106%, 43.171692%)" offset="0.75"/><stop stop-opacity="1" stop-color="rgb(0.520325%, 70.916748%, 42.834473%)" offset="0.757812"/><stop stop-opacity="1" stop-color="rgb(0.476074%, 71.24939%, 42.497253%)" offset="0.765625"/><stop stop-opacity="1" stop-color="rgb(0.43335%, 71.582031%, 42.160034%)" offset="0.773438"/><stop stop-opacity="1" stop-color="rgb(0.389099%, 71.914673%, 41.822815%)" offset="0.78125"/><stop stop-opacity="1" stop-color="rgb(0.346375%, 72.247314%, 41.485596%)" offset="0.789062"/><stop stop-opacity="1" stop-color="rgb(0.302124%, 72.579956%, 41.148376%)" offset="0.796875"/><stop stop-opacity="1" stop-color="rgb(0.259399%, 72.912598%, 40.811157%)" offset="0.804687"/><stop stop-opacity="1" stop-color="rgb(0.215149%, 73.245239%, 40.473938%)" offset="0.8125"/><stop stop-opacity="1" stop-color="rgb(0.172424%, 73.577881%, 40.136719%)" offset="0.820312"/><stop stop-opacity="1" stop-color="rgb(0.128174%, 73.910522%, 39.7995%)" offset="0.828125"/><stop stop-opacity="1" stop-color="rgb(0.0839233%, 74.243164%, 39.463806%)" offset="0.835937"/><stop stop-opacity="1" stop-color="rgb(0.0411987%, 74.575806%, 39.126587%)" offset="0.84375"/><stop stop-opacity="1" stop-color="rgb(0.00915527%, 74.819946%, 38.877869%)" offset="0.875"/><stop stop-opacity="1" stop-color="rgb(0%, 74.899292%, 38.798523%)" offset="1"/></linearGradient></defs><g clip-path="url(#34dd418bf6)"><g clip-path="url(#4aae74cba9)"><path fill="url(#4d9d86544f)" d="M 235.277344 58.164062 L 235.277344 141.484375 L 127.367188 141.484375 L 127.367188 58.164062 Z M 235.277344 58.164062 " fill-rule="nonzero"/></g></g><g clip-path="url(#09ceaa80b2)"><g clip-path="url(#3a83d51888)"><path fill="url(#fe3f462338)" d="M 227.78125 74.972656 L 227.78125 155.789062 L 121.136719 155.789062 L 121.136719 74.972656 Z M 227.78125 74.972656 " fill-rule="nonzero"/></g></g><g clip-path="url(#7a9ff0108e)"><g clip-path="url(#bcc23e4e78)"><path fill="url(#3dbef1bc0f)" d="M 253.066406 128.417969 L 253.066406 267.046875 L 88.640625 267.046875 L 88.640625 128.417969 Z M 253.066406 128.417969 " fill-rule="nonzero"/></g></g><g clip-path="url(#2ea1c07583)"><g clip-path="url(#91676f1953)"><path fill="url(#d9f2435d46)" d="M 278.050781 146.644531 L 278.050781 289.832031 L 93.359375 289.832031 L 93.359375 146.644531 Z M 278.050781 146.644531 " fill-rule="nonzero"/></g></g><g fill="#000000" fill-opacity="0.5098"><g transform="translate(114.429676, 228.143082)"><g><path d="M 83.511719 -31.140625 C 83.511719 -33.183594 82.570312 -40.261719 78.164062 -45.925781 C 77.0625 -47.496094 75.335938 -48.753906 73.445312 -49.855469 C 70.929688 -51.269531 67.785156 -52.53125 64.011719 -54.101562 C 67.3125 -54.886719 73.132812 -59.292969 75.335938 -64.324219 C 76.121094 -66.054688 76.90625 -69.042969 77.222656 -71.085938 C 77.535156 -72.816406 77.851562 -74.707031 77.851562 -76.59375 C 77.851562 -77.691406 77.535156 -79.738281 77.378906 -80.679688 C 76.90625 -82.882812 76.121094 -84.929688 74.863281 -86.816406 C 74.074219 -87.917969 73.289062 -89.015625 72.1875 -89.960938 C 71.246094 -90.90625 70.144531 -92.003906 69.042969 -92.792969 C 67.941406 -93.578125 66.839844 -94.050781 65.742188 -94.679688 C 63.539062 -95.9375 61.179688 -97.195312 58.664062 -98.140625 C 56.304688 -98.769531 53.945312 -98.925781 51.902344 -99.398438 C 47.652344 -100.027344 43.722656 -100.5 39.476562 -100.65625 L 37.117188 -100.65625 C 35.230469 -100.65625 33.5 -100.65625 31.769531 -100.5 L 24.378906 -100.027344 C 27.050781 -98.769531 31.925781 -99.554688 35.703125 -99.398438 C 34.601562 -98.769531 34.601562 -97.980469 32.554688 -97.511719 L 29.882812 -97.511719 C 29.882812 -97.824219 29.726562 -97.980469 29.410156 -97.980469 C 29.09375 -97.980469 28.9375 -97.824219 28.78125 -97.511719 C 27.679688 -97.511719 26.578125 -97.351562 25.476562 -97.195312 C 24.691406 -96.878906 24.378906 -96.722656 24.378906 -96.566406 C 24.378906 -96.09375 25.949219 -95.9375 26.578125 -95.464844 L 26.738281 -95.464844 C 26.894531 -95.308594 26.894531 -95.308594 26.894531 -95.152344 L 24.0625 -95.78125 C 22.648438 -95.9375 21.074219 -96.410156 19.660156 -96.878906 C 18.558594 -97.195312 17.457031 -97.351562 16.515625 -97.351562 C 15.726562 -97.351562 15.253906 -97.351562 14.941406 -97.195312 C 12.894531 -83.199219 11.636719 -69.515625 11.167969 -56.148438 C 11.007812 -50.328125 11.007812 -44.195312 11.007812 -38.375 L 11.007812 -31.140625 C 11.007812 -21.074219 11.007812 -11.796875 11.167969 -2.359375 C 11.324219 -2.515625 11.636719 -2.515625 11.796875 -2.515625 C 12.425781 -2.515625 12.894531 -2.203125 13.367188 -2.203125 C 13.839844 -2.203125 14.15625 -2.359375 14.46875 -2.671875 C 15.253906 -2.988281 15.253906 -3.144531 15.882812 -3.617188 L 16.355469 -3.460938 C 16.355469 -2.988281 16.671875 -2.515625 16.828125 -2.042969 C 16.828125 -1.574219 18.402344 -0.316406 18.871094 0.945312 C 19.03125 1.414062 19.1875 1.730469 19.1875 2.042969 C 19.1875 2.203125 19.03125 2.359375 18.871094 2.832031 C 18.402344 3.304688 17.613281 3.460938 16.515625 3.460938 L 47.652344 3.460938 C 55.675781 2.988281 62.753906 0.472656 68.570312 -3.304688 C 70.300781 -4.402344 71.71875 -6.132812 73.132812 -7.390625 C 74.863281 -8.964844 76.433594 -10.222656 77.691406 -11.953125 C 78.953125 -13.683594 79.582031 -15.414062 80.523438 -17.300781 C 82.570312 -21.546875 83.511719 -26.265625 83.511719 -31.140625 Z M 32.554688 -84.613281 L 36.800781 -84.613281 C 44.195312 -84.457031 49.542969 -83.199219 53 -80.679688 C 54.730469 -79.582031 57.089844 -78.164062 57.089844 -76.277344 C 57.089844 -74.546875 58.976562 -71.246094 56.304688 -66.371094 C 55.675781 -64.953125 54.574219 -63.851562 53.316406 -62.910156 C 49.226562 -60.078125 42.148438 -59.136719 31.613281 -59.921875 C 31.769531 -65.742188 31.925781 -78.007812 32.398438 -83.511719 C 32.554688 -83.667969 32.554688 -84.140625 32.554688 -84.613281 Z M 63.695312 -30.824219 C 63.695312 -28.152344 62.910156 -25.636719 61.179688 -23.121094 C 60.707031 -22.332031 58.507812 -20.132812 57.875 -19.34375 C 53.472656 -14.46875 47.8125 -12.582031 38.058594 -12.582031 L 30.511719 -12.582031 L 30.355469 -21.074219 L 30.355469 -22.804688 C 30.195312 -24.21875 30.039062 -25.636719 30.039062 -27.050781 C 30.039062 -30.984375 30.511719 -35.070312 30.355469 -39.003906 C 30.195312 -45.136719 30.824219 -47.8125 31.453125 -55.359375 C 32.082031 -54.730469 32.398438 -54.101562 32.554688 -53.628906 C 32.554688 -52.84375 31.613281 -52.058594 31.453125 -51.269531 C 31.453125 -50.484375 31.769531 -49.699219 32.398438 -49.070312 C 32.398438 -48.914062 33.8125 -47.8125 34.914062 -46.394531 C 36.171875 -45.136719 34.128906 -45.453125 34.128906 -43.566406 C 36.644531 -44.351562 39.476562 -44.980469 41.992188 -46.082031 C 41.992188 -45.609375 42.308594 -45.136719 42.464844 -44.664062 C 47.023438 -44.664062 50.171875 -43.878906 53.472656 -43.25 C 56.148438 -42.777344 58.820312 -40.578125 60.394531 -39.476562 C 63.222656 -37.117188 63.695312 -34.757812 63.695312 -30.824219 Z M 63.695312 -30.824219 "/></g></g></g><g fill="#00bf63" fill-opacity="1"><g transform="translate(107.898187, 218.085477)"><g><path d="M 83.511719 -31.140625 C 83.511719 -33.183594 82.570312 -40.261719 78.164062 -45.925781 C 77.0625 -47.496094 75.335938 -48.753906 73.445312 -49.855469 C 70.929688 -51.269531 67.785156 -52.53125 64.011719 -54.101562 C 67.3125 -54.886719 73.132812 -59.292969 75.335938 -64.324219 C 76.121094 -66.054688 76.90625 -69.042969 77.222656 -71.085938 C 77.535156 -72.816406 77.851562 -74.707031 77.851562 -76.59375 C 77.851562 -77.691406 77.535156 -79.738281 77.378906 -80.679688 C 76.90625 -82.882812 76.121094 -84.929688 74.863281 -86.816406 C 74.074219 -87.917969 73.289062 -89.015625 72.1875 -89.960938 C 71.246094 -90.90625 70.144531 -92.003906 69.042969 -92.792969 C 67.941406 -93.578125 66.839844 -94.050781 65.742188 -94.679688 C 63.539062 -95.9375 61.179688 -97.195312 58.664062 -98.140625 C 56.304688 -98.769531 53.945312 -98.925781 51.902344 -99.398438 C 47.652344 -100.027344 43.722656 -100.5 39.476562 -100.65625 L 37.117188 -100.65625 C 35.230469 -100.65625 33.5 -100.65625 31.769531 -100.5 L 24.378906 -100.027344 C 27.050781 -98.769531 31.925781 -99.554688 35.703125 -99.398438 C 34.601562 -98.769531 34.601562 -97.980469 32.554688 -97.511719 L 29.882812 -97.511719 C 29.882812 -97.824219 29.726562 -97.980469 29.410156 -97.980469 C 29.09375 -97.980469 28.9375 -97.824219 28.78125 -97.511719 C 27.679688 -97.511719 26.578125 -97.351562 25.476562 -97.195312 C 24.691406 -96.878906 24.378906 -96.722656 24.378906 -96.566406 C 24.378906 -96.09375 25.949219 -95.9375 26.578125 -95.464844 L 26.738281 -95.464844 C 26.894531 -95.308594 26.894531 -95.308594 26.894531 -95.152344 L 24.0625 -95.78125 C 22.648438 -95.9375 21.074219 -96.410156 19.660156 -96.878906 C 18.558594 -97.195312 17.457031 -97.351562 16.515625 -97.351562 C 15.726562 -97.351562 15.253906 -97.351562 14.941406 -97.195312 C 12.894531 -83.199219 11.636719 -69.515625 11.167969 -56.148438 C 11.007812 -50.328125 11.007812 -44.195312 11.007812 -38.375 L 11.007812 -31.140625 C 11.007812 -21.074219 11.007812 -11.796875 11.167969 -2.359375 C 11.324219 -2.515625 11.636719 -2.515625 11.796875 -2.515625 C 12.425781 -2.515625 12.894531 -2.203125 13.367188 -2.203125 C 13.839844 -2.203125 14.15625 -2.359375 14.46875 -2.671875 C 15.253906 -2.988281 15.253906 -3.144531 15.882812 -3.617188 L 16.355469 -3.460938 C 16.355469 -2.988281 16.671875 -2.515625 16.828125 -2.042969 C 16.828125 -1.574219 18.402344 -0.316406 18.871094 0.945312 C 19.03125 1.414062 19.1875 1.730469 19.1875 2.042969 C 19.1875 2.203125 19.03125 2.359375 18.871094 2.832031 C 18.402344 3.304688 17.613281 3.460938 16.515625 3.460938 L 47.652344 3.460938 C 55.675781 2.988281 62.753906 0.472656 68.570312 -3.304688 C 70.300781 -4.402344 71.71875 -6.132812 73.132812 -7.390625 C 74.863281 -8.964844 76.433594 -10.222656 77.691406 -11.953125 C 78.953125 -13.683594 79.582031 -15.414062 80.523438 -17.300781 C 82.570312 -21.546875 83.511719 -26.265625 83.511719 -31.140625 Z M 32.554688 -84.613281 L 36.800781 -84.613281 C 44.195312 -84.457031 49.542969 -83.199219 53 -80.679688 C 54.730469 -79.582031 57.089844 -78.164062 57.089844 -76.277344 C 57.089844 -74.546875 58.976562 -71.246094 56.304688 -66.371094 C 55.675781 -64.953125 54.574219 -63.851562 53.316406 -62.910156 C 49.226562 -60.078125 42.148438 -59.136719 31.613281 -59.921875 C 31.769531 -65.742188 31.925781 -78.007812 32.398438 -83.511719 C 32.554688 -83.667969 32.554688 -84.140625 32.554688 -84.613281 Z M 63.695312 -30.824219 C 63.695312 -28.152344 62.910156 -25.636719 61.179688 -23.121094 C 60.707031 -22.332031 58.507812 -20.132812 57.875 -19.34375 C 53.472656 -14.46875 47.8125 -12.582031 38.058594 -12.582031 L 30.511719 -12.582031 L 30.355469 -21.074219 L 30.355469 -22.804688 C 30.195312 -24.21875 30.039062 -25.636719 30.039062 -27.050781 C 30.039062 -30.984375 30.511719 -35.070312 30.355469 -39.003906 C 30.195312 -45.136719 30.824219 -47.8125 31.453125 -55.359375 C 32.082031 -54.730469 32.398438 -54.101562 32.554688 -53.628906 C 32.554688 -52.84375 31.613281 -52.058594 31.453125 -51.269531 C 31.453125 -50.484375 31.769531 -49.699219 32.398438 -49.070312 C 32.398438 -48.914062 33.8125 -47.8125 34.914062 -46.394531 C 36.171875 -45.136719 34.128906 -45.453125 34.128906 -43.566406 C 36.644531 -44.351562 39.476562 -44.980469 41.992188 -46.082031 C 41.992188 -45.609375 42.308594 -45.136719 42.464844 -44.664062 C 47.023438 -44.664062 50.171875 -43.878906 53.472656 -43.25 C 56.148438 -42.777344 58.820312 -40.578125 60.394531 -39.476562 C 63.222656 -37.117188 63.695312 -34.757812 63.695312 -30.824219 Z M 63.695312 -30.824219 "/></g></g></g><g fill="#00bf63" fill-opacity="0.4784"><g transform="translate(195.698735, 227.408434)"><g><path d="M 73.242188 1.472656 L 73.078125 -2.617188 C 72.585938 -3.921875 71.933594 -5.394531 71.933594 -6.703125 L 71.933594 -7.355469 C 71.933594 -8.5 72.914062 -8.992188 73.078125 -9.808594 L 73.242188 -11.605469 L 73.078125 -13.078125 C 72.914062 -13.894531 71.933594 -16.511719 71.933594 -18.308594 C 71.933594 -19.78125 72.75 -19.128906 73.242188 -20.433594 C 70.296875 -20.433594 67.355469 -20.273438 64.25 -19.945312 L 63.429688 -19.78125 C 61.304688 -19.617188 59.015625 -19.617188 56.566406 -19.617188 L 49.371094 -19.617188 C 44.632812 -19.617188 40.054688 -19.78125 35.476562 -19.292969 C 34.984375 -21.742188 35.148438 -24.359375 35.148438 -26.976562 L 35.148438 -66.210938 L 37.273438 -89.261719 L 35.148438 -103.976562 C 33.675781 -102.011719 34.332031 -97.4375 34.332031 -92.695312 C 33.1875 -93.839844 32.207031 -93.839844 31.714844 -95.636719 L 31.550781 -97.273438 L 31.714844 -100.707031 C 31.714844 -101.6875 31.550781 -102.503906 31.226562 -103.15625 C 31.0625 -103.648438 30.898438 -103.976562 30.40625 -103.976562 C 29.917969 -103.976562 29.753906 -102.667969 29.261719 -101.851562 C 28.773438 -101.195312 28.117188 -100.871094 27.300781 -100.871094 L 25.011719 -101.03125 C 22.5625 -101.03125 20.273438 -102.011719 17.65625 -102.011719 C 16.839844 -102.011719 15.859375 -101.851562 14.878906 -101.523438 L 14.878906 -16.511719 L 14.386719 -12.261719 C 13.242188 -12.261719 12.75 -12.261719 11.933594 -11.769531 C 11.605469 -11.605469 11.445312 -11.445312 11.445312 -11.28125 C 11.445312 -10.789062 12.589844 -10.300781 13.078125 -9.808594 C 13.894531 -9.15625 13.894531 -8.175781 13.894531 -7.03125 L 13.894531 -5.886719 C 14.058594 -4.742188 14.058594 -3.597656 14.058594 -2.453125 C 14.058594 0 14.058594 2.289062 14.878906 4.25 L 40.054688 2.125 C 45.121094 1.636719 50.027344 1.636719 55.09375 1.472656 Z M 73.242188 1.472656 "/></g></g></g><g fill="#000000" fill-opacity="1"><g transform="translate(188.291035, 221.620907)"><g><path d="M 73.242188 1.472656 L 73.078125 -2.617188 C 72.585938 -3.921875 71.933594 -5.394531 71.933594 -6.703125 L 71.933594 -7.355469 C 71.933594 -8.5 72.914062 -8.992188 73.078125 -9.808594 L 73.242188 -11.605469 L 73.078125 -13.078125 C 72.914062 -13.894531 71.933594 -16.511719 71.933594 -18.308594 C 71.933594 -19.78125 72.75 -19.128906 73.242188 -20.433594 C 70.296875 -20.433594 67.355469 -20.273438 64.25 -19.945312 L 63.429688 -19.78125 C 61.304688 -19.617188 59.015625 -19.617188 56.566406 -19.617188 L 49.371094 -19.617188 C 44.632812 -19.617188 40.054688 -19.78125 35.476562 -19.292969 C 34.984375 -21.742188 35.148438 -24.359375 35.148438 -26.976562 L 35.148438 -66.210938 L 37.273438 -89.261719 L 35.148438 -103.976562 C 33.675781 -102.011719 34.332031 -97.4375 34.332031 -92.695312 C 33.1875 -93.839844 32.207031 -93.839844 31.714844 -95.636719 L 31.550781 -97.273438 L 31.714844 -100.707031 C 31.714844 -101.6875 31.550781 -102.503906 31.226562 -103.15625 C 31.0625 -103.648438 30.898438 -103.976562 30.40625 -103.976562 C 29.917969 -103.976562 29.753906 -102.667969 29.261719 -101.851562 C 28.773438 -101.195312 28.117188 -100.871094 27.300781 -100.871094 L 25.011719 -101.03125 C 22.5625 -101.03125 20.273438 -102.011719 17.65625 -102.011719 C 16.839844 -102.011719 15.859375 -101.851562 14.878906 -101.523438 L 14.878906 -16.511719 L 14.386719 -12.261719 C 13.242188 -12.261719 12.75 -12.261719 11.933594 -11.769531 C 11.605469 -11.605469 11.445312 -11.445312 11.445312 -11.28125 C 11.445312 -10.789062 12.589844 -10.300781 13.078125 -9.808594 C 13.894531 -9.15625 13.894531 -8.175781 13.894531 -7.03125 L 13.894531 -5.886719 C 14.058594 -4.742188 14.058594 -3.597656 14.058594 -2.453125 C 14.058594 0 14.058594 2.289062 14.878906 4.25 L 40.054688 2.125 C 45.121094 1.636719 50.027344 1.636719 55.09375 1.472656 Z M 73.242188 1.472656 "/></g></g></g><g fill="#004aad" fill-opacity="0.4"><g transform="translate(121.796231, 262.315749)"><g><path d="M 0.671875 -16.828125 C 1.316406 -17.160156 2.109375 -17.4375 3.046875 -17.65625 C 3.984375 -17.882812 5.066406 -18.078125 6.296875 -18.234375 C 10.234375 -18.660156 12.820312 -17.71875 14.0625 -15.40625 C 14.820312 -13.582031 14.242188 -11.800781 12.328125 -10.0625 C 14.296875 -9.175781 15.28125 -8.015625 15.28125 -6.578125 C 15.28125 -5.148438 14.875 -4.066406 14.0625 -3.328125 C 13.863281 -3.109375 13.644531 -2.910156 13.40625 -2.734375 C 13.175781 -2.566406 12.941406 -2.40625 12.703125 -2.25 C 10.492188 -1 7.976562 -0.320312 5.15625 -0.21875 C 4.726562 -0.175781 4.144531 -0.144531 3.40625 -0.125 C 2.664062 -0.101562 1.753906 -0.0820312 0.671875 -0.0625 C 0.523438 -5.425781 0.523438 -11.015625 0.671875 -16.828125 Z M 5.171875 -4.6875 C 7.992188 -4.570312 9.378906 -5.203125 9.328125 -6.578125 C 9.191406 -7.140625 8.816406 -7.453125 8.203125 -7.515625 C 7.421875 -7.628906 6.390625 -7.488281 5.109375 -7.09375 C 5.078125 -6.195312 5.097656 -5.394531 5.171875 -4.6875 Z M 5.21875 -11.234375 C 7.5625 -11.234375 8.671875 -11.773438 8.546875 -12.859375 C 8.472656 -13.359375 8.1875 -13.660156 7.6875 -13.765625 C 7.3125 -13.816406 6.910156 -13.820312 6.484375 -13.78125 C 6.054688 -13.738281 5.597656 -13.660156 5.109375 -13.546875 C 5.109375 -13.140625 5.113281 -12.742188 5.125 -12.359375 C 5.144531 -11.984375 5.175781 -11.609375 5.21875 -11.234375 Z M 5.21875 -11.234375 "/></g></g></g><g fill="#004aad" fill-opacity="0.4"><g transform="translate(137.611461, 262.315749)"><g><path d="M 3.65625 -1.34375 C 2.40625 -2.21875 1.5 -3.507812 0.9375 -5.21875 C 0.644531 -6.300781 0.519531 -7.359375 0.5625 -8.390625 C 1.125 -14.679688 4.398438 -18.015625 10.390625 -18.390625 C 12.828125 -18.609375 14.84375 -17.769531 16.4375 -15.875 C 17.164062 -14.769531 17.609375 -13.503906 17.765625 -12.078125 C 17.910156 -10.546875 17.722656 -8.953125 17.203125 -7.296875 C 16.554688 -5.472656 15.691406 -4.039062 14.609375 -3 C 11.171875 0.207031 7.519531 0.757812 3.65625 -1.34375 Z M 12.265625 -10.640625 C 11.847656 -11.941406 10.953125 -12.535156 9.578125 -12.421875 C 8.398438 -12.378906 7.441406 -11.898438 6.703125 -10.984375 C 5.910156 -9.835938 5.710938 -8.679688 6.109375 -7.515625 C 6.734375 -6.253906 7.660156 -5.695312 8.890625 -5.84375 C 10.316406 -6.070312 11.367188 -6.941406 12.046875 -8.453125 C 12.347656 -9.234375 12.421875 -9.960938 12.265625 -10.640625 Z M 12.265625 -10.640625 "/></g></g></g><g fill="#004aad" fill-opacity="0.4"><g transform="translate(155.979628, 262.315749)"><g><path d="M 3.65625 -1.34375 C 2.40625 -2.21875 1.5 -3.507812 0.9375 -5.21875 C 0.644531 -6.300781 0.519531 -7.359375 0.5625 -8.390625 C 1.125 -14.679688 4.398438 -18.015625 10.390625 -18.390625 C 12.828125 -18.609375 14.84375 -17.769531 16.4375 -15.875 C 17.164062 -14.769531 17.609375 -13.503906 17.765625 -12.078125 C 17.910156 -10.546875 17.722656 -8.953125 17.203125 -7.296875 C 16.554688 -5.472656 15.691406 -4.039062 14.609375 -3 C 11.171875 0.207031 7.519531 0.757812 3.65625 -1.34375 Z M 12.265625 -10.640625 C 11.847656 -11.941406 10.953125 -12.535156 9.578125 -12.421875 C 8.398438 -12.378906 7.441406 -11.898438 6.703125 -10.984375 C 5.910156 -9.835938 5.710938 -8.679688 6.109375 -7.515625 C 6.734375 -6.253906 7.660156 -5.695312 8.890625 -5.84375 C 10.316406 -6.070312 11.367188 -6.941406 12.046875 -8.453125 C 12.347656 -9.234375 12.421875 -9.960938 12.265625 -10.640625 Z M 12.265625 -10.640625 "/></g></g></g><g fill="#004aad" fill-opacity="0.4"><g transform="translate(174.347795, 262.315749)"><g><path d="M 5.796875 -17.875 L 5.828125 -5.453125 C 8.609375 -5.753906 10.863281 -5.945312 12.59375 -6.03125 C 12.632812 -4.289062 12.613281 -2.675781 12.53125 -1.1875 C 9.71875 -0.769531 5.75 -0.40625 0.625 -0.09375 C 0.550781 -2.6875 0.523438 -5.421875 0.546875 -8.296875 C 0.566406 -11.171875 0.625 -14.21875 0.71875 -17.4375 C 2.5625 -17.832031 4.253906 -17.976562 5.796875 -17.875 Z M 5.796875 -17.875 "/></g></g></g><g fill="#004aad" fill-opacity="0.4"><g transform="translate(187.523549, 262.315749)"><g><path d="M 12.828125 -17.75 C 12.898438 -16.925781 12.929688 -16.113281 12.921875 -15.3125 C 12.921875 -14.519531 12.882812 -13.742188 12.8125 -12.984375 L 5.75 -12.3125 L 5.78125 -10.640625 L 12.546875 -11.234375 L 12.546875 -6.671875 C 12.421875 -6.640625 11.796875 -6.570312 10.671875 -6.46875 C 9.554688 -6.363281 7.945312 -6.21875 5.84375 -6.03125 L 5.859375 -4.453125 C 10.234375 -4.960938 12.566406 -5.203125 12.859375 -5.171875 C 12.984375 -3.304688 12.984375 -1.753906 12.859375 -0.515625 C 9.992188 -0.0859375 5.929688 0.253906 0.671875 0.515625 C 0.597656 -2.078125 0.554688 -4.789062 0.546875 -7.625 C 0.546875 -10.457031 0.582031 -13.441406 0.65625 -16.578125 C 5.3125 -17.222656 9.367188 -17.613281 12.828125 -17.75 Z M 12.828125 -17.75 "/></g></g></g><g fill="#004aad" fill-opacity="0.4"><g transform="translate(201.023823, 262.315749)"><g><path d="M 6.453125 -2.09375 C 6.378906 -1.757812 6.304688 -1.4375 6.234375 -1.125 C 6.160156 -0.8125 6.085938 -0.488281 6.015625 -0.15625 C 3.378906 0.0195312 1.554688 -0.09375 0.546875 -0.5 C 1.710938 -4.863281 2.703125 -8.484375 3.515625 -11.359375 C 4.328125 -14.234375 4.972656 -16.382812 5.453125 -17.8125 C 7.617188 -18.300781 9.582031 -18.476562 11.34375 -18.34375 C 12.332031 -15.789062 13.300781 -13.144531 14.25 -10.40625 C 15.207031 -7.675781 16.148438 -4.820312 17.078125 -1.84375 C 16.191406 -1.332031 14.316406 -0.90625 11.453125 -0.5625 C 11.347656 -0.894531 11.25 -1.21875 11.15625 -1.53125 C 11.070312 -1.851562 10.984375 -2.164062 10.890625 -2.46875 C 10.273438 -2.425781 9.601562 -2.367188 8.875 -2.296875 C 8.15625 -2.234375 7.347656 -2.164062 6.453125 -2.09375 Z M 9.5625 -6.859375 C 9.34375 -7.578125 9.144531 -8.222656 8.96875 -8.796875 C 8.789062 -9.367188 8.617188 -9.863281 8.453125 -10.28125 C 8.296875 -9.675781 8.140625 -9.078125 7.984375 -8.484375 C 7.835938 -7.890625 7.6875 -7.289062 7.53125 -6.6875 Z M 9.5625 -6.859375 "/></g></g></g><g fill="#004aad" fill-opacity="0.4"><g transform="translate(218.634757, 262.315749)"><g><path d="M 12.296875 -5.15625 C 12.671875 -4.65625 13.078125 -4.109375 13.515625 -3.515625 C 13.960938 -2.929688 14.445312 -2.289062 14.96875 -1.59375 C 14.476562 -1.132812 13.929688 -0.65625 13.328125 -0.15625 C 12.722656 0.332031 12.050781 0.847656 11.3125 1.390625 C 11.15625 1.285156 9.96875 -0.242188 7.75 -3.203125 C 7.5 -3.171875 7.238281 -3.144531 6.96875 -3.125 C 6.695312 -3.113281 6.410156 -3.101562 6.109375 -3.09375 C 6.109375 -2.59375 6.101562 -2.078125 6.09375 -1.546875 C 6.082031 -1.015625 6.078125 -0.476562 6.078125 0.0625 C 4.609375 0.351562 2.8125 0.523438 0.6875 0.578125 C 0.601562 -2.554688 0.554688 -5.546875 0.546875 -8.390625 C 0.546875 -11.234375 0.582031 -13.953125 0.65625 -16.546875 C 0.90625 -16.734375 2.378906 -16.976562 5.078125 -17.28125 C 6.046875 -17.40625 6.953125 -17.46875 7.796875 -17.46875 C 8.640625 -17.46875 9.429688 -17.40625 10.171875 -17.28125 C 13.203125 -16.675781 14.753906 -14.648438 14.828125 -11.203125 C 14.804688 -8.554688 13.960938 -6.539062 12.296875 -5.15625 Z M 6.125 -7.6875 C 8.382812 -7.882812 9.625 -8.5625 9.84375 -9.71875 C 10.019531 -11.03125 9.742188 -11.894531 9.015625 -12.3125 C 8.453125 -12.582031 7.46875 -12.609375 6.0625 -12.390625 C 6.070312 -11.640625 6.082031 -10.875 6.09375 -10.09375 C 6.101562 -9.3125 6.113281 -8.507812 6.125 -7.6875 Z M 6.125 -7.6875 "/></g></g></g><g fill="#004aad" fill-opacity="0.4"><g transform="translate(234.147097, 262.315749)"><g><path d="M 0.65625 -16.765625 L 5.546875 -17.953125 C 6.304688 -16.960938 7.101562 -15.859375 7.9375 -14.640625 C 8.78125 -13.421875 9.675781 -12.066406 10.625 -10.578125 C 10.507812 -12.453125 10.488281 -14.789062 10.5625 -17.59375 C 13.082031 -17.8125 14.910156 -17.800781 16.046875 -17.5625 C 16.222656 -11.25 16.222656 -5.671875 16.046875 -0.828125 C 15.179688 -0.492188 14.410156 -0.238281 13.734375 -0.0625 C 13.054688 0.101562 12.457031 0.179688 11.9375 0.171875 C 10.4375 -2.109375 8.457031 -4.828125 6 -7.984375 L 6 0.171875 C 3.113281 0.304688 1.320312 0.285156 0.625 0.109375 C 0.570312 -2.390625 0.546875 -5.035156 0.546875 -7.828125 C 0.554688 -10.617188 0.59375 -13.597656 0.65625 -16.765625 Z M 0.65625 -16.765625 "/></g></g></g><g fill="#000000" fill-opacity="1"><g transform="translate(119.837399, 260.356917)"><g><path d="M 0.671875 -16.828125 C 1.316406 -17.160156 2.109375 -17.4375 3.046875 -17.65625 C 3.984375 -17.882812 5.066406 -18.078125 6.296875 -18.234375 C 10.234375 -18.660156 12.820312 -17.71875 14.0625 -15.40625 C 14.820312 -13.582031 14.242188 -11.800781 12.328125 -10.0625 C 14.296875 -9.175781 15.28125 -8.015625 15.28125 -6.578125 C 15.28125 -5.148438 14.875 -4.066406 14.0625 -3.328125 C 13.863281 -3.109375 13.644531 -2.910156 13.40625 -2.734375 C 13.175781 -2.566406 12.941406 -2.40625 12.703125 -2.25 C 10.492188 -1 7.976562 -0.320312 5.15625 -0.21875 C 4.726562 -0.175781 4.144531 -0.144531 3.40625 -0.125 C 2.664062 -0.101562 1.753906 -0.0820312 0.671875 -0.0625 C 0.523438 -5.425781 0.523438 -11.015625 0.671875 -16.828125 Z M 5.171875 -4.6875 C 7.992188 -4.570312 9.378906 -5.203125 9.328125 -6.578125 C 9.191406 -7.140625 8.816406 -7.453125 8.203125 -7.515625 C 7.421875 -7.628906 6.390625 -7.488281 5.109375 -7.09375 C 5.078125 -6.195312 5.097656 -5.394531 5.171875 -4.6875 Z M 5.21875 -11.234375 C 7.5625 -11.234375 8.671875 -11.773438 8.546875 -12.859375 C 8.472656 -13.359375 8.1875 -13.660156 7.6875 -13.765625 C 7.3125 -13.816406 6.910156 -13.820312 6.484375 -13.78125 C 6.054688 -13.738281 5.597656 -13.660156 5.109375 -13.546875 C 5.109375 -13.140625 5.113281 -12.742188 5.125 -12.359375 C 5.144531 -11.984375 5.175781 -11.609375 5.21875 -11.234375 Z M 5.21875 -11.234375 "/></g></g></g><g fill="#000000" fill-opacity="1"><g transform="translate(135.652629, 260.356917)"><g><path d="M 3.65625 -1.34375 C 2.40625 -2.21875 1.5 -3.507812 0.9375 -5.21875 C 0.644531 -6.300781 0.519531 -7.359375 0.5625 -8.390625 C 1.125 -14.679688 4.398438 -18.015625 10.390625 -18.390625 C 12.828125 -18.609375 14.84375 -17.769531 16.4375 -15.875 C 17.164062 -14.769531 17.609375 -13.503906 17.765625 -12.078125 C 17.910156 -10.546875 17.722656 -8.953125 17.203125 -7.296875 C 16.554688 -5.472656 15.691406 -4.039062 14.609375 -3 C 11.171875 0.207031 7.519531 0.757812 3.65625 -1.34375 Z M 12.265625 -10.640625 C 11.847656 -11.941406 10.953125 -12.535156 9.578125 -12.421875 C 8.398438 -12.378906 7.441406 -11.898438 6.703125 -10.984375 C 5.910156 -9.835938 5.710938 -8.679688 6.109375 -7.515625 C 6.734375 -6.253906 7.660156 -5.695312 8.890625 -5.84375 C 10.316406 -6.070312 11.367188 -6.941406 12.046875 -8.453125 C 12.347656 -9.234375 12.421875 -9.960938 12.265625 -10.640625 Z M 12.265625 -10.640625 "/></g></g></g><g fill="#000000" fill-opacity="1"><g transform="translate(154.020796, 260.356917)"><g><path d="M 3.65625 -1.34375 C 2.40625 -2.21875 1.5 -3.507812 0.9375 -5.21875 C 0.644531 -6.300781 0.519531 -7.359375 0.5625 -8.390625 C 1.125 -14.679688 4.398438 -18.015625 10.390625 -18.390625 C 12.828125 -18.609375 14.84375 -17.769531 16.4375 -15.875 C 17.164062 -14.769531 17.609375 -13.503906 17.765625 -12.078125 C 17.910156 -10.546875 17.722656 -8.953125 17.203125 -7.296875 C 16.554688 -5.472656 15.691406 -4.039062 14.609375 -3 C 11.171875 0.207031 7.519531 0.757812 3.65625 -1.34375 Z M 12.265625 -10.640625 C 11.847656 -11.941406 10.953125 -12.535156 9.578125 -12.421875 C 8.398438 -12.378906 7.441406 -11.898438 6.703125 -10.984375 C 5.910156 -9.835938 5.710938 -8.679688 6.109375 -7.515625 C 6.734375 -6.253906 7.660156 -5.695312 8.890625 -5.84375 C 10.316406 -6.070312 11.367188 -6.941406 12.046875 -8.453125 C 12.347656 -9.234375 12.421875 -9.960938 12.265625 -10.640625 Z M 12.265625 -10.640625 "/></g></g></g><g fill="#000000" fill-opacity="1"><g transform="translate(172.388963, 260.356917)"><g><path d="M 5.796875 -17.875 L 5.828125 -5.453125 C 8.609375 -5.753906 10.863281 -5.945312 12.59375 -6.03125 C 12.632812 -4.289062 12.613281 -2.675781 12.53125 -1.1875 C 9.71875 -0.769531 5.75 -0.40625 0.625 -0.09375 C 0.550781 -2.6875 0.523438 -5.421875 0.546875 -8.296875 C 0.566406 -11.171875 0.625 -14.21875 0.71875 -17.4375 C 2.5625 -17.832031 4.253906 -17.976562 5.796875 -17.875 Z M 5.796875 -17.875 "/></g></g></g><g fill="#000000" fill-opacity="1"><g transform="translate(185.564717, 260.356917)"><g><path d="M 12.828125 -17.75 C 12.898438 -16.925781 12.929688 -16.113281 12.921875 -15.3125 C 12.921875 -14.519531 12.882812 -13.742188 12.8125 -12.984375 L 5.75 -12.3125 L 5.78125 -10.640625 L 12.546875 -11.234375 L 12.546875 -6.671875 C 12.421875 -6.640625 11.796875 -6.570312 10.671875 -6.46875 C 9.554688 -6.363281 7.945312 -6.21875 5.84375 -6.03125 L 5.859375 -4.453125 C 10.234375 -4.960938 12.566406 -5.203125 12.859375 -5.171875 C 12.984375 -3.304688 12.984375 -1.753906 12.859375 -0.515625 C 9.992188 -0.0859375 5.929688 0.253906 0.671875 0.515625 C 0.597656 -2.078125 0.554688 -4.789062 0.546875 -7.625 C 0.546875 -10.457031 0.582031 -13.441406 0.65625 -16.578125 C 5.3125 -17.222656 9.367188 -17.613281 12.828125 -17.75 Z M 12.828125 -17.75 "/></g></g></g><g fill="#000000" fill-opacity="1"><g transform="translate(199.064991, 260.356917)"><g><path d="M 6.453125 -2.09375 C 6.378906 -1.757812 6.304688 -1.4375 6.234375 -1.125 C 6.160156 -0.8125 6.085938 -0.488281 6.015625 -0.15625 C 3.378906 0.0195312 1.554688 -0.09375 0.546875 -0.5 C 1.710938 -4.863281 2.703125 -8.484375 3.515625 -11.359375 C 4.328125 -14.234375 4.972656 -16.382812 5.453125 -17.8125 C 7.617188 -18.300781 9.582031 -18.476562 11.34375 -18.34375 C 12.332031 -15.789062 13.300781 -13.144531 14.25 -10.40625 C 15.207031 -7.675781 16.148438 -4.820312 17.078125 -1.84375 C 16.191406 -1.332031 14.316406 -0.90625 11.453125 -0.5625 C 11.347656 -0.894531 11.25 -1.21875 11.15625 -1.53125 C 11.070312 -1.851562 10.984375 -2.164062 10.890625 -2.46875 C 10.273438 -2.425781 9.601562 -2.367188 8.875 -2.296875 C 8.15625 -2.234375 7.347656 -2.164062 6.453125 -2.09375 Z M 9.5625 -6.859375 C 9.34375 -7.578125 9.144531 -8.222656 8.96875 -8.796875 C 8.789062 -9.367188 8.617188 -9.863281 8.453125 -10.28125 C 8.296875 -9.675781 8.140625 -9.078125 7.984375 -8.484375 C 7.835938 -7.890625 7.6875 -7.289062 7.53125 -6.6875 Z M 9.5625 -6.859375 "/></g></g></g><g fill="#000000" fill-opacity="1"><g transform="translate(216.675925, 260.356917)"><g><path d="M 12.296875 -5.15625 C 12.671875 -4.65625 13.078125 -4.109375 13.515625 -3.515625 C 13.960938 -2.929688 14.445312 -2.289062 14.96875 -1.59375 C 14.476562 -1.132812 13.929688 -0.65625 13.328125 -0.15625 C 12.722656 0.332031 12.050781 0.847656 11.3125 1.390625 C 11.15625 1.285156 9.96875 -0.242188 7.75 -3.203125 C 7.5 -3.171875 7.238281 -3.144531 6.96875 -3.125 C 6.695312 -3.113281 6.410156 -3.101562 6.109375 -3.09375 C 6.109375 -2.59375 6.101562 -2.078125 6.09375 -1.546875 C 6.082031 -1.015625 6.078125 -0.476562 6.078125 0.0625 C 4.609375 0.351562 2.8125 0.523438 0.6875 0.578125 C 0.601562 -2.554688 0.554688 -5.546875 0.546875 -8.390625 C 0.546875 -11.234375 0.582031 -13.953125 0.65625 -16.546875 C 0.90625 -16.734375 2.378906 -16.976562 5.078125 -17.28125 C 6.046875 -17.40625 6.953125 -17.46875 7.796875 -17.46875 C 8.640625 -17.46875 9.429688 -17.40625 10.171875 -17.28125 C 13.203125 -16.675781 14.753906 -14.648438 14.828125 -11.203125 C 14.804688 -8.554688 13.960938 -6.539062 12.296875 -5.15625 Z M 6.125 -7.6875 C 8.382812 -7.882812 9.625 -8.5625 9.84375 -9.71875 C 10.019531 -11.03125 9.742188 -11.894531 9.015625 -12.3125 C 8.453125 -12.582031 7.46875 -12.609375 6.0625 -12.390625 C 6.070312 -11.640625 6.082031 -10.875 6.09375 -10.09375 C 6.101562 -9.3125 6.113281 -8.507812 6.125 -7.6875 Z M 6.125 -7.6875 "/></g></g></g><g fill="#000000" fill-opacity="1"><g transform="translate(232.188265, 260.356917)"><g><path d="M 0.65625 -16.765625 L 5.546875 -17.953125 C 6.304688 -16.960938 7.101562 -15.859375 7.9375 -14.640625 C 8.78125 -13.421875 9.675781 -12.066406 10.625 -10.578125 C 10.507812 -12.453125 10.488281 -14.789062 10.5625 -17.59375 C 13.082031 -17.8125 14.910156 -17.800781 16.046875 -17.5625 C 16.222656 -11.25 16.222656 -5.671875 16.046875 -0.828125 C 15.179688 -0.492188 14.410156 -0.238281 13.734375 -0.0625 C 13.054688 0.101562 12.457031 0.179688 11.9375 0.171875 C 10.4375 -2.109375 8.457031 -4.828125 6 -7.984375 L 6 0.171875 C 3.113281 0.304688 1.320312 0.285156 0.625 0.109375 C 0.570312 -2.390625 0.546875 -5.035156 0.546875 -7.828125 C 0.554688 -10.617188 0.59375 -13.597656 0.65625 -16.765625 Z M 0.65625 -16.765625 "/></g></g></g></svg>