<svg xmlns="http://www.w3.org/2000/svg" xmlns:xlink="http://www.w3.org/1999/xlink" width="500" zoomAndPan="magnify" viewBox="75 135 350 205" height="500" preserveAspectRatio="xMidYMid meet" version="1.0">
  <defs>
    <g />
    <clipPath id="f90bd627c3">
      <path d="M 132.824219 112.136719 L 242.324219 112.136719 L 242.324219 191.636719 L 132.824219 191.636719 Z M 132.824219 112.136719 " clip-rule="nonzero" />
    </clipPath>
  </defs>
  <g clip-path="url(#f90bd627c3)">
    <path fill="#1caf55" d="M 153.554688 115.132812 C 151.234375 115.132812 149.347656 117.011719 149.347656 119.328125 L 149.347656 165.28125 L 136.574219 180.523438 C 136.078125 181.117188 135.800781 181.871094 135.800781 182.640625 L 135.800781 184.503906 C 135.800781 186.664062 137.5625 188.417969 139.722656 188.417969 L 235.121094 188.417969 C 237.285156 188.417969 239.042969 186.664062 239.042969 184.503906 L 239.042969 182.640625 C 239.042969 181.871094 238.765625 181.117188 238.273438 180.515625 L 225.496094 165.28125 L 225.496094 119.328125 C 225.496094 117.011719 223.613281 115.132812 221.292969 115.132812 Z M 235.121094 191.433594 L 139.722656 191.433594 C 135.902344 191.433594 132.789062 188.324219 132.789062 184.503906 L 132.789062 182.640625 C 132.789062 181.164062 133.3125 179.722656 134.265625 178.585938 L 146.335938 164.179688 L 146.335938 119.328125 C 146.335938 115.347656 149.574219 112.117188 153.554688 112.117188 L 221.292969 112.117188 C 225.273438 112.117188 228.511719 115.347656 228.511719 119.328125 L 228.511719 164.179688 L 240.582031 178.582031 C 241.535156 179.722656 242.058594 181.164062 242.058594 182.640625 L 242.058594 184.503906 C 242.058594 188.324219 238.945312 191.433594 235.121094 191.433594 " fill-opacity="1" fill-rule="nonzero" />
  </g>
  <path fill="#1caf55" d="M 227.003906 166.234375 L 147.84375 166.234375 L 147.84375 163.21875 L 227.003906 163.21875 L 227.003906 166.234375 " fill-opacity="1" fill-rule="nonzero" />
  <path fill="#1caf55" d="M 240.550781 182.402344 L 198.25 182.402344 L 198.25 179.386719 L 240.550781 179.386719 L 240.550781 182.402344 " fill-opacity="1" fill-rule="nonzero" />
  <path fill="#1caf55" d="M 176.597656 182.402344 L 134.296875 182.402344 L 134.296875 179.386719 L 176.597656 179.386719 L 176.597656 182.402344 " fill-opacity="1" fill-rule="nonzero" />
  <path fill="#1caf55" d="M 227.003906 123.292969 L 147.84375 123.292969 L 147.84375 120.277344 L 227.003906 120.277344 L 227.003906 123.292969 " fill-opacity="1" fill-rule="nonzero" />
  <path fill="#1caf55" d="M 177.4375 176.21875 L 177.277344 176.414062 L 178.539062 183.058594 C 178.558594 183.132812 178.621094 183.191406 178.703125 183.191406 L 196.140625 183.191406 C 196.226562 183.191406 196.289062 183.132812 196.308594 183.058594 L 197.566406 176.414062 L 197.410156 176.21875 Z M 196.140625 186.203125 L 178.703125 186.203125 C 177.179688 186.203125 175.867188 185.113281 175.582031 183.625 L 174.316406 176.980469 C 174.136719 176.046875 174.382812 175.089844 174.988281 174.359375 C 175.59375 173.628906 176.484375 173.203125 177.4375 173.203125 L 197.410156 173.203125 C 198.363281 173.203125 199.25 173.628906 199.859375 174.359375 C 200.464844 175.089844 200.710938 176.046875 200.527344 176.980469 L 199.261719 183.621094 C 198.980469 185.113281 197.667969 186.203125 196.140625 186.203125 " fill-opacity="1" fill-rule="nonzero" />
  <path fill="#1caf55" d="M 170.484375 142.796875 L 170.492188 142.796875 C 170.492188 142.796875 170.492188 142.796875 170.484375 142.796875 Z M 177.699219 154.140625 C 177.296875 154.140625 176.902344 153.984375 176.601562 153.671875 L 168.296875 144.867188 C 167.449219 143.96875 167.449219 142.5625 168.296875 141.660156 L 176.601562 132.859375 C 177.179688 132.253906 178.128906 132.222656 178.734375 132.792969 C 179.339844 133.363281 179.371094 134.320312 178.796875 134.925781 L 170.925781 143.261719 L 178.796875 151.597656 C 179.371094 152.203125 179.339844 153.160156 178.734375 153.730469 C 178.445312 154.007812 178.066406 154.140625 177.699219 154.140625 " fill-opacity="1" fill-rule="nonzero" />
  <path fill="#1caf55" d="M 204.355469 142.796875 Z M 204.355469 143.726562 L 204.375 143.726562 Z M 197.148438 154.140625 C 196.777344 154.140625 196.402344 154.007812 196.113281 153.730469 C 195.507812 153.160156 195.476562 152.203125 196.046875 151.597656 L 203.917969 143.261719 L 196.046875 134.925781 C 195.476562 134.320312 195.507812 133.363281 196.113281 132.792969 C 196.71875 132.222656 197.667969 132.253906 198.246094 132.859375 L 206.550781 141.65625 C 207.398438 142.5625 207.398438 143.96875 206.546875 144.867188 L 198.246094 153.671875 C 197.945312 153.984375 197.550781 154.140625 197.148438 154.140625 " fill-opacity="1" fill-rule="nonzero" />
  <path fill="#1caf55" d="M 184.445312 157.019531 C 184.328125 157.019531 184.203125 157.007812 184.085938 156.980469 C 183.273438 156.777344 182.777344 155.964844 182.972656 155.152344 L 188.941406 130.65625 C 189.136719 129.84375 189.960938 129.351562 190.761719 129.550781 C 191.574219 129.746094 192.070312 130.558594 191.875 131.371094 L 185.90625 155.871094 C 185.738281 156.554688 185.121094 157.019531 184.445312 157.019531 " fill-opacity="1" fill-rule="nonzero" />
  <g fill="#1caf55" fill-opacity="1">
    <g transform="translate(71.490882, 233.374161)">
      <g>
        <path d="M 4.265625 -21.671875 L 5.109375 -21.671875 C 5.878906 -21.671875 6.488281 -21.5 6.9375 -21.15625 C 7.394531 -20.820312 7.707031 -20.28125 7.875 -19.53125 C 7.96875 -19.226562 8.019531 -18.847656 8.03125 -18.390625 C 8.039062 -17.929688 8.054688 -17.613281 8.078125 -17.4375 C 8.222656 -16.851562 8.296875 -16.101562 8.296875 -15.1875 C 8.296875 -13.882812 8.332031 -13.054688 8.40625 -12.703125 C 8.425781 -12.535156 8.550781 -12.394531 8.78125 -12.28125 C 8.800781 -12.257812 9.023438 -12.25 9.453125 -12.25 C 10.109375 -12.25 10.816406 -12.265625 11.578125 -12.296875 C 12.347656 -12.335938 13.050781 -12.453125 13.6875 -12.640625 C 14.007812 -12.773438 14.289062 -13.050781 14.53125 -13.46875 C 14.625 -13.65625 14.679688 -13.863281 14.703125 -14.09375 C 14.722656 -14.332031 14.734375 -14.59375 14.734375 -14.875 C 14.734375 -15.5 14.609375 -16.101562 14.359375 -16.6875 C 14.117188 -17.269531 13.835938 -17.644531 13.515625 -17.8125 L 13.265625 -17.953125 L 11.546875 -17.984375 C 10.941406 -18.015625 10.476562 -18.03125 10.15625 -18.03125 C 9.84375 -18.03125 9.664062 -18.039062 9.625 -18.0625 C 9.132812 -18.226562 8.820312 -18.644531 8.6875 -19.3125 C 8.613281 -19.738281 8.628906 -20.109375 8.734375 -20.421875 C 8.835938 -20.734375 9.039062 -20.960938 9.34375 -21.109375 C 9.695312 -21.265625 10.269531 -21.359375 11.0625 -21.390625 C 11.457031 -21.410156 11.796875 -21.421875 12.078125 -21.421875 C 12.359375 -21.421875 12.613281 -21.429688 12.84375 -21.453125 C 13.3125 -21.472656 13.929688 -21.507812 14.703125 -21.5625 C 15.660156 -21.601562 16.367188 -21.539062 16.828125 -21.375 C 17.296875 -21.21875 17.695312 -21.007812 18.03125 -20.75 C 18.28125 -20.5625 18.492188 -20.285156 18.671875 -19.921875 C 18.847656 -19.566406 18.984375 -19.175781 19.078125 -18.75 C 19.171875 -18.332031 19.234375 -17.914062 19.265625 -17.5 C 19.296875 -17.082031 19.3125 -16.722656 19.3125 -16.421875 C 19.34375 -15.597656 19.3125 -14.9375 19.21875 -14.4375 C 19.125 -13.9375 18.925781 -13.40625 18.625 -12.84375 L 18.3125 -12 C 18.445312 -11.882812 18.578125 -11.78125 18.703125 -11.6875 C 18.835938 -11.59375 18.972656 -11.488281 19.109375 -11.375 C 19.273438 -11.28125 19.410156 -11.160156 19.515625 -11.015625 C 19.617188 -10.878906 19.691406 -10.753906 19.734375 -10.640625 C 19.785156 -10.453125 19.851562 -10.273438 19.9375 -10.109375 C 20.019531 -9.953125 20.082031 -9.800781 20.125 -9.65625 C 20.238281 -9.40625 20.316406 -9.15625 20.359375 -8.90625 C 20.410156 -8.664062 20.445312 -8.378906 20.46875 -8.046875 C 20.519531 -7.328125 20.515625 -6.660156 20.453125 -6.046875 C 20.398438 -5.441406 20.28125 -4.867188 20.09375 -4.328125 C 19.90625 -3.796875 19.644531 -3.289062 19.3125 -2.8125 C 18.988281 -2.332031 18.59375 -1.863281 18.125 -1.40625 C 17.800781 -1.125 17.410156 -0.84375 16.953125 -0.5625 C 16.503906 -0.28125 16.054688 -0.140625 15.609375 -0.140625 C 15.285156 -0.140625 14.867188 -0.160156 14.359375 -0.203125 C 13.859375 -0.253906 13.25 -0.253906 12.53125 -0.203125 C 11.988281 -0.160156 11.476562 -0.125 11 -0.09375 C 10.53125 -0.0703125 10.082031 -0.0507812 9.65625 -0.03125 L 8.578125 0 L 7.984375 0.203125 C 7.585938 0.367188 7.242188 0.488281 6.953125 0.5625 C 6.660156 0.632812 6.375 0.671875 6.09375 0.671875 C 5.882812 0.671875 5.617188 0.644531 5.296875 0.59375 C 4.984375 0.550781 4.675781 0.472656 4.375 0.359375 C 4.070312 0.253906 3.789062 0.132812 3.53125 0 C 3.28125 -0.132812 3.09375 -0.296875 2.96875 -0.484375 C 2.851562 -0.609375 2.765625 -0.757812 2.703125 -0.9375 C 2.648438 -1.125 2.585938 -1.328125 2.515625 -1.546875 C 2.472656 -1.703125 2.425781 -2.097656 2.375 -2.734375 C 2.332031 -3.378906 2.265625 -4.265625 2.171875 -5.390625 C 2.117188 -6.046875 2.078125 -7.117188 2.046875 -8.609375 C 2.015625 -10.097656 2.019531 -12.046875 2.0625 -14.453125 L 2.0625 -20.375 L 2.140625 -20.578125 C 2.367188 -21.179688 3.078125 -21.546875 4.265625 -21.671875 Z M 5.984375 -20.71875 C 5.679688 -20.925781 5.4375 -20.867188 5.25 -20.546875 C 5.132812 -20.429688 5.097656 -20.28125 5.140625 -20.09375 C 5.171875 -19.976562 5.441406 -19.894531 5.953125 -19.84375 C 6.085938 -19.820312 6.195312 -19.8125 6.28125 -19.8125 C 6.363281 -19.8125 6.414062 -19.8125 6.4375 -19.8125 C 6.4375 -19.832031 6.40625 -19.941406 6.34375 -20.140625 C 6.289062 -20.335938 6.253906 -20.472656 6.234375 -20.546875 C 6.179688 -20.640625 6.097656 -20.695312 5.984375 -20.71875 Z M 16.3125 -20.4375 C 16.21875 -20.4375 16.03125 -20.40625 15.75 -20.34375 C 15.46875 -20.289062 15.328125 -20.226562 15.328125 -20.15625 C 15.328125 -20.09375 15.378906 -19.984375 15.484375 -19.828125 C 15.585938 -19.671875 15.695312 -19.570312 15.8125 -19.53125 C 15.863281 -19.507812 15.945312 -19.5 16.0625 -19.5 C 16.175781 -19.5 16.351562 -19.472656 16.59375 -19.421875 C 16.800781 -19.421875 16.972656 -19.414062 17.109375 -19.40625 C 17.253906 -19.394531 17.382812 -19.398438 17.5 -19.421875 C 17.664062 -19.472656 17.769531 -19.546875 17.8125 -19.640625 C 17.863281 -19.734375 17.828125 -19.835938 17.703125 -19.953125 C 17.546875 -20.140625 17.328125 -20.265625 17.046875 -20.328125 C 16.765625 -20.398438 16.519531 -20.4375 16.3125 -20.4375 Z M 13.4375 -8.890625 C 13.394531 -8.910156 13.226562 -8.921875 12.9375 -8.921875 C 12.644531 -8.921875 12.265625 -8.910156 11.796875 -8.890625 C 11.191406 -8.890625 10.679688 -8.882812 10.265625 -8.875 C 9.859375 -8.863281 9.578125 -8.84375 9.421875 -8.8125 C 9.085938 -8.789062 8.882812 -8.640625 8.8125 -8.359375 C 8.8125 -8.316406 8.804688 -8.144531 8.796875 -7.84375 C 8.785156 -7.539062 8.78125 -7.082031 8.78125 -6.46875 C 8.78125 -5.882812 8.78125 -5.421875 8.78125 -5.078125 C 8.78125 -4.742188 8.789062 -4.519531 8.8125 -4.40625 C 8.84375 -4.101562 8.878906 -3.914062 8.921875 -3.84375 C 9.035156 -3.78125 9.703125 -3.816406 10.921875 -3.953125 C 11.242188 -4.003906 11.5625 -4.035156 11.875 -4.046875 C 12.195312 -4.054688 12.519531 -4.070312 12.84375 -4.09375 L 13.9375 -4.203125 L 13.96875 -4.3125 C 14.007812 -4.46875 14.066406 -4.660156 14.140625 -4.890625 C 14.210938 -5.128906 14.269531 -5.398438 14.3125 -5.703125 C 14.382812 -6.023438 14.425781 -6.421875 14.4375 -6.890625 C 14.445312 -7.359375 14.429688 -7.707031 14.390625 -7.9375 C 14.203125 -8.476562 13.882812 -8.796875 13.4375 -8.890625 Z M 13.4375 -8.890625 " />
      </g>
    </g>
  </g>
  <g fill="#1caf55" fill-opacity="1">
    <g transform="translate(100.815856, 233.374161)">
      <g>
        <path d="M 10.953125 -21.53125 C 11.097656 -21.570312 11.472656 -21.570312 12.078125 -21.53125 C 12.359375 -21.5 12.597656 -21.484375 12.796875 -21.484375 C 12.992188 -21.484375 13.140625 -21.472656 13.234375 -21.453125 C 14.023438 -21.359375 14.710938 -21.21875 15.296875 -21.03125 C 15.878906 -20.84375 16.398438 -20.59375 16.859375 -20.28125 C 17.328125 -19.96875 17.753906 -19.570312 18.140625 -19.09375 C 18.523438 -18.613281 18.90625 -18.035156 19.28125 -17.359375 C 19.46875 -16.960938 19.613281 -16.582031 19.71875 -16.21875 C 19.820312 -15.863281 19.921875 -15.566406 20.015625 -15.328125 C 20.460938 -13.898438 20.6875 -12.46875 20.6875 -11.03125 C 20.6875 -10.1875 20.601562 -9.367188 20.4375 -8.578125 C 20.34375 -7.898438 20.234375 -7.238281 20.109375 -6.59375 C 19.984375 -5.957031 19.753906 -5.332031 19.421875 -4.71875 C 18.953125 -3.789062 18.394531 -3.007812 17.75 -2.375 C 17.113281 -1.75 16.40625 -1.242188 15.625 -0.859375 C 14.84375 -0.472656 13.992188 -0.203125 13.078125 -0.046875 C 12.171875 0.0976562 11.21875 0.171875 10.21875 0.171875 C 8.769531 0.171875 7.582031 -0.0625 6.65625 -0.53125 C 5.226562 -1.25 4.132812 -2.210938 3.375 -3.421875 C 2.613281 -4.640625 2.09375 -6.019531 1.8125 -7.5625 C 1.539062 -9.007812 1.421875 -10.390625 1.453125 -11.703125 C 1.484375 -13.023438 1.648438 -14.28125 1.953125 -15.46875 C 2.285156 -16.59375 2.707031 -17.523438 3.21875 -18.265625 C 3.726562 -19.015625 4.335938 -19.613281 5.046875 -20.0625 C 5.765625 -20.519531 6.570312 -20.859375 7.46875 -21.078125 C 8.363281 -21.304688 9.351562 -21.441406 10.4375 -21.484375 C 10.5 -21.484375 10.59375 -21.488281 10.71875 -21.5 C 10.851562 -21.519531 10.929688 -21.53125 10.953125 -21.53125 Z M 14.5625 -20.609375 C 14.375 -20.609375 14.195312 -20.53125 14.03125 -20.375 C 13.914062 -20.207031 13.90625 -19.992188 14 -19.734375 C 14.09375 -19.484375 14.316406 -19.285156 14.671875 -19.140625 C 15.597656 -18.742188 16.191406 -18.546875 16.453125 -18.546875 C 16.566406 -18.597656 16.632812 -18.671875 16.65625 -18.765625 C 16.726562 -18.878906 16.765625 -18.953125 16.765625 -18.984375 C 16.765625 -19.023438 16.601562 -19.207031 16.28125 -19.53125 C 16.207031 -19.601562 16.097656 -19.703125 15.953125 -19.828125 C 15.816406 -19.953125 15.664062 -20.070312 15.5 -20.1875 C 15.34375 -20.3125 15.179688 -20.410156 15.015625 -20.484375 C 14.847656 -20.566406 14.695312 -20.609375 14.5625 -20.609375 Z M 11.96875 -17.296875 C 11.613281 -17.359375 11.359375 -17.359375 11.203125 -17.296875 C 10.285156 -17.171875 9.609375 -16.863281 9.171875 -16.375 C 8.890625 -16.09375 8.65625 -15.679688 8.46875 -15.140625 C 8.28125 -14.609375 8.140625 -13.972656 8.046875 -13.234375 C 8.023438 -13.066406 8.015625 -12.816406 8.015625 -12.484375 C 8.015625 -12.160156 8.015625 -11.734375 8.015625 -11.203125 C 8.015625 -10.171875 8.03125 -9.285156 8.0625 -8.546875 C 8.101562 -7.816406 8.191406 -7.21875 8.328125 -6.75 C 8.585938 -5.9375 8.894531 -5.332031 9.25 -4.9375 C 9.613281 -4.539062 10.113281 -4.304688 10.75 -4.234375 C 11.394531 -4.191406 11.988281 -4.296875 12.53125 -4.546875 C 12.925781 -4.734375 13.242188 -5.023438 13.484375 -5.421875 C 13.734375 -5.816406 13.925781 -6.34375 14.0625 -7 C 14.488281 -8.820312 14.703125 -10.609375 14.703125 -12.359375 C 14.703125 -12.847656 14.671875 -13.363281 14.609375 -13.90625 C 14.554688 -14.457031 14.429688 -14.972656 14.234375 -15.453125 C 14.035156 -15.929688 13.757812 -16.335938 13.40625 -16.671875 C 13.050781 -17.015625 12.570312 -17.222656 11.96875 -17.296875 Z M 11.96875 -17.296875 " />
      </g>
    </g>
  </g>
  <g fill="#1caf55" fill-opacity="1">
    <g transform="translate(130.45576, 233.374161)">
      <g>
        <path d="M 10.953125 -21.53125 C 11.097656 -21.570312 11.472656 -21.570312 12.078125 -21.53125 C 12.359375 -21.5 12.597656 -21.484375 12.796875 -21.484375 C 12.992188 -21.484375 13.140625 -21.472656 13.234375 -21.453125 C 14.023438 -21.359375 14.710938 -21.21875 15.296875 -21.03125 C 15.878906 -20.84375 16.398438 -20.59375 16.859375 -20.28125 C 17.328125 -19.96875 17.753906 -19.570312 18.140625 -19.09375 C 18.523438 -18.613281 18.90625 -18.035156 19.28125 -17.359375 C 19.46875 -16.960938 19.613281 -16.582031 19.71875 -16.21875 C 19.820312 -15.863281 19.921875 -15.566406 20.015625 -15.328125 C 20.460938 -13.898438 20.6875 -12.46875 20.6875 -11.03125 C 20.6875 -10.1875 20.601562 -9.367188 20.4375 -8.578125 C 20.34375 -7.898438 20.234375 -7.238281 20.109375 -6.59375 C 19.984375 -5.957031 19.753906 -5.332031 19.421875 -4.71875 C 18.953125 -3.789062 18.394531 -3.007812 17.75 -2.375 C 17.113281 -1.75 16.40625 -1.242188 15.625 -0.859375 C 14.84375 -0.472656 13.992188 -0.203125 13.078125 -0.046875 C 12.171875 0.0976562 11.21875 0.171875 10.21875 0.171875 C 8.769531 0.171875 7.582031 -0.0625 6.65625 -0.53125 C 5.226562 -1.25 4.132812 -2.210938 3.375 -3.421875 C 2.613281 -4.640625 2.09375 -6.019531 1.8125 -7.5625 C 1.539062 -9.007812 1.421875 -10.390625 1.453125 -11.703125 C 1.484375 -13.023438 1.648438 -14.28125 1.953125 -15.46875 C 2.285156 -16.59375 2.707031 -17.523438 3.21875 -18.265625 C 3.726562 -19.015625 4.335938 -19.613281 5.046875 -20.0625 C 5.765625 -20.519531 6.570312 -20.859375 7.46875 -21.078125 C 8.363281 -21.304688 9.351562 -21.441406 10.4375 -21.484375 C 10.5 -21.484375 10.59375 -21.488281 10.71875 -21.5 C 10.851562 -21.519531 10.929688 -21.53125 10.953125 -21.53125 Z M 14.5625 -20.609375 C 14.375 -20.609375 14.195312 -20.53125 14.03125 -20.375 C 13.914062 -20.207031 13.90625 -19.992188 14 -19.734375 C 14.09375 -19.484375 14.316406 -19.285156 14.671875 -19.140625 C 15.597656 -18.742188 16.191406 -18.546875 16.453125 -18.546875 C 16.566406 -18.597656 16.632812 -18.671875 16.65625 -18.765625 C 16.726562 -18.878906 16.765625 -18.953125 16.765625 -18.984375 C 16.765625 -19.023438 16.601562 -19.207031 16.28125 -19.53125 C 16.207031 -19.601562 16.097656 -19.703125 15.953125 -19.828125 C 15.816406 -19.953125 15.664062 -20.070312 15.5 -20.1875 C 15.34375 -20.3125 15.179688 -20.410156 15.015625 -20.484375 C 14.847656 -20.566406 14.695312 -20.609375 14.5625 -20.609375 Z M 11.96875 -17.296875 C 11.613281 -17.359375 11.359375 -17.359375 11.203125 -17.296875 C 10.285156 -17.171875 9.609375 -16.863281 9.171875 -16.375 C 8.890625 -16.09375 8.65625 -15.679688 8.46875 -15.140625 C 8.28125 -14.609375 8.140625 -13.972656 8.046875 -13.234375 C 8.023438 -13.066406 8.015625 -12.816406 8.015625 -12.484375 C 8.015625 -12.160156 8.015625 -11.734375 8.015625 -11.203125 C 8.015625 -10.171875 8.03125 -9.285156 8.0625 -8.546875 C 8.101562 -7.816406 8.191406 -7.21875 8.328125 -6.75 C 8.585938 -5.9375 8.894531 -5.332031 9.25 -4.9375 C 9.613281 -4.539062 10.113281 -4.304688 10.75 -4.234375 C 11.394531 -4.191406 11.988281 -4.296875 12.53125 -4.546875 C 12.925781 -4.734375 13.242188 -5.023438 13.484375 -5.421875 C 13.734375 -5.816406 13.925781 -6.34375 14.0625 -7 C 14.488281 -8.820312 14.703125 -10.609375 14.703125 -12.359375 C 14.703125 -12.847656 14.671875 -13.363281 14.609375 -13.90625 C 14.554688 -14.457031 14.429688 -14.972656 14.234375 -15.453125 C 14.035156 -15.929688 13.757812 -16.335938 13.40625 -16.671875 C 13.050781 -17.015625 12.570312 -17.222656 11.96875 -17.296875 Z M 11.96875 -17.296875 " />
      </g>
    </g>
  </g>
  <g fill="#000000" fill-opacity="1">
    <g transform="translate(160.096345, 233.374161)">
      <g>
        <path d="M 4.71875 -21.421875 C 4.84375 -21.441406 5.003906 -21.453125 5.203125 -21.453125 C 5.398438 -21.453125 5.660156 -21.453125 5.984375 -21.453125 C 6.304688 -21.429688 6.5625 -21.421875 6.75 -21.421875 C 6.9375 -21.421875 7.085938 -21.410156 7.203125 -21.390625 C 8.421875 -21.148438 9.132812 -20.71875 9.34375 -20.09375 C 9.394531 -19.976562 9.421875 -19.804688 9.421875 -19.578125 C 9.421875 -19.359375 9.429688 -19.0625 9.453125 -18.6875 C 9.472656 -18.363281 9.484375 -17.816406 9.484375 -17.046875 C 9.484375 -16.273438 9.472656 -15.175781 9.453125 -13.75 C 9.429688 -12.351562 9.421875 -11.226562 9.421875 -10.375 C 9.421875 -9.519531 9.40625 -8.929688 9.375 -8.609375 C 9.351562 -8.378906 9.34375 -8.132812 9.34375 -7.875 C 9.34375 -7.613281 9.332031 -7.332031 9.3125 -7.03125 C 9.3125 -6.425781 9.382812 -5.925781 9.53125 -5.53125 C 9.6875 -5.132812 10.101562 -4.878906 10.78125 -4.765625 C 10.894531 -4.734375 11.148438 -4.707031 11.546875 -4.6875 C 11.941406 -4.664062 12.476562 -4.65625 13.15625 -4.65625 C 13.945312 -4.65625 14.648438 -4.675781 15.265625 -4.71875 C 15.890625 -4.769531 16.410156 -4.832031 16.828125 -4.90625 C 17.066406 -4.945312 17.265625 -4.976562 17.421875 -5 C 17.585938 -5.03125 17.71875 -5.046875 17.8125 -5.046875 C 18.394531 -5.085938 18.84375 -4.925781 19.15625 -4.5625 C 19.476562 -4.207031 19.613281 -3.703125 19.5625 -3.046875 C 19.519531 -2.109375 19.253906 -1.523438 18.765625 -1.296875 C 18.109375 -0.941406 16.953125 -0.601562 15.296875 -0.28125 C 13.921875 0 12.132812 0.113281 9.9375 0.0625 C 9.40625 0.0625 8.96875 0.0625 8.625 0.0625 C 8.289062 0.0625 8.0625 0.0507812 7.9375 0.03125 C 7.332031 -0.03125 6.710938 -0.144531 6.078125 -0.3125 C 5.453125 -0.476562 4.875 -0.675781 4.34375 -0.90625 C 3.382812 -1.425781 2.753906 -2.253906 2.453125 -3.390625 C 2.265625 -4.003906 2.140625 -4.691406 2.078125 -5.453125 C 2.023438 -6.222656 2.03125 -7.050781 2.09375 -7.9375 C 2.125 -8.082031 2.140625 -8.257812 2.140625 -8.46875 C 2.140625 -8.675781 2.148438 -8.945312 2.171875 -9.28125 C 2.171875 -9.320312 2.175781 -9.414062 2.1875 -9.5625 C 2.195312 -9.71875 2.210938 -9.882812 2.234375 -10.0625 C 2.265625 -10.238281 2.285156 -10.410156 2.296875 -10.578125 C 2.304688 -10.753906 2.3125 -10.914062 2.3125 -11.0625 C 2.351562 -11.96875 2.390625 -12.828125 2.421875 -13.640625 C 2.460938 -14.460938 2.492188 -15.351562 2.515625 -16.3125 C 2.566406 -17.0625 2.601562 -17.695312 2.625 -18.21875 C 2.644531 -18.738281 2.679688 -19.164062 2.734375 -19.5 C 2.773438 -19.78125 2.820312 -20.007812 2.875 -20.1875 C 2.9375 -20.375 2.992188 -20.53125 3.046875 -20.65625 C 3.253906 -21.019531 3.8125 -21.273438 4.71875 -21.421875 Z M 7.34375 -20.546875 C 6.976562 -20.679688 6.65625 -20.65625 6.375 -20.46875 L 6.125 -20.375 L 6.125 -20.125 C 6.144531 -19.84375 6.238281 -19.632812 6.40625 -19.5 C 6.570312 -19.375 6.851562 -19.300781 7.25 -19.28125 L 7.765625 -19.28125 C 7.859375 -19.238281 7.929688 -19.265625 7.984375 -19.359375 C 8.078125 -19.546875 8.078125 -19.742188 7.984375 -19.953125 C 7.910156 -20.066406 7.832031 -20.171875 7.75 -20.265625 C 7.664062 -20.359375 7.53125 -20.453125 7.34375 -20.546875 Z M 7.34375 -20.546875 " />
      </g>
    </g>
  </g>
  <g fill="#1caf55" fill-opacity="1">
    <g transform="translate(188.022124, 233.374161)">
      <g>
        <path d="M 5.953125 -22.078125 C 6.742188 -22.171875 7.476562 -22.054688 8.15625 -21.734375 C 8.738281 -21.429688 9.078125 -20.988281 9.171875 -20.40625 C 9.285156 -19.957031 9.367188 -18.71875 9.421875 -16.6875 C 9.421875 -15.0625 9.429688 -14.210938 9.453125 -14.140625 C 9.546875 -13.878906 9.738281 -13.664062 10.03125 -13.5 C 10.320312 -13.34375 10.835938 -13.3125 11.578125 -13.40625 C 12.140625 -13.445312 12.632812 -13.484375 13.0625 -13.515625 C 13.664062 -13.554688 14.144531 -13.585938 14.5 -13.609375 C 14.863281 -13.640625 15.101562 -13.664062 15.21875 -13.6875 C 15.34375 -13.707031 15.566406 -13.734375 15.890625 -13.765625 C 16.210938 -13.804688 16.644531 -13.863281 17.1875 -13.9375 C 18.019531 -14 18.597656 -13.878906 18.921875 -13.578125 C 19.253906 -13.273438 19.445312 -12.765625 19.5 -12.046875 C 19.5 -11.367188 19.378906 -10.910156 19.140625 -10.671875 C 18.910156 -10.441406 18.503906 -10.222656 17.921875 -10.015625 C 16.640625 -9.660156 15.304688 -9.363281 13.921875 -9.125 C 12.546875 -8.894531 11.195312 -8.703125 9.875 -8.546875 L 9.59375 -8.5 L 9.59375 -4.9375 L 9.90625 -4.9375 C 10.695312 -4.9375 11.488281 -4.953125 12.28125 -4.984375 C 13.070312 -5.023438 13.867188 -5.066406 14.671875 -5.109375 C 15.273438 -5.203125 15.894531 -5.253906 16.53125 -5.265625 C 17.175781 -5.273438 17.800781 -5.316406 18.40625 -5.390625 C 18.570312 -5.410156 18.722656 -5.421875 18.859375 -5.421875 C 19.003906 -5.421875 19.132812 -5.421875 19.25 -5.421875 C 19.476562 -5.421875 19.675781 -5.382812 19.84375 -5.3125 C 20.519531 -4.96875 20.847656 -4.257812 20.828125 -3.1875 C 20.773438 -2.644531 20.644531 -2.203125 20.4375 -1.859375 C 20.226562 -1.523438 19.957031 -1.253906 19.625 -1.046875 C 19.300781 -0.835938 18.929688 -0.679688 18.515625 -0.578125 C 18.097656 -0.472656 17.65625 -0.382812 17.1875 -0.3125 C 16.320312 -0.175781 15.503906 -0.0703125 14.734375 0 C 13.960938 0.0703125 13.226562 0.128906 12.53125 0.171875 C 12.175781 0.191406 11.851562 0.203125 11.5625 0.203125 C 11.269531 0.203125 11 0.21875 10.75 0.25 C 8.90625 0.363281 7.1875 0.28125 5.59375 0 C 4.457031 -0.226562 3.644531 -0.492188 3.15625 -0.796875 C 2.664062 -1.109375 2.335938 -1.554688 2.171875 -2.140625 C 2.117188 -2.367188 2.082031 -2.722656 2.0625 -3.203125 C 2.039062 -3.679688 2.050781 -4.296875 2.09375 -5.046875 C 2.144531 -6.117188 2.203125 -7.179688 2.265625 -8.234375 C 2.335938 -9.296875 2.421875 -10.363281 2.515625 -11.4375 C 2.585938 -12.019531 2.640625 -12.554688 2.671875 -13.046875 C 2.710938 -13.546875 2.742188 -14.003906 2.765625 -14.421875 C 2.804688 -14.765625 2.835938 -15.160156 2.859375 -15.609375 C 2.890625 -16.054688 2.925781 -16.523438 2.96875 -17.015625 C 2.96875 -17.523438 2.988281 -18.039062 3.03125 -18.5625 C 3.082031 -19.09375 3.144531 -19.613281 3.21875 -20.125 C 3.3125 -20.894531 3.648438 -21.410156 4.234375 -21.671875 C 4.492188 -21.804688 4.769531 -21.898438 5.0625 -21.953125 C 5.351562 -22.015625 5.648438 -22.054688 5.953125 -22.078125 Z M 13.9375 -21.703125 C 14.1875 -21.722656 14.484375 -21.734375 14.828125 -21.734375 C 15.179688 -21.734375 15.601562 -21.734375 16.09375 -21.734375 C 16.5625 -21.734375 16.960938 -21.734375 17.296875 -21.734375 C 17.640625 -21.734375 17.914062 -21.722656 18.125 -21.703125 C 18.570312 -21.679688 19.003906 -21.585938 19.421875 -21.421875 C 19.847656 -21.253906 20.117188 -20.925781 20.234375 -20.4375 C 20.367188 -19.925781 20.34375 -19.351562 20.15625 -18.71875 C 20.019531 -18.1875 19.800781 -17.773438 19.5 -17.484375 C 19.195312 -17.191406 18.738281 -16.960938 18.125 -16.796875 C 17.570312 -16.660156 16.988281 -16.550781 16.375 -16.46875 C 15.769531 -16.382812 15.128906 -16.34375 14.453125 -16.34375 C 14.171875 -16.34375 13.835938 -16.347656 13.453125 -16.359375 C 13.066406 -16.367188 12.671875 -16.40625 12.265625 -16.46875 C 11.859375 -16.53125 11.476562 -16.617188 11.125 -16.734375 C 10.78125 -16.847656 10.503906 -17.007812 10.296875 -17.21875 C 9.984375 -17.59375 9.84375 -18.175781 9.875 -18.96875 C 9.914062 -19.78125 9.992188 -20.304688 10.109375 -20.546875 C 10.296875 -20.960938 10.71875 -21.238281 11.375 -21.375 C 12.03125 -21.519531 12.882812 -21.628906 13.9375 -21.703125 Z M 18.515625 -21.140625 C 18.421875 -21.179688 18.234375 -21.203125 17.953125 -21.203125 C 17.328125 -21.203125 16.988281 -21.097656 16.9375 -20.890625 C 16.9375 -20.773438 16.941406 -20.6875 16.953125 -20.625 C 16.960938 -20.570312 16.984375 -20.519531 17.015625 -20.46875 C 17.148438 -20.40625 17.5 -20.375 18.0625 -20.375 C 18.3125 -20.34375 18.472656 -20.363281 18.546875 -20.4375 C 18.597656 -20.53125 18.640625 -20.613281 18.671875 -20.6875 C 18.703125 -20.757812 18.707031 -20.84375 18.6875 -20.9375 C 18.644531 -20.976562 18.613281 -21.015625 18.59375 -21.046875 C 18.582031 -21.085938 18.554688 -21.117188 18.515625 -21.140625 Z M 7.59375 -20.9375 C 7.5 -20.976562 7.394531 -21 7.28125 -21 C 7.09375 -21 6.945312 -20.929688 6.84375 -20.796875 C 6.738281 -20.671875 6.8125 -20.46875 7.0625 -20.1875 C 7.320312 -19.882812 7.582031 -19.757812 7.84375 -19.8125 C 7.976562 -19.851562 8.070312 -19.9375 8.125 -20.0625 C 8.1875 -20.195312 8.171875 -20.332031 8.078125 -20.46875 C 8.015625 -20.65625 7.851562 -20.8125 7.59375 -20.9375 Z M 7.59375 -20.9375 " />
      </g>
    </g>
  </g>
  <g fill="#1caf55" fill-opacity="1">
    <g transform="translate(217.592048, 233.374161)">
      <g>
        <path d="M 11.234375 -21.734375 C 11.835938 -21.828125 12.757812 -21.570312 14 -20.96875 C 15.125 -20.425781 15.765625 -19.875 15.921875 -19.3125 C 15.992188 -19.132812 16.019531 -18.8125 16 -18.34375 C 15.945312 -18.082031 15.921875 -17.859375 15.921875 -17.671875 C 15.921875 -17.484375 15.921875 -17.332031 15.921875 -17.21875 L 15.921875 -16.828125 L 16.171875 -16.484375 C 16.453125 -16.109375 16.734375 -15.695312 17.015625 -15.25 C 17.296875 -14.8125 17.585938 -14.328125 17.890625 -13.796875 C 18.140625 -13.328125 18.394531 -12.847656 18.65625 -12.359375 C 18.914062 -11.867188 19.148438 -11.378906 19.359375 -10.890625 C 19.472656 -10.671875 19.582031 -10.453125 19.6875 -10.234375 C 19.789062 -10.015625 19.898438 -9.789062 20.015625 -9.5625 C 20.253906 -9.039062 20.5 -8.503906 20.75 -7.953125 C 21.007812 -7.410156 21.269531 -6.835938 21.53125 -6.234375 C 21.875 -5.441406 22.171875 -4.695312 22.421875 -4 C 22.679688 -3.3125 22.882812 -2.691406 23.03125 -2.140625 C 23.144531 -1.578125 23.132812 -1.132812 23 -0.8125 C 22.789062 -0.34375 22.332031 -0.00390625 21.625 0.203125 C 21.4375 0.234375 21.226562 0.257812 21 0.28125 C 20.769531 0.300781 20.476562 0.3125 20.125 0.3125 C 19.769531 0.332031 19.492188 0.335938 19.296875 0.328125 C 19.097656 0.316406 18.941406 0.289062 18.828125 0.25 C 18.660156 0.175781 18.484375 0.0390625 18.296875 -0.15625 C 18.117188 -0.351562 17.9375 -0.640625 17.75 -1.015625 C 17.488281 -1.546875 17.15625 -2.296875 16.75 -3.265625 C 16.34375 -4.234375 15.847656 -5.457031 15.265625 -6.9375 L 15.125 -7.171875 L 15.125 -6.65625 C 15.125 -6.488281 15.125 -6.304688 15.125 -6.109375 C 15.125 -5.910156 15.109375 -5.71875 15.078125 -5.53125 L 15.078125 -4.90625 L 14.84375 -4.65625 C 14.394531 -4.257812 13.820312 -4.0625 13.125 -4.0625 C 12.894531 -4.0625 12.617188 -4.035156 12.296875 -3.984375 C 11.984375 -3.941406 11.535156 -3.921875 10.953125 -3.921875 C 10.296875 -3.921875 9.9375 -3.894531 9.875 -3.84375 C 9.800781 -3.820312 9.726562 -3.785156 9.65625 -3.734375 C 9.59375 -3.691406 9.519531 -3.617188 9.4375 -3.515625 C 9.351562 -3.410156 9.257812 -3.265625 9.15625 -3.078125 C 9.050781 -2.890625 8.914062 -2.644531 8.75 -2.34375 C 8.425781 -1.78125 8.15625 -1.320312 7.9375 -0.96875 C 7.726562 -0.625 7.519531 -0.382812 7.3125 -0.25 C 6.875 0.125 6.234375 0.3125 5.390625 0.3125 C 4.316406 0.3125 3.328125 0.0664062 2.421875 -0.421875 C 1.597656 -0.835938 1.09375 -1.394531 0.90625 -2.09375 C 0.84375 -2.539062 0.890625 -3.09375 1.046875 -3.75 C 1.160156 -4.164062 1.441406 -4.867188 1.890625 -5.859375 C 2.335938 -6.847656 2.96875 -8.148438 3.78125 -9.765625 C 4.0625 -10.347656 4.316406 -10.875 4.546875 -11.34375 C 4.785156 -11.8125 5 -12.226562 5.1875 -12.59375 C 5.53125 -13.300781 5.828125 -13.90625 6.078125 -14.40625 C 6.335938 -14.90625 6.550781 -15.304688 6.71875 -15.609375 C 7.300781 -16.703125 7.828125 -17.644531 8.296875 -18.4375 C 8.765625 -19.238281 9.160156 -19.882812 9.484375 -20.375 C 9.691406 -20.675781 9.898438 -20.921875 10.109375 -21.109375 C 10.328125 -21.296875 10.523438 -21.4375 10.703125 -21.53125 C 10.890625 -21.644531 11.066406 -21.710938 11.234375 -21.734375 Z M 12.5625 -20.71875 C 12.375 -20.882812 12.140625 -20.894531 11.859375 -20.75 C 11.515625 -20.59375 11.195312 -20.34375 10.90625 -20 C 10.613281 -19.664062 10.46875 -19.347656 10.46875 -19.046875 C 10.46875 -18.503906 10.65625 -18.234375 11.03125 -18.234375 C 11.257812 -18.234375 11.523438 -18.410156 11.828125 -18.765625 C 12.085938 -19.015625 12.375 -19.238281 12.6875 -19.4375 C 13 -19.632812 13.15625 -19.75 13.15625 -19.78125 C 13.175781 -19.875 13.070312 -20.09375 12.84375 -20.4375 C 12.769531 -20.550781 12.675781 -20.644531 12.5625 -20.71875 Z M 13.75 -11.03125 C 13.613281 -11.375 13.519531 -11.546875 13.46875 -11.546875 C 13.445312 -11.566406 13.375 -11.507812 13.25 -11.375 C 13.125 -11.238281 13.015625 -11.085938 12.921875 -10.921875 C 12.796875 -10.734375 12.679688 -10.503906 12.578125 -10.234375 C 12.472656 -9.960938 12.34375 -9.664062 12.1875 -9.34375 C 11.90625 -8.644531 11.765625 -8.210938 11.765625 -8.046875 L 11.71875 -7.84375 L 11.859375 -7.8125 C 12.023438 -7.78125 12.34375 -7.78125 12.8125 -7.8125 C 13.09375 -7.8125 13.351562 -7.8125 13.59375 -7.8125 C 13.84375 -7.8125 14.0625 -7.796875 14.25 -7.765625 C 14.363281 -7.765625 14.46875 -7.757812 14.5625 -7.75 C 14.65625 -7.738281 14.722656 -7.734375 14.765625 -7.734375 C 14.835938 -7.734375 14.894531 -7.734375 14.9375 -7.734375 C 14.96875 -7.753906 14.890625 -8.09375 14.703125 -8.75 C 14.515625 -9.40625 14.195312 -10.164062 13.75 -11.03125 Z M 13.75 -11.03125 " />
      </g>
    </g>
  </g>
  <g fill="#1caf55" fill-opacity="1">
    <g transform="translate(248.806602, 233.374161)">
      <g>
        <path d="M 4.796875 -21.53125 C 4.984375 -21.550781 5.15625 -21.566406 5.3125 -21.578125 C 5.476562 -21.585938 5.632812 -21.59375 5.78125 -21.59375 C 6.101562 -21.59375 6.367188 -21.554688 6.578125 -21.484375 C 6.953125 -21.421875 7.289062 -21.257812 7.59375 -21 C 7.738281 -20.90625 7.863281 -20.773438 7.96875 -20.609375 C 8.070312 -20.453125 8.171875 -20.28125 8.265625 -20.09375 C 8.359375 -19.832031 8.40625 -18.476562 8.40625 -16.03125 C 8.375 -14.957031 8.363281 -14.144531 8.375 -13.59375 C 8.394531 -13.050781 8.414062 -12.734375 8.4375 -12.640625 C 8.570312 -12.117188 8.828125 -11.835938 9.203125 -11.796875 C 9.316406 -11.773438 9.503906 -11.773438 9.765625 -11.796875 C 10.023438 -11.835938 10.265625 -11.863281 10.484375 -11.875 C 10.703125 -11.894531 10.894531 -11.925781 11.0625 -11.96875 C 12.082031 -12.0625 12.804688 -12.171875 13.234375 -12.296875 C 13.671875 -12.429688 14.007812 -12.625 14.25 -12.875 C 14.59375 -13.226562 14.765625 -13.875 14.765625 -14.8125 C 14.765625 -15.695312 14.609375 -16.394531 14.296875 -16.90625 C 13.984375 -17.414062 13.347656 -17.671875 12.390625 -17.671875 C 11.941406 -17.671875 11.519531 -17.625 11.125 -17.53125 C 10.78125 -17.46875 10.421875 -17.503906 10.046875 -17.640625 C 9.878906 -17.679688 9.710938 -17.796875 9.546875 -17.984375 C 9.390625 -18.171875 9.265625 -18.320312 9.171875 -18.4375 C 9.023438 -18.769531 8.96875 -19.160156 9 -19.609375 C 9.039062 -20.066406 9.179688 -20.425781 9.421875 -20.6875 C 9.460938 -20.800781 9.65625 -20.890625 10 -20.953125 C 10.351562 -21.023438 10.742188 -21.09375 11.171875 -21.15625 C 11.609375 -21.21875 12.03125 -21.257812 12.4375 -21.28125 C 12.851562 -21.300781 13.140625 -21.3125 13.296875 -21.3125 C 14.085938 -21.3125 14.90625 -21.234375 15.75 -21.078125 C 16.59375 -20.929688 17.351562 -20.648438 18.03125 -20.234375 C 18.9375 -19.765625 19.585938 -18.804688 19.984375 -17.359375 C 20.703125 -14.890625 20.421875 -12.835938 19.140625 -11.203125 C 18.816406 -10.804688 18.40625 -10.363281 17.90625 -9.875 C 17.40625 -9.382812 16.921875 -9.019531 16.453125 -8.78125 L 16.34375 -8.609375 L 16.421875 -8.328125 C 16.597656 -7.929688 16.890625 -7.476562 17.296875 -6.96875 C 17.429688 -6.800781 17.648438 -6.515625 17.953125 -6.109375 C 18.253906 -5.703125 18.5625 -5.269531 18.875 -4.8125 C 19.195312 -4.351562 19.488281 -3.914062 19.75 -3.5 C 20.019531 -3.082031 20.179688 -2.78125 20.234375 -2.59375 C 20.367188 -2.144531 20.351562 -1.757812 20.1875 -1.4375 C 20.070312 -1.25 19.828125 -0.988281 19.453125 -0.65625 C 19.085938 -0.332031 18.726562 -0.0546875 18.375 0.171875 C 18 0.378906 17.554688 0.507812 17.046875 0.5625 C 16.898438 0.5625 16.78125 0.554688 16.6875 0.546875 C 16.601562 0.535156 16.523438 0.515625 16.453125 0.484375 C 16.078125 0.347656 15.628906 -0.0507812 15.109375 -0.71875 C 14.597656 -1.382812 14.097656 -2.132812 13.609375 -2.96875 C 13.117188 -3.8125 12.675781 -4.632812 12.28125 -5.4375 C 11.882812 -6.25 11.59375 -6.851562 11.40625 -7.25 C 11.269531 -7.570312 11.15625 -7.773438 11.0625 -7.859375 C 10.96875 -7.941406 10.757812 -7.992188 10.4375 -8.015625 C 10.007812 -8.035156 9.5625 -8.007812 9.09375 -7.9375 C 8.9375 -7.875 8.800781 -7.738281 8.6875 -7.53125 C 8.632812 -7.382812 8.617188 -7.21875 8.640625 -7.03125 C 8.671875 -6.425781 8.675781 -5.875 8.65625 -5.375 C 8.644531 -4.875 8.617188 -4.425781 8.578125 -4.03125 C 8.554688 -3.90625 8.53125 -3.707031 8.5 -3.4375 C 8.476562 -3.175781 8.445312 -2.835938 8.40625 -2.421875 C 8.351562 -1.953125 8.296875 -1.550781 8.234375 -1.21875 C 8.179688 -0.894531 8.128906 -0.664062 8.078125 -0.53125 C 8.015625 -0.363281 7.9375 -0.226562 7.84375 -0.125 C 7.75 -0.0195312 7.617188 0.0664062 7.453125 0.140625 C 7.285156 0.210938 7.066406 0.265625 6.796875 0.296875 C 6.535156 0.328125 6.195312 0.34375 5.78125 0.34375 C 5.101562 0.34375 4.535156 0.300781 4.078125 0.21875 C 3.617188 0.144531 3.265625 0.015625 3.015625 -0.171875 C 2.847656 -0.265625 2.707031 -0.375 2.59375 -0.5 C 2.476562 -0.632812 2.375 -0.757812 2.28125 -0.875 C 2.15625 -1.15625 2.09375 -1.425781 2.09375 -1.6875 C 2.050781 -1.820312 2.03125 -2.1875 2.03125 -2.78125 C 2.03125 -3.375 2.03125 -4.128906 2.03125 -5.046875 C 2.03125 -8.378906 2.039062 -11.035156 2.0625 -13.015625 C 2.082031 -15.003906 2.117188 -16.320312 2.171875 -16.96875 C 2.191406 -17.34375 2.203125 -17.644531 2.203125 -17.875 C 2.203125 -18.113281 2.203125 -18.289062 2.203125 -18.40625 C 2.203125 -19.78125 2.578125 -20.703125 3.328125 -21.171875 C 3.578125 -21.359375 4.066406 -21.476562 4.796875 -21.53125 Z M 16.375 -20.40625 C 15.726562 -20.539062 15.40625 -20.410156 15.40625 -20.015625 C 15.40625 -19.859375 15.507812 -19.695312 15.71875 -19.53125 C 16.09375 -19.269531 16.582031 -19.109375 17.1875 -19.046875 C 17.582031 -18.992188 17.847656 -19.023438 17.984375 -19.140625 L 18.0625 -19.25 L 17.984375 -19.359375 C 17.847656 -19.546875 17.597656 -19.753906 17.234375 -19.984375 C 16.867188 -20.210938 16.582031 -20.351562 16.375 -20.40625 Z M 6.546875 -20.65625 C 6.171875 -20.84375 5.898438 -20.898438 5.734375 -20.828125 C 5.617188 -20.734375 5.539062 -20.640625 5.5 -20.546875 C 5.46875 -20.453125 5.441406 -20.347656 5.421875 -20.234375 C 5.398438 -20.085938 5.453125 -19.96875 5.578125 -19.875 C 5.710938 -19.78125 5.90625 -19.675781 6.15625 -19.5625 C 6.507812 -19.394531 6.789062 -19.335938 7 -19.390625 C 7.207031 -19.484375 7.3125 -19.632812 7.3125 -19.84375 C 7.3125 -20.144531 7.054688 -20.414062 6.546875 -20.65625 Z M 6.546875 -20.65625 " />
      </g>
    </g>
  </g>
  <g fill="#1caf55" fill-opacity="1">
    <g transform="translate(278.236553, 233.374161)">
      <g>
        <path d="M 8.046875 -20.4375 C 7.929688 -20.457031 7.84375 -20.476562 7.78125 -20.5 C 7.726562 -20.53125 7.664062 -20.519531 7.59375 -20.46875 C 7.40625 -20.445312 7.28125 -20.382812 7.21875 -20.28125 C 7.164062 -20.175781 7.140625 -20.054688 7.140625 -19.921875 C 7.140625 -19.773438 7.210938 -19.632812 7.359375 -19.5 C 7.515625 -19.375 7.691406 -19.257812 7.890625 -19.15625 C 8.085938 -19.050781 8.285156 -18.960938 8.484375 -18.890625 C 8.679688 -18.828125 8.835938 -18.796875 8.953125 -18.796875 C 9.023438 -18.796875 9.101562 -18.804688 9.1875 -18.828125 C 9.269531 -18.847656 9.332031 -18.921875 9.375 -19.046875 L 9.453125 -19.109375 L 9.09375 -19.5 C 8.769531 -19.820312 8.5625 -20.046875 8.46875 -20.171875 C 8.375 -20.304688 8.234375 -20.394531 8.046875 -20.4375 Z M 5.640625 -21.484375 C 5.753906 -21.515625 5.859375 -21.53125 5.953125 -21.53125 C 6.046875 -21.53125 6.113281 -21.53125 6.15625 -21.53125 C 7.019531 -21.550781 7.835938 -21.429688 8.609375 -21.171875 C 9.472656 -20.867188 10.101562 -20.359375 10.5 -19.640625 C 11.082031 -18.753906 11.476562 -18.039062 11.6875 -17.5 C 11.875 -17.101562 12.050781 -16.742188 12.21875 -16.421875 C 12.351562 -16.140625 12.476562 -15.867188 12.59375 -15.609375 C 12.71875 -15.347656 12.800781 -15.1875 12.84375 -15.125 C 12.863281 -15.09375 12.878906 -15.046875 12.890625 -14.984375 C 12.910156 -14.929688 12.976562 -14.835938 13.09375 -14.703125 C 13.113281 -14.628906 13.144531 -14.554688 13.1875 -14.484375 C 13.238281 -14.421875 13.285156 -14.328125 13.328125 -14.203125 C 13.378906 -14.140625 13.4375 -14.023438 13.5 -13.859375 C 13.570312 -13.691406 13.65625 -13.484375 13.75 -13.234375 C 13.957031 -12.691406 14.085938 -12.410156 14.140625 -12.390625 C 14.179688 -12.203125 14.265625 -11.953125 14.390625 -11.640625 C 14.523438 -11.328125 14.707031 -10.945312 14.9375 -10.5 C 14.96875 -10.457031 14.988281 -10.40625 15 -10.34375 C 15.007812 -10.28125 15.035156 -10.203125 15.078125 -10.109375 C 15.203125 -9.878906 15.285156 -9.671875 15.328125 -9.484375 C 15.347656 -9.460938 15.363281 -9.4375 15.375 -9.40625 C 15.394531 -9.382812 15.425781 -9.351562 15.46875 -9.3125 C 15.46875 -9.238281 15.503906 -9.125 15.578125 -8.96875 C 15.648438 -8.820312 15.726562 -8.664062 15.8125 -8.5 C 15.90625 -8.34375 16 -8.191406 16.09375 -8.046875 C 16.1875 -7.910156 16.257812 -7.816406 16.3125 -7.765625 C 16.332031 -7.765625 16.378906 -7.835938 16.453125 -7.984375 C 16.523438 -8.140625 16.570312 -8.414062 16.59375 -8.8125 C 16.613281 -9 16.625 -9.179688 16.625 -9.359375 C 16.625 -9.535156 16.632812 -9.71875 16.65625 -9.90625 C 16.65625 -10.070312 16.65625 -10.320312 16.65625 -10.65625 C 16.65625 -11 16.664062 -11.398438 16.6875 -11.859375 C 16.664062 -12.773438 16.664062 -13.441406 16.6875 -13.859375 C 16.71875 -14.046875 16.722656 -14.394531 16.703125 -14.90625 C 16.691406 -15.425781 16.703125 -16.019531 16.734375 -16.6875 C 16.703125 -18.039062 16.703125 -18.800781 16.734375 -18.96875 C 16.773438 -19.15625 16.816406 -19.351562 16.859375 -19.5625 C 16.910156 -19.769531 16.992188 -19.976562 17.109375 -20.1875 C 17.410156 -20.800781 17.972656 -21.210938 18.796875 -21.421875 C 19.191406 -21.492188 19.566406 -21.53125 19.921875 -21.53125 C 20.453125 -21.53125 21.015625 -21.410156 21.609375 -21.171875 C 22.203125 -20.941406 22.617188 -20.554688 22.859375 -20.015625 C 22.953125 -19.785156 23.023438 -19.429688 23.078125 -18.953125 C 23.140625 -18.472656 23.171875 -17.875 23.171875 -17.15625 C 23.210938 -16.570312 23.238281 -16.007812 23.25 -15.46875 C 23.269531 -14.9375 23.28125 -14.503906 23.28125 -14.171875 C 23.25 -13.285156 23.21875 -12.570312 23.1875 -12.03125 C 23.15625 -11.5 23.125 -11.140625 23.09375 -10.953125 C 23.070312 -10.878906 23.066406 -10.644531 23.078125 -10.25 C 23.085938 -9.851562 23.082031 -9.296875 23.0625 -8.578125 C 23.0625 -7.078125 23.050781 -6.296875 23.03125 -6.234375 C 23.03125 -6.046875 23.03125 -5.785156 23.03125 -5.453125 C 23.03125 -5.128906 23.003906 -4.675781 22.953125 -4.09375 C 22.910156 -3.832031 22.890625 -3.625 22.890625 -3.46875 C 22.890625 -3.320312 22.890625 -3.238281 22.890625 -3.21875 C 22.867188 -3.101562 22.835938 -2.921875 22.796875 -2.671875 C 22.765625 -2.429688 22.710938 -2.132812 22.640625 -1.78125 C 22.578125 -1.3125 22.363281 -0.898438 22 -0.546875 C 21.632812 -0.203125 21.242188 0.0351562 20.828125 0.171875 C 20.566406 0.242188 20.25 0.222656 19.875 0.109375 C 19.8125 0.078125 19.734375 0.0625 19.640625 0.0625 C 19.546875 0.0625 19.4375 0.0507812 19.3125 0.03125 C 17.613281 -0.21875 16.34375 -0.878906 15.5 -1.953125 C 15.289062 -2.210938 15.066406 -2.484375 14.828125 -2.765625 C 14.597656 -3.046875 14.378906 -3.375 14.171875 -3.75 C 14.054688 -3.90625 13.914062 -4.132812 13.75 -4.4375 C 13.59375 -4.75 13.382812 -5.132812 13.125 -5.59375 C 12.726562 -6.269531 12.367188 -6.945312 12.046875 -7.625 C 11.734375 -8.300781 11.414062 -9.015625 11.09375 -9.765625 C 10.976562 -10.023438 10.882812 -10.253906 10.8125 -10.453125 C 10.738281 -10.648438 10.65625 -10.84375 10.5625 -11.03125 C 10.40625 -11.445312 10.257812 -11.804688 10.125 -12.109375 C 10 -12.410156 9.914062 -12.65625 9.875 -12.84375 L 9.6875 -13.234375 C 9.6875 -13.203125 9.679688 -13.164062 9.671875 -13.125 C 9.660156 -13.082031 9.644531 -13 9.625 -12.875 C 9.582031 -12.53125 9.539062 -12.195312 9.5 -11.875 C 9.46875 -11.5625 9.441406 -11.265625 9.421875 -10.984375 C 9.421875 -10.035156 9.394531 -9.46875 9.34375 -9.28125 C 9.34375 -9.226562 9.34375 -9.101562 9.34375 -8.90625 C 9.34375 -8.707031 9.332031 -8.429688 9.3125 -8.078125 C 9.3125 -7.585938 9.289062 -7.046875 9.25 -6.453125 C 9.21875 -5.859375 9.164062 -5.257812 9.09375 -4.65625 C 9.03125 -4.050781 8.953125 -3.460938 8.859375 -2.890625 C 8.765625 -2.316406 8.644531 -1.796875 8.5 -1.328125 C 8.382812 -0.859375 8.28125 -0.550781 8.1875 -0.40625 C 8.09375 -0.269531 7.929688 -0.144531 7.703125 -0.03125 C 7.492188 0.03125 7.269531 0.0820312 7.03125 0.125 C 6.800781 0.175781 6.546875 0.203125 6.265625 0.203125 C 5.890625 0.203125 5.472656 0.164062 5.015625 0.09375 C 4.566406 0.03125 4.132812 -0.0859375 3.71875 -0.265625 C 3.3125 -0.441406 2.960938 -0.675781 2.671875 -0.96875 C 2.378906 -1.257812 2.203125 -1.625 2.140625 -2.0625 C 2.109375 -2.15625 2.09375 -2.40625 2.09375 -2.8125 C 2.09375 -3.226562 2.082031 -3.691406 2.0625 -4.203125 C 2.0625 -4.765625 2.050781 -5.222656 2.03125 -5.578125 C 2.007812 -5.941406 2.019531 -6.207031 2.0625 -6.375 C 2.0625 -6.4375 2.070312 -6.566406 2.09375 -6.765625 C 2.125 -6.960938 2.140625 -7.085938 2.140625 -7.140625 C 2.179688 -7.535156 2.222656 -8.085938 2.265625 -8.796875 C 2.316406 -9.515625 2.367188 -10.394531 2.421875 -11.4375 C 2.421875 -11.507812 2.4375 -11.679688 2.46875 -11.953125 C 2.5 -12.222656 2.515625 -12.40625 2.515625 -12.5 L 2.515625 -13.4375 C 2.566406 -13.601562 2.59375 -13.765625 2.59375 -13.921875 C 2.59375 -14.085938 2.601562 -14.265625 2.625 -14.453125 C 2.625 -14.710938 2.628906 -14.921875 2.640625 -15.078125 C 2.648438 -15.242188 2.664062 -15.382812 2.6875 -15.5 C 2.757812 -16.082031 2.804688 -16.585938 2.828125 -17.015625 C 2.859375 -17.453125 2.894531 -17.800781 2.9375 -18.0625 C 3.050781 -18.550781 3.191406 -19 3.359375 -19.40625 C 3.523438 -19.8125 3.734375 -20.15625 3.984375 -20.4375 C 4.171875 -20.695312 4.40625 -20.90625 4.6875 -21.0625 C 4.96875 -21.226562 5.285156 -21.367188 5.640625 -21.484375 Z M 5.640625 -21.484375 " />
      </g>
    </g>
  </g>
</svg>