<svg xmlns="http://www.w3.org/2000/svg" xmlns:xlink="http://www.w3.org/1999/xlink" width="500" zoomAndPan="magnify" viewBox="0 0 375 374.999991" height="500" preserveAspectRatio="xMidYMid meet" version="1.0"><defs><g/><clipPath id="b62a8e0ba7"><path d="M 313 134 L 375 134 L 375 197 L 313 197 Z M 313 134 " clip-rule="nonzero"/></clipPath><clipPath id="a650d8b601"><path d="M 324.105469 134.695312 L 375.015625 185.609375 L 363.878906 196.746094 L 312.964844 145.832031 Z M 324.105469 134.695312 " clip-rule="nonzero"/></clipPath><clipPath id="33a37856ca"><path d="M 324.105469 134.695312 L 416.910156 227.503906 L 405.773438 238.640625 L 312.964844 145.832031 Z M 324.105469 134.695312 " clip-rule="nonzero"/></clipPath><clipPath id="1b0665deff"><path d="M 309 174 L 375 174 L 375 241 L 309 241 Z M 309 174 " clip-rule="nonzero"/></clipPath><clipPath id="cccf5b707a"><path d="M 374.996094 185.585938 L 320.371094 240.207031 L 309.234375 229.070312 L 363.859375 174.449219 Z M 374.996094 185.585938 " clip-rule="nonzero"/></clipPath><clipPath id="60cbab10e8"><path d="M 374.996094 185.585938 L 282.1875 278.394531 L 271.050781 267.253906 L 363.859375 174.449219 Z M 374.996094 185.585938 " clip-rule="nonzero"/></clipPath><clipPath id="1ae06fc2bb"><path d="M 4 178 L 67 178 L 67 241 L 4 241 Z M 4 178 " clip-rule="nonzero"/></clipPath><clipPath id="2b0f416f2c"><path d="M 55.585938 240.296875 L 4.675781 189.386719 L 15.8125 178.25 L 66.722656 229.160156 Z M 55.585938 240.296875 " clip-rule="nonzero"/></clipPath><clipPath id="12c810642a"><path d="M 55.585938 240.296875 L -37.222656 147.492188 L -26.085938 136.351562 L 66.722656 229.160156 Z M 55.585938 240.296875 " clip-rule="nonzero"/></clipPath><clipPath id="ada09d952a"><path d="M 4 134 L 71 134 L 71 201 L 4 201 Z M 4 134 " clip-rule="nonzero"/></clipPath><clipPath id="1b28373ce5"><path d="M 4.699219 189.410156 L 59.324219 134.785156 L 70.460938 145.921875 L 15.835938 200.546875 Z M 4.699219 189.410156 " clip-rule="nonzero"/></clipPath><clipPath id="1fd900374b"><path d="M 4.699219 189.410156 L 97.507812 96.601562 L 108.644531 107.738281 L 15.835938 200.546875 Z M 4.699219 189.410156 " clip-rule="nonzero"/></clipPath></defs><g fill="#ff00ff" fill-opacity="1"><g transform="translate(71.079009, 200.624987)"><g><path d="M 3.488281 0 L 17.140625 0 C 23.035156 0 27.019531 -3.238281 27.019531 -8.136719 C 27.019531 -11.246094 25.402344 -13.738281 22.660156 -14.941406 C 24.863281 -16.226562 26.148438 -18.511719 26.148438 -21.25 C 26.148438 -26.023438 22.371094 -29.054688 16.476562 -29.054688 L 3.488281 -29.054688 Z M 10.003906 -5.230469 L 10.003906 -12.203125 L 16.144531 -12.203125 C 18.761719 -12.203125 20.253906 -10.914062 20.253906 -8.714844 C 20.253906 -6.515625 18.761719 -5.230469 16.144531 -5.230469 Z M 10.003906 -17.222656 L 10.003906 -23.824219 L 15.480469 -23.824219 C 18.011719 -23.824219 19.425781 -22.660156 19.425781 -20.546875 C 19.425781 -18.429688 18.011719 -17.222656 15.480469 -17.222656 Z M 10.003906 -17.222656 "/></g></g></g><g fill="#ff00ff" fill-opacity="1"><g transform="translate(99.669816, 200.624987)"><g><path d="M 17.265625 0.582031 C 26.355469 0.582031 32.789062 -5.644531 32.789062 -14.527344 C 32.789062 -23.410156 26.355469 -29.632812 17.265625 -29.632812 C 8.175781 -29.632812 1.785156 -23.410156 1.785156 -14.527344 C 1.785156 -5.644531 8.175781 0.582031 17.265625 0.582031 Z M 8.507812 -14.527344 C 8.507812 -19.757812 12.121094 -23.367188 17.265625 -23.367188 C 22.453125 -23.367188 26.023438 -19.757812 26.023438 -14.527344 C 26.023438 -9.296875 22.453125 -5.6875 17.265625 -5.6875 C 12.121094 -5.6875 8.507812 -9.296875 8.507812 -14.527344 Z M 8.507812 -14.527344 "/></g></g></g><g fill="#ff00ff" fill-opacity="1"><g transform="translate(134.236064, 200.624987)"><g><path d="M 17.265625 0.582031 C 26.355469 0.582031 32.789062 -5.644531 32.789062 -14.527344 C 32.789062 -23.410156 26.355469 -29.632812 17.265625 -29.632812 C 8.175781 -29.632812 1.785156 -23.410156 1.785156 -14.527344 C 1.785156 -5.644531 8.175781 0.582031 17.265625 0.582031 Z M 8.507812 -14.527344 C 8.507812 -19.757812 12.121094 -23.367188 17.265625 -23.367188 C 22.453125 -23.367188 26.023438 -19.757812 26.023438 -14.527344 C 26.023438 -9.296875 22.453125 -5.6875 17.265625 -5.6875 C 12.121094 -5.6875 8.507812 -9.296875 8.507812 -14.527344 Z M 8.507812 -14.527344 "/></g></g></g><g fill="#ff00ff" fill-opacity="1"><g transform="translate(168.802311, 200.624987)"><g><path d="M 3.488281 0 L 22.785156 0 L 22.785156 -6.183594 L 10.085938 -6.183594 L 10.085938 -29.054688 L 3.488281 -29.054688 Z M 3.488281 0 "/></g></g></g><g fill="#ff00ff" fill-opacity="1"><g transform="translate(192.704062, 200.624987)"><g><path d="M 3.488281 0 L 23.035156 0 L 23.035156 -5.601562 L 10.042969 -5.601562 L 10.042969 -11.953125 L 21.457031 -11.953125 L 21.457031 -17.472656 L 10.042969 -17.472656 L 10.042969 -23.492188 L 22.578125 -23.492188 L 22.578125 -29.054688 L 3.488281 -29.054688 Z M 3.488281 0 "/></g></g></g><g fill="#ff00ff" fill-opacity="1"><g transform="translate(217.850701, 200.624987)"><g><path d="M 0.375 0 L 7.429688 0 L 9.378906 -5.023438 L 20.917969 -5.023438 L 22.871094 0 L 29.925781 0 L 18.386719 -29.054688 L 11.910156 -29.054688 Z M 11.082031 -10.210938 L 15.148438 -20.835938 L 19.257812 -10.210938 Z M 11.082031 -10.210938 "/></g></g></g><g fill="#ff00ff" fill-opacity="1"><g transform="translate(248.142855, 200.624987)"><g><path d="M 3.488281 0 L 10.085938 0 L 10.085938 -9.046875 L 14.445312 -9.046875 L 19.632812 0 L 27.269531 0 L 21.25 -10.085938 C 24.738281 -11.621094 26.769531 -14.777344 26.769531 -19.050781 C 26.769531 -25.234375 22.539062 -29.054688 15.894531 -29.054688 L 3.488281 -29.054688 Z M 10.003906 -14.609375 L 10.003906 -23.410156 L 15.023438 -23.410156 C 18.261719 -23.410156 20.089844 -21.832031 20.089844 -19.007812 C 20.089844 -16.1875 18.261719 -14.609375 15.023438 -14.609375 Z M 10.003906 -14.609375 "/></g></g></g><g fill="#ff00ff" fill-opacity="1"><g transform="translate(277.356095, 200.624987)"><g><path d="M 3.488281 0 L 10.042969 0 L 10.042969 -17.804688 L 22.871094 0 L 28.472656 0 L 28.472656 -29.054688 L 21.914062 -29.054688 L 21.914062 -11.371094 L 9.089844 -29.054688 L 3.488281 -29.054688 Z M 3.488281 0 "/></g></g></g><g fill="#00ffff" fill-opacity="1"><g transform="translate(69.522305, 200.624987)"><g><path d="M 3.488281 0 L 17.140625 0 C 23.035156 0 27.019531 -3.238281 27.019531 -8.136719 C 27.019531 -11.246094 25.402344 -13.738281 22.660156 -14.941406 C 24.863281 -16.226562 26.148438 -18.511719 26.148438 -21.25 C 26.148438 -26.023438 22.371094 -29.054688 16.476562 -29.054688 L 3.488281 -29.054688 Z M 10.003906 -5.230469 L 10.003906 -12.203125 L 16.144531 -12.203125 C 18.761719 -12.203125 20.253906 -10.914062 20.253906 -8.714844 C 20.253906 -6.515625 18.761719 -5.230469 16.144531 -5.230469 Z M 10.003906 -17.222656 L 10.003906 -23.824219 L 15.480469 -23.824219 C 18.011719 -23.824219 19.425781 -22.660156 19.425781 -20.546875 C 19.425781 -18.429688 18.011719 -17.222656 15.480469 -17.222656 Z M 10.003906 -17.222656 "/></g></g></g><g fill="#00ffff" fill-opacity="1"><g transform="translate(98.113111, 200.624987)"><g><path d="M 17.265625 0.582031 C 26.355469 0.582031 32.789062 -5.644531 32.789062 -14.527344 C 32.789062 -23.410156 26.355469 -29.632812 17.265625 -29.632812 C 8.175781 -29.632812 1.785156 -23.410156 1.785156 -14.527344 C 1.785156 -5.644531 8.175781 0.582031 17.265625 0.582031 Z M 8.507812 -14.527344 C 8.507812 -19.757812 12.121094 -23.367188 17.265625 -23.367188 C 22.453125 -23.367188 26.023438 -19.757812 26.023438 -14.527344 C 26.023438 -9.296875 22.453125 -5.6875 17.265625 -5.6875 C 12.121094 -5.6875 8.507812 -9.296875 8.507812 -14.527344 Z M 8.507812 -14.527344 "/></g></g></g><g fill="#00ffff" fill-opacity="1"><g transform="translate(132.679359, 200.624987)"><g><path d="M 17.265625 0.582031 C 26.355469 0.582031 32.789062 -5.644531 32.789062 -14.527344 C 32.789062 -23.410156 26.355469 -29.632812 17.265625 -29.632812 C 8.175781 -29.632812 1.785156 -23.410156 1.785156 -14.527344 C 1.785156 -5.644531 8.175781 0.582031 17.265625 0.582031 Z M 8.507812 -14.527344 C 8.507812 -19.757812 12.121094 -23.367188 17.265625 -23.367188 C 22.453125 -23.367188 26.023438 -19.757812 26.023438 -14.527344 C 26.023438 -9.296875 22.453125 -5.6875 17.265625 -5.6875 C 12.121094 -5.6875 8.507812 -9.296875 8.507812 -14.527344 Z M 8.507812 -14.527344 "/></g></g></g><g fill="#00ffff" fill-opacity="1"><g transform="translate(167.245606, 200.624987)"><g><path d="M 3.488281 0 L 22.785156 0 L 22.785156 -6.183594 L 10.085938 -6.183594 L 10.085938 -29.054688 L 3.488281 -29.054688 Z M 3.488281 0 "/></g></g></g><g fill="#00ffff" fill-opacity="1"><g transform="translate(191.147357, 200.624987)"><g><path d="M 3.488281 0 L 23.035156 0 L 23.035156 -5.601562 L 10.042969 -5.601562 L 10.042969 -11.953125 L 21.457031 -11.953125 L 21.457031 -17.472656 L 10.042969 -17.472656 L 10.042969 -23.492188 L 22.578125 -23.492188 L 22.578125 -29.054688 L 3.488281 -29.054688 Z M 3.488281 0 "/></g></g></g><g fill="#00ffff" fill-opacity="1"><g transform="translate(216.293996, 200.624987)"><g><path d="M 0.375 0 L 7.429688 0 L 9.378906 -5.023438 L 20.917969 -5.023438 L 22.871094 0 L 29.925781 0 L 18.386719 -29.054688 L 11.910156 -29.054688 Z M 11.082031 -10.210938 L 15.148438 -20.835938 L 19.257812 -10.210938 Z M 11.082031 -10.210938 "/></g></g></g><g fill="#00ffff" fill-opacity="1"><g transform="translate(246.58615, 200.624987)"><g><path d="M 3.488281 0 L 10.085938 0 L 10.085938 -9.046875 L 14.445312 -9.046875 L 19.632812 0 L 27.269531 0 L 21.25 -10.085938 C 24.738281 -11.621094 26.769531 -14.777344 26.769531 -19.050781 C 26.769531 -25.234375 22.539062 -29.054688 15.894531 -29.054688 L 3.488281 -29.054688 Z M 10.003906 -14.609375 L 10.003906 -23.410156 L 15.023438 -23.410156 C 18.261719 -23.410156 20.089844 -21.832031 20.089844 -19.007812 C 20.089844 -16.1875 18.261719 -14.609375 15.023438 -14.609375 Z M 10.003906 -14.609375 "/></g></g></g><g fill="#00ffff" fill-opacity="1"><g transform="translate(275.79939, 200.624987)"><g><path d="M 3.488281 0 L 10.042969 0 L 10.042969 -17.804688 L 22.871094 0 L 28.472656 0 L 28.472656 -29.054688 L 21.914062 -29.054688 L 21.914062 -11.371094 L 9.089844 -29.054688 L 3.488281 -29.054688 Z M 3.488281 0 "/></g></g></g><g fill="#000000" fill-opacity="1"><g transform="translate(70.300656, 200.624987)"><g><path d="M 3.488281 0 L 17.140625 0 C 23.035156 0 27.019531 -3.238281 27.019531 -8.136719 C 27.019531 -11.246094 25.402344 -13.738281 22.660156 -14.941406 C 24.863281 -16.226562 26.148438 -18.511719 26.148438 -21.25 C 26.148438 -26.023438 22.371094 -29.054688 16.476562 -29.054688 L 3.488281 -29.054688 Z M 10.003906 -5.230469 L 10.003906 -12.203125 L 16.144531 -12.203125 C 18.761719 -12.203125 20.253906 -10.914062 20.253906 -8.714844 C 20.253906 -6.515625 18.761719 -5.230469 16.144531 -5.230469 Z M 10.003906 -17.222656 L 10.003906 -23.824219 L 15.480469 -23.824219 C 18.011719 -23.824219 19.425781 -22.660156 19.425781 -20.546875 C 19.425781 -18.429688 18.011719 -17.222656 15.480469 -17.222656 Z M 10.003906 -17.222656 "/></g></g></g><g fill="#000000" fill-opacity="1"><g transform="translate(98.891463, 200.624987)"><g><path d="M 17.265625 0.582031 C 26.355469 0.582031 32.789062 -5.644531 32.789062 -14.527344 C 32.789062 -23.410156 26.355469 -29.632812 17.265625 -29.632812 C 8.175781 -29.632812 1.785156 -23.410156 1.785156 -14.527344 C 1.785156 -5.644531 8.175781 0.582031 17.265625 0.582031 Z M 8.507812 -14.527344 C 8.507812 -19.757812 12.121094 -23.367188 17.265625 -23.367188 C 22.453125 -23.367188 26.023438 -19.757812 26.023438 -14.527344 C 26.023438 -9.296875 22.453125 -5.6875 17.265625 -5.6875 C 12.121094 -5.6875 8.507812 -9.296875 8.507812 -14.527344 Z M 8.507812 -14.527344 "/></g></g></g><g fill="#000000" fill-opacity="1"><g transform="translate(133.45771, 200.624987)"><g><path d="M 17.265625 0.582031 C 26.355469 0.582031 32.789062 -5.644531 32.789062 -14.527344 C 32.789062 -23.410156 26.355469 -29.632812 17.265625 -29.632812 C 8.175781 -29.632812 1.785156 -23.410156 1.785156 -14.527344 C 1.785156 -5.644531 8.175781 0.582031 17.265625 0.582031 Z M 8.507812 -14.527344 C 8.507812 -19.757812 12.121094 -23.367188 17.265625 -23.367188 C 22.453125 -23.367188 26.023438 -19.757812 26.023438 -14.527344 C 26.023438 -9.296875 22.453125 -5.6875 17.265625 -5.6875 C 12.121094 -5.6875 8.507812 -9.296875 8.507812 -14.527344 Z M 8.507812 -14.527344 "/></g></g></g><g fill="#000000" fill-opacity="1"><g transform="translate(168.023957, 200.624987)"><g><path d="M 3.488281 0 L 22.785156 0 L 22.785156 -6.183594 L 10.085938 -6.183594 L 10.085938 -29.054688 L 3.488281 -29.054688 Z M 3.488281 0 "/></g></g></g><g fill="#000000" fill-opacity="1"><g transform="translate(191.925708, 200.624987)"><g><path d="M 3.488281 0 L 23.035156 0 L 23.035156 -5.601562 L 10.042969 -5.601562 L 10.042969 -11.953125 L 21.457031 -11.953125 L 21.457031 -17.472656 L 10.042969 -17.472656 L 10.042969 -23.492188 L 22.578125 -23.492188 L 22.578125 -29.054688 L 3.488281 -29.054688 Z M 3.488281 0 "/></g></g></g><g fill="#000000" fill-opacity="1"><g transform="translate(217.072347, 200.624987)"><g><path d="M 0.375 0 L 7.429688 0 L 9.378906 -5.023438 L 20.917969 -5.023438 L 22.871094 0 L 29.925781 0 L 18.386719 -29.054688 L 11.910156 -29.054688 Z M 11.082031 -10.210938 L 15.148438 -20.835938 L 19.257812 -10.210938 Z M 11.082031 -10.210938 "/></g></g></g><g fill="#000000" fill-opacity="1"><g transform="translate(247.364502, 200.624987)"><g><path d="M 3.488281 0 L 10.085938 0 L 10.085938 -9.046875 L 14.445312 -9.046875 L 19.632812 0 L 27.269531 0 L 21.25 -10.085938 C 24.738281 -11.621094 26.769531 -14.777344 26.769531 -19.050781 C 26.769531 -25.234375 22.539062 -29.054688 15.894531 -29.054688 L 3.488281 -29.054688 Z M 10.003906 -14.609375 L 10.003906 -23.410156 L 15.023438 -23.410156 C 18.261719 -23.410156 20.089844 -21.832031 20.089844 -19.007812 C 20.089844 -16.1875 18.261719 -14.609375 15.023438 -14.609375 Z M 10.003906 -14.609375 "/></g></g></g><g fill="#000000" fill-opacity="1"><g transform="translate(276.577741, 200.624987)"><g><path d="M 3.488281 0 L 10.042969 0 L 10.042969 -17.804688 L 22.871094 0 L 28.472656 0 L 28.472656 -29.054688 L 21.914062 -29.054688 L 21.914062 -11.371094 L 9.089844 -29.054688 L 3.488281 -29.054688 Z M 3.488281 0 "/></g></g></g><g clip-path="url(#b62a8e0ba7)"><g clip-path="url(#a650d8b601)"><g clip-path="url(#33a37856ca)"><path fill="#939598" d="M 324.164062 134.757812 L 416.667969 227.261719 L 405.785156 238.140625 L 313.285156 145.640625 Z M 324.164062 134.757812 " fill-opacity="1" fill-rule="nonzero"/><path fill="#5271ff" d="M 324.164062 134.757812 L 416.667969 227.261719 L 405.785156 238.140625 L 313.285156 145.640625 Z M 324.164062 134.757812 " fill-opacity="1" fill-rule="nonzero"/></g></g></g><g clip-path="url(#1b0665deff)"><g clip-path="url(#cccf5b707a)"><g clip-path="url(#60cbab10e8)"><path fill="#939598" d="M 374.933594 185.648438 L 282.433594 278.148438 L 271.550781 267.269531 L 364.050781 174.765625 Z M 374.933594 185.648438 " fill-opacity="1" fill-rule="nonzero"/><path fill="#5271ff" d="M 374.933594 185.648438 L 282.433594 278.148438 L 271.550781 267.269531 L 364.050781 174.765625 Z M 374.933594 185.648438 " fill-opacity="1" fill-rule="nonzero"/></g></g></g><g clip-path="url(#1ae06fc2bb)"><g clip-path="url(#2b0f416f2c)"><g clip-path="url(#12c810642a)"><path fill="#939598" d="M 55.523438 240.234375 L -36.976562 147.734375 L -26.097656 136.855469 L 66.402344 229.355469 Z M 55.523438 240.234375 " fill-opacity="1" fill-rule="nonzero"/><path fill="#5271ff" d="M 55.523438 240.234375 L -36.976562 147.734375 L -26.097656 136.855469 L 66.402344 229.355469 Z M 55.523438 240.234375 " fill-opacity="1" fill-rule="nonzero"/></g></g></g><g clip-path="url(#ada09d952a)"><g clip-path="url(#1b28373ce5)"><g clip-path="url(#1fd900374b)"><path fill="#939598" d="M 4.761719 189.347656 L 97.261719 96.847656 L 108.144531 107.726562 L 15.644531 200.226562 Z M 4.761719 189.347656 " fill-opacity="1" fill-rule="nonzero"/><path fill="#5271ff" d="M 4.761719 189.347656 L 97.261719 96.847656 L 108.144531 107.726562 L 15.644531 200.226562 Z M 4.761719 189.347656 " fill-opacity="1" fill-rule="nonzero"/></g></g></g></svg>